{
    "asset" : {
        "generator" : "Khronos glTF Blender I/O v3.3.32",
        "version" : "2.0"
    },
    "extensionsUsed" : [
        "KHR_materials_specular",
        "KHR_materials_ior"
    ],
    "scene" : 0,
    "scenes" : [
        {
            "name" : "Scene",
            "nodes" : [
                0,
                1,
                2,
                3,
                4,
                5,
                6,
                7,
                8,
                9
            ]
        }
    ],
    "nodes" : [
        {
            "mesh" : 0,
            "name" : "Cube"
        },
        {
            "mesh" : 1,
            "name" : "Sphere",
            "scale" : [
                0.6786226034164429,
                0.8049116730690002,
                0.6786226034164429
            ],
            "translation" : [
                -0.9946694374084473,
                8.572244644165039,
                -0.31706881523132324
            ]
        },
        {
            "mesh" : 2,
            "name" : "Sphere.001"
        },
        {
            "mesh" : 3,
            "name" : "Sphere.002"
        },
        {
            "mesh" : 4,
            "name" : "Sphere.003",
            "scale" : [
                0.926205039024353,
                0.926205039024353,
                0.926205039024353
            ],
            "translation" : [
                -0.13755443692207336,
                7.312787055969238,
                -1.8736851215362549
            ]
        },
        {
            "mesh" : 5,
            "name" : "Sphere.004",
            "translation" : [
                0,
                -0.6303377151489258,
                0
            ]
        },
        {
            "mesh" : 6,
            "name" : "Sphere.005"
        },
        {
            "mesh" : 7,
            "name" : "Sphere.006",
            "translation" : [
                0.06909967958927155,
                0.18475013971328735,
                -0.45394468307495117
            ]
        },
        {
            "mesh" : 8,
            "name" : "Sphere.007"
        },
        {
            "mesh" : 9,
            "name" : "Sphere.010",
            "translation" : [
                -0.6738045811653137,
                -0.891628623008728,
                0.908797025680542
            ]
        }
    ],
    "materials" : [
        {
            "doubleSided" : true,
            "extensions" : {
                "KHR_materials_specular" : {
                    "specularColorFactor" : [
                        0,
                        0,
                        0
                    ]
                },
                "KHR_materials_ior" : {
                    "ior" : 1.4500000476837158
                }
            },
            "name" : "Material",
            "pbrMetallicRoughness" : {
                "baseColorFactor" : [
                    0.1245264783501625,
                    0.07189643383026123,
                    0.017395231872797012,
                    1
                ],
                "metallicFactor" : 0
            }
        },
        {
            "doubleSided" : true,
            "extensions" : {
                "KHR_materials_specular" : {
                    "specularColorFactor" : [
                        0.029396992884084632,
                        0.029396992884084632,
                        0.029396992884084632
                    ]
                },
                "KHR_materials_ior" : {
                    "ior" : 1.4500000476837158
                }
            },
            "name" : "Material.001",
            "pbrMetallicRoughness" : {
                "baseColorFactor" : [
                    0.01219305768609047,
                    0.06595650315284729,
                    0.004047351889312267,
                    1
                ],
                "metallicFactor" : 0
            }
        }
    ],
    "meshes" : [
        {
            "name" : "Cube",
            "primitives" : [
                {
                    "attributes" : {
                        "POSITION" : 0,
                        "NORMAL" : 1,
                        "TEXCOORD_0" : 2
                    },
                    "indices" : 3,
                    "material" : 0
                }
            ]
        },
        {
            "name" : "Sphere",
            "primitives" : [
                {
                    "attributes" : {
                        "POSITION" : 4,
                        "NORMAL" : 5,
                        "TEXCOORD_0" : 6
                    },
                    "indices" : 7,
                    "material" : 1
                }
            ]
        },
        {
            "name" : "Sphere.001",
            "primitives" : [
                {
                    "attributes" : {
                        "POSITION" : 8,
                        "NORMAL" : 9,
                        "TEXCOORD_0" : 10
                    },
                    "indices" : 11,
                    "material" : 1
                }
            ]
        },
        {
            "name" : "Sphere.002",
            "primitives" : [
                {
                    "attributes" : {
                        "POSITION" : 12,
                        "NORMAL" : 13,
                        "TEXCOORD_0" : 14
                    },
                    "indices" : 15,
                    "material" : 1
                }
            ]
        },
        {
            "name" : "Sphere.003",
            "primitives" : [
                {
                    "attributes" : {
                        "POSITION" : 16,
                        "NORMAL" : 17,
                        "TEXCOORD_0" : 18
                    },
                    "indices" : 19,
                    "material" : 1
                }
            ]
        },
        {
            "name" : "Sphere.004",
            "primitives" : [
                {
                    "attributes" : {
                        "POSITION" : 20,
                        "NORMAL" : 21,
                        "TEXCOORD_0" : 22
                    },
                    "indices" : 19,
                    "material" : 1
                }
            ]
        },
        {
            "name" : "Sphere.005",
            "primitives" : [
                {
                    "attributes" : {
                        "POSITION" : 23,
                        "NORMAL" : 24,
                        "TEXCOORD_0" : 25
                    },
                    "indices" : 26,
                    "material" : 1
                }
            ]
        },
        {
            "name" : "Sphere.006",
            "primitives" : [
                {
                    "attributes" : {
                        "POSITION" : 27,
                        "NORMAL" : 28,
                        "TEXCOORD_0" : 29
                    },
                    "indices" : 30,
                    "material" : 1
                }
            ]
        },
        {
            "name" : "Sphere.007",
            "primitives" : [
                {
                    "attributes" : {
                        "POSITION" : 31,
                        "NORMAL" : 32,
                        "TEXCOORD_0" : 33
                    },
                    "indices" : 34,
                    "material" : 1
                }
            ]
        },
        {
            "name" : "Sphere.010",
            "primitives" : [
                {
                    "attributes" : {
                        "POSITION" : 35,
                        "NORMAL" : 36,
                        "TEXCOORD_0" : 37
                    },
                    "indices" : 19,
                    "material" : 1
                }
            ]
        }
    ],
    "accessors" : [
        {
            "bufferView" : 0,
            "componentType" : 5126,
            "count" : 166,
            "max" : [
                2.9867122173309326,
                9.401808738708496,
                1.7085673809051514
            ],
            "min" : [
                -2.813868999481201,
                -2.9438869953155518,
                -1.4746407270431519
            ],
            "type" : "VEC3"
        },
        {
            "bufferView" : 1,
            "componentType" : 5126,
            "count" : 166,
            "type" : "VEC3"
        },
        {
            "bufferView" : 2,
            "componentType" : 5126,
            "count" : 166,
            "type" : "VEC2"
        },
        {
            "bufferView" : 3,
            "componentType" : 5123,
            "count" : 744,
            "type" : "SCALAR"
        },
        {
            "bufferView" : 4,
            "componentType" : 5126,
            "count" : 1984,
            "max" : [
                1.3935611248016357,
                0.7739019393920898,
                1.1833003759384155
            ],
            "min" : [
                -1.441425085067749,
                -0.684016227722168,
                -1.1989102363586426
            ],
            "type" : "VEC3"
        },
        {
            "bufferView" : 5,
            "componentType" : 5126,
            "count" : 1984,
            "type" : "VEC3"
        },
        {
            "bufferView" : 6,
            "componentType" : 5126,
            "count" : 1984,
            "type" : "VEC2"
        },
        {
            "bufferView" : 7,
            "componentType" : 5123,
            "count" : 2880,
            "type" : "SCALAR"
        },
        {
            "bufferView" : 8,
            "componentType" : 5126,
            "count" : 1984,
            "max" : [
                4.034130096435547,
                5.126034736633301,
                1.0494722127914429
            ],
            "min" : [
                2.2472739219665527,
                3.7972710132598877,
                -0.4937082529067993
            ],
            "type" : "VEC3"
        },
        {
            "bufferView" : 9,
            "componentType" : 5126,
            "count" : 1984,
            "type" : "VEC3"
        },
        {
            "bufferView" : 10,
            "componentType" : 5126,
            "count" : 1984,
            "type" : "VEC2"
        },
        {
            "bufferView" : 11,
            "componentType" : 5123,
            "count" : 2880,
            "type" : "SCALAR"
        },
        {
            "bufferView" : 12,
            "componentType" : 5126,
            "count" : 7936,
            "max" : [
                2.3233022689819336,
                10.25501823425293,
                1.6289373636245728
            ],
            "min" : [
                -0.04852627217769623,
                8.079697608947754,
                -1.140618920326233
            ],
            "type" : "VEC3"
        },
        {
            "bufferView" : 13,
            "componentType" : 5126,
            "count" : 7936,
            "type" : "VEC3"
        },
        {
            "bufferView" : 14,
            "componentType" : 5126,
            "count" : 7936,
            "type" : "VEC2"
        },
        {
            "bufferView" : 15,
            "componentType" : 5123,
            "count" : 11904,
            "type" : "SCALAR"
        },
        {
            "bufferView" : 16,
            "componentType" : 5126,
            "count" : 1984,
            "max" : [
                0.9450814723968506,
                0.9384503364562988,
                1.1019833087921143
            ],
            "min" : [
                -0.9927808046340942,
                -0.8294439315795898,
                -1.1326563358306885
            ],
            "type" : "VEC3"
        },
        {
            "bufferView" : 17,
            "componentType" : 5126,
            "count" : 1984,
            "type" : "VEC3"
        },
        {
            "bufferView" : 18,
            "componentType" : 5126,
            "count" : 1984,
            "type" : "VEC2"
        },
        {
            "bufferView" : 19,
            "componentType" : 5123,
            "count" : 2880,
            "type" : "SCALAR"
        },
        {
            "bufferView" : 20,
            "componentType" : 5126,
            "count" : 1984,
            "max" : [
                0.9709154963493347,
                10.679487228393555,
                0.8952988386154175
            ],
            "min" : [
                -0.9669468402862549,
                8.911593437194824,
                -1.3393409252166748
            ],
            "type" : "VEC3"
        },
        {
            "bufferView" : 21,
            "componentType" : 5126,
            "count" : 1984,
            "type" : "VEC3"
        },
        {
            "bufferView" : 22,
            "componentType" : 5126,
            "count" : 1984,
            "type" : "VEC2"
        },
        {
            "bufferView" : 23,
            "componentType" : 5126,
            "count" : 1984,
            "max" : [
                2.100843906402588,
                4.7190399169921875,
                0.6012519001960754
            ],
            "min" : [
                1.1249496936798096,
                4.029828071594238,
                -0.44265466928482056
            ],
            "type" : "VEC3"
        },
        {
            "bufferView" : 24,
            "componentType" : 5126,
            "count" : 1984,
            "type" : "VEC3"
        },
        {
            "bufferView" : 25,
            "componentType" : 5126,
            "count" : 1984,
            "type" : "VEC2"
        },
        {
            "bufferView" : 26,
            "componentType" : 5123,
            "count" : 2880,
            "type" : "SCALAR"
        },
        {
            "bufferView" : 27,
            "componentType" : 5126,
            "count" : 1984,
            "max" : [
                1.0717347860336304,
                7.251970291137695,
                3.0954294204711914
            ],
            "min" : [
                -0.7151211500167847,
                5.923206329345703,
                1.2222793102264404
            ],
            "type" : "VEC3"
        },
        {
            "bufferView" : 28,
            "componentType" : 5126,
            "count" : 1984,
            "type" : "VEC3"
        },
        {
            "bufferView" : 29,
            "componentType" : 5126,
            "count" : 1984,
            "type" : "VEC2"
        },
        {
            "bufferView" : 30,
            "componentType" : 5123,
            "count" : 2880,
            "type" : "SCALAR"
        },
        {
            "bufferView" : 31,
            "componentType" : 5126,
            "count" : 1984,
            "max" : [
                -1.2942328453063965,
                5.982297420501709,
                1.166014313697815
            ],
            "min" : [
                -3.3782474994659424,
                4.459183216094971,
                -1.2371608018875122
            ],
            "type" : "VEC3"
        },
        {
            "bufferView" : 32,
            "componentType" : 5126,
            "count" : 1984,
            "type" : "VEC3"
        },
        {
            "bufferView" : 33,
            "componentType" : 5126,
            "count" : 1984,
            "type" : "VEC2"
        },
        {
            "bufferView" : 34,
            "componentType" : 5123,
            "count" : 2880,
            "type" : "SCALAR"
        },
        {
            "bufferView" : 35,
            "componentType" : 5126,
            "count" : 1984,
            "max" : [
                0.9709154963493347,
                10.679487228393555,
                0.8952988386154175
            ],
            "min" : [
                -0.9669468402862549,
                8.911593437194824,
                -1.3393409252166748
            ],
            "type" : "VEC3"
        },
        {
            "bufferView" : 36,
            "componentType" : 5126,
            "count" : 1984,
            "type" : "VEC3"
        },
        {
            "bufferView" : 37,
            "componentType" : 5126,
            "count" : 1984,
            "type" : "VEC2"
        }
    ],
    "bufferViews" : [
        {
            "buffer" : 0,
            "byteLength" : 1992,
            "byteOffset" : 0,
            "target" : 34962
        },
        {
            "buffer" : 0,
            "byteLength" : 1992,
            "byteOffset" : 1992,
            "target" : 34962
        },
        {
            "buffer" : 0,
            "byteLength" : 1328,
            "byteOffset" : 3984,
            "target" : 34962
        },
        {
            "buffer" : 0,
            "byteLength" : 1488,
            "byteOffset" : 5312,
            "target" : 34963
        },
        {
            "buffer" : 0,
            "byteLength" : 23808,
            "byteOffset" : 6800,
            "target" : 34962
        },
        {
            "buffer" : 0,
            "byteLength" : 23808,
            "byteOffset" : 30608,
            "target" : 34962
        },
        {
            "buffer" : 0,
            "byteLength" : 15872,
            "byteOffset" : 54416,
            "target" : 34962
        },
        {
            "buffer" : 0,
            "byteLength" : 5760,
            "byteOffset" : 70288,
            "target" : 34963
        },
        {
            "buffer" : 0,
            "byteLength" : 23808,
            "byteOffset" : 76048,
            "target" : 34962
        },
        {
            "buffer" : 0,
            "byteLength" : 23808,
            "byteOffset" : 99856,
            "target" : 34962
        },
        {
            "buffer" : 0,
            "byteLength" : 15872,
            "byteOffset" : 123664,
            "target" : 34962
        },
        {
            "buffer" : 0,
            "byteLength" : 5760,
            "byteOffset" : 139536,
            "target" : 34963
        },
        {
            "buffer" : 0,
            "byteLength" : 95232,
            "byteOffset" : 145296,
            "target" : 34962
        },
        {
            "buffer" : 0,
            "byteLength" : 95232,
            "byteOffset" : 240528,
            "target" : 34962
        },
        {
            "buffer" : 0,
            "byteLength" : 63488,
            "byteOffset" : 335760,
            "target" : 34962
        },
        {
            "buffer" : 0,
            "byteLength" : 23808,
            "byteOffset" : 399248,
            "target" : 34963
        },
        {
            "buffer" : 0,
            "byteLength" : 23808,
            "byteOffset" : 423056,
            "target" : 34962
        },
        {
            "buffer" : 0,
            "byteLength" : 23808,
            "byteOffset" : 446864,
            "target" : 34962
        },
        {
            "buffer" : 0,
            "byteLength" : 15872,
            "byteOffset" : 470672,
            "target" : 34962
        },
        {
            "buffer" : 0,
            "byteLength" : 5760,
            "byteOffset" : 486544,
            "target" : 34963
        },
        {
            "buffer" : 0,
            "byteLength" : 23808,
            "byteOffset" : 492304,
            "target" : 34962
        },
        {
            "buffer" : 0,
            "byteLength" : 23808,
            "byteOffset" : 516112,
            "target" : 34962
        },
        {
            "buffer" : 0,
            "byteLength" : 15872,
            "byteOffset" : 539920,
            "target" : 34962
        },
        {
            "buffer" : 0,
            "byteLength" : 23808,
            "byteOffset" : 555792,
            "target" : 34962
        },
        {
            "buffer" : 0,
            "byteLength" : 23808,
            "byteOffset" : 579600,
            "target" : 34962
        },
        {
            "buffer" : 0,
            "byteLength" : 15872,
            "byteOffset" : 603408,
            "target" : 34962
        },
        {
            "buffer" : 0,
            "byteLength" : 5760,
            "byteOffset" : 619280,
            "target" : 34963
        },
        {
            "buffer" : 0,
            "byteLength" : 23808,
            "byteOffset" : 625040,
            "target" : 34962
        },
        {
            "buffer" : 0,
            "byteLength" : 23808,
            "byteOffset" : 648848,
            "target" : 34962
        },
        {
            "buffer" : 0,
            "byteLength" : 15872,
            "byteOffset" : 672656,
            "target" : 34962
        },
        {
            "buffer" : 0,
            "byteLength" : 5760,
            "byteOffset" : 688528,
            "target" : 34963
        },
        {
            "buffer" : 0,
            "byteLength" : 23808,
            "byteOffset" : 694288,
            "target" : 34962
        },
        {
            "buffer" : 0,
            "byteLength" : 23808,
            "byteOffset" : 718096,
            "target" : 34962
        },
        {
            "buffer" : 0,
            "byteLength" : 15872,
            "byteOffset" : 741904,
            "target" : 34962
        },
        {
            "buffer" : 0,
            "byteLength" : 5760,
            "byteOffset" : 757776,
            "target" : 34963
        },
        {
            "buffer" : 0,
            "byteLength" : 23808,
            "byteOffset" : 763536,
            "target" : 34962
        },
        {
            "buffer" : 0,
            "byteLength" : 23808,
            "byteOffset" : 787344,
            "target" : 34962
        },
        {
            "buffer" : 0,
            "byteLength" : 15872,
            "byteOffset" : 811152,
            "target" : 34962
        }
    ],
    "buffers" : [
        {
            "byteLength" : 827024,
            "uri" : "tree.bin"
        }
    ]
}
