{
    "asset" : {
        "generator" : "Khronos glTF Blender I/O v3.3.32",
        "version" : "2.0"
    },
    "extensionsUsed" : [
        "KHR_materials_specular",
        "KHR_materials_ior"
    ],
    "scene" : 0,
    "scenes" : [
        {
            "name" : "Scene",
            "nodes" : [
                0
            ]
        }
    ],
    "nodes" : [
        {
            "mesh" : 0,
            "name" : "Sphere.006",
            "translation" : [
                -0.36408668756484985,
                6.7313690185546875,
                1.7110469341278076
            ]
        }
    ],
    "materials" : [
        {
            "doubleSided" : true,
            "extensions" : {
                "KHR_materials_specular" : {
                    "specularColorFactor" : [
                        0.029396992884084632,
                        0.029396992884084632,
                        0.029396992884084632
                    ]
                },
                "KHR_materials_ior" : {
                    "ior" : 1.4500000476837158
                }
            },
            "name" : "Material.001",
            "pbrMetallicRoughness" : {
                "baseColorFactor" : [
                    0.01219305768609047,
                    0.06595650315284729,
                    0.004047351889312267,
                    1
                ],
                "metallicFactor" : 0
            }
        },
        {
            "doubleSided" : true,
            "extensions" : {
                "KHR_materials_specular" : {
                    "specularColorFactor" : [
                        0,
                        0,
                        0
                    ]
                },
                "KHR_materials_ior" : {
                    "ior" : 1.4500000476837158
                }
            },
            "name" : "Material",
            "pbrMetallicRoughness" : {
                "baseColorFactor" : [
                    0.1245264783501625,
                    0.07189643383026123,
                    0.017395231872797012,
                    1
                ],
                "metallicFactor" : 0
            }
        }
    ],
    "meshes" : [
        {
            "name" : "Sphere.006",
            "primitives" : [
                {
                    "attributes" : {
                        "POSITION" : 0,
                        "NORMAL" : 1,
                        "TEXCOORD_0" : 2
                    },
                    "indices" : 3,
                    "material" : 0
                },
                {
                    "attributes" : {
                        "POSITION" : 4,
                        "NORMAL" : 5,
                        "TEXCOORD_0" : 6
                    },
                    "indices" : 7,
                    "material" : 1
                }
            ]
        }
    ],
    "accessors" : [
        {
            "bufferView" : 0,
            "componentType" : 5126,
            "count" : 63488,
            "max" : [
                4.108506202697754,
                2.897850513458252,
                0.9176002740859985
            ],
            "min" : [
                -2.601693868637085,
                -2.928269386291504,
                -4.622027397155762
            ],
            "type" : "VEC3"
        },
        {
            "bufferView" : 1,
            "componentType" : 5126,
            "count" : 63488,
            "type" : "VEC3"
        },
        {
            "bufferView" : 2,
            "componentType" : 5126,
            "count" : 63488,
            "type" : "VEC2"
        },
        {
            "bufferView" : 3,
            "componentType" : 5123,
            "count" : 95232,
            "type" : "SCALAR"
        },
        {
            "bufferView" : 4,
            "componentType" : 5126,
            "count" : 609,
            "max" : [
                2.7570855617523193,
                2.587292432785034,
                -0.05527542904019356
            ],
            "min" : [
                -1.9240647554397583,
                -8.1536283493042,
                -3.0830116271972656
            ],
            "type" : "VEC3"
        },
        {
            "bufferView" : 5,
            "componentType" : 5126,
            "count" : 609,
            "type" : "VEC3"
        },
        {
            "bufferView" : 6,
            "componentType" : 5126,
            "count" : 609,
            "type" : "VEC2"
        },
        {
            "bufferView" : 7,
            "componentType" : 5123,
            "count" : 3156,
            "type" : "SCALAR"
        }
    ],
    "bufferViews" : [
        {
            "buffer" : 0,
            "byteLength" : 761856,
            "byteOffset" : 0,
            "target" : 34962
        },
        {
            "buffer" : 0,
            "byteLength" : 761856,
            "byteOffset" : 761856,
            "target" : 34962
        },
        {
            "buffer" : 0,
            "byteLength" : 507904,
            "byteOffset" : 1523712,
            "target" : 34962
        },
        {
            "buffer" : 0,
            "byteLength" : 190464,
            "byteOffset" : 2031616,
            "target" : 34963
        },
        {
            "buffer" : 0,
            "byteLength" : 7308,
            "byteOffset" : 2222080,
            "target" : 34962
        },
        {
            "buffer" : 0,
            "byteLength" : 7308,
            "byteOffset" : 2229388,
            "target" : 34962
        },
        {
            "buffer" : 0,
            "byteLength" : 4872,
            "byteOffset" : 2236696,
            "target" : 34962
        },
        {
            "buffer" : 0,
            "byteLength" : 6312,
            "byteOffset" : 2241568,
            "target" : 34963
        }
    ],
    "buffers" : [
        {
            "byteLength" : 2247880,
            "uri" : "tree3.bin"
        }
    ]
}
