{
    "asset" : {
        "generator" : "Khronos glTF Blender I/O v3.3.32",
        "version" : "2.0"
    },
    "extensionsUsed" : [
        "KHR_materials_specular",
        "KHR_materials_ior"
    ],
    "scene" : 0,
    "scenes" : [
        {
            "name" : "Scene",
            "nodes" : [
                0
            ]
        }
    ],
    "nodes" : [
        {
            "mesh" : 0,
            "name" : "Cube"
        }
    ],
    "materials" : [
        {
            "doubleSided" : true,
            "extensions" : {
                "KHR_materials_specular" : {
                    "specularColorFactor" : [
                        0,
                        0,
                        0
                    ]
                },
                "KHR_materials_ior" : {
                    "ior" : 1.4500000476837158
                }
            },
            "name" : "Material.002",
            "pbrMetallicRoughness" : {
                "baseColorFactor" : [
                    0.23419441282749176,
                    0.1916068196296692,
                    0.16317562758922577,
                    1
                ],
                "metallicFactor" : 0
            }
        },
        {
            "doubleSided" : true,
            "extensions" : {
                "KHR_materials_specular" : {
                    "specularColorFactor" : [
                        0,
                        0,
                        0
                    ]
                },
                "KHR_materials_ior" : {
                    "ior" : 1.4500000476837158
                }
            },
            "name" : "Material",
            "pbrMetallicRoughness" : {
                "baseColorFactor" : [
                    0.080961674451828,
                    0.025606965646147728,
                    0.008527874015271664,
                    1
                ],
                "metallicFactor" : 0
            }
        },
        {
            "doubleSided" : true,
            "extensions" : {
                "KHR_materials_specular" : {
                    "specularColorFactor" : [
                        0,
                        0,
                        0
                    ]
                },
                "KHR_materials_ior" : {
                    "ior" : 1.4500000476837158
                }
            },
            "name" : "Material.003",
            "pbrMetallicRoughness" : {
                "baseColorFactor" : [
                    0.12865425646305084,
                    0.11852872371673584,
                    0.09843335300683975,
                    1
                ],
                "metallicFactor" : 0
            }
        },
        {
            "doubleSided" : true,
            "extensions" : {
                "KHR_materials_specular" : {
                    "specularColorFactor" : [
                        0,
                        0,
                        0
                    ]
                },
                "KHR_materials_ior" : {
                    "ior" : 1.4500000476837158
                }
            },
            "name" : "Material.004",
            "pbrMetallicRoughness" : {
                "baseColorFactor" : [
                    0.014787135645747185,
                    0.014787135645747185,
                    0.014787135645747185,
                    1
                ],
                "metallicFactor" : 0
            }
        }
    ],
    "meshes" : [
        {
            "name" : "Cube.002",
            "primitives" : [
                {
                    "attributes" : {
                        "POSITION" : 0,
                        "NORMAL" : 1,
                        "TEXCOORD_0" : 2
                    },
                    "indices" : 3,
                    "material" : 0
                },
                {
                    "attributes" : {
                        "POSITION" : 4,
                        "NORMAL" : 5,
                        "TEXCOORD_0" : 6
                    },
                    "indices" : 7,
                    "material" : 1
                },
                {
                    "attributes" : {
                        "POSITION" : 8,
                        "NORMAL" : 9,
                        "TEXCOORD_0" : 10
                    },
                    "indices" : 11,
                    "material" : 2
                },
                {
                    "attributes" : {
                        "POSITION" : 12,
                        "NORMAL" : 13,
                        "TEXCOORD_0" : 14
                    },
                    "indices" : 15,
                    "material" : 3
                }
            ]
        }
    ],
    "accessors" : [
        {
            "bufferView" : 0,
            "componentType" : 5126,
            "count" : 5240,
            "max" : [
                21.072612762451172,
                7.476709842681885,
                9.593091011047363
            ],
            "min" : [
                13.245880126953125,
                -5.8326616287231445,
                -5.929860591888428
            ],
            "type" : "VEC3"
        },
        {
            "bufferView" : 1,
            "componentType" : 5126,
            "count" : 5240,
            "type" : "VEC3"
        },
        {
            "bufferView" : 2,
            "componentType" : 5126,
            "count" : 5240,
            "type" : "VEC2"
        },
        {
            "bufferView" : 3,
            "componentType" : 5123,
            "count" : 7860,
            "type" : "SCALAR"
        },
        {
            "bufferView" : 4,
            "componentType" : 5126,
            "count" : 6848,
            "max" : [
                19.549884796142578,
                7.1720380783081055,
                11.223962783813477
            ],
            "min" : [
                14.812384605407715,
                -8.813913345336914,
                0.018270481377840042
            ],
            "type" : "VEC3"
        },
        {
            "bufferView" : 5,
            "componentType" : 5126,
            "count" : 6848,
            "type" : "VEC3"
        },
        {
            "bufferView" : 6,
            "componentType" : 5126,
            "count" : 6848,
            "type" : "VEC2"
        },
        {
            "bufferView" : 7,
            "componentType" : 5123,
            "count" : 10272,
            "type" : "SCALAR"
        },
        {
            "bufferView" : 8,
            "componentType" : 5126,
            "count" : 952,
            "max" : [
                21.366464614868164,
                0.014296397566795349,
                3.6920876502990723
            ],
            "min" : [
                13.036303520202637,
                -3.7445151805877686,
                -3.297309398651123
            ],
            "type" : "VEC3"
        },
        {
            "bufferView" : 9,
            "componentType" : 5126,
            "count" : 952,
            "type" : "VEC3"
        },
        {
            "bufferView" : 10,
            "componentType" : 5126,
            "count" : 952,
            "type" : "VEC2"
        },
        {
            "bufferView" : 11,
            "componentType" : 5123,
            "count" : 1428,
            "type" : "SCALAR"
        },
        {
            "bufferView" : 12,
            "componentType" : 5126,
            "count" : 31712,
            "max" : [
                17.91624641418457,
                7.501161575317383,
                8.911495208740234
            ],
            "min" : [
                16.42845916748047,
                7.186129570007324,
                8.596786499023438
            ],
            "type" : "VEC3"
        },
        {
            "bufferView" : 13,
            "componentType" : 5126,
            "count" : 31712,
            "type" : "VEC3"
        },
        {
            "bufferView" : 14,
            "componentType" : 5126,
            "count" : 31712,
            "type" : "VEC2"
        },
        {
            "bufferView" : 15,
            "componentType" : 5123,
            "count" : 47568,
            "type" : "SCALAR"
        }
    ],
    "bufferViews" : [
        {
            "buffer" : 0,
            "byteLength" : 62880,
            "byteOffset" : 0,
            "target" : 34962
        },
        {
            "buffer" : 0,
            "byteLength" : 62880,
            "byteOffset" : 62880,
            "target" : 34962
        },
        {
            "buffer" : 0,
            "byteLength" : 41920,
            "byteOffset" : 125760,
            "target" : 34962
        },
        {
            "buffer" : 0,
            "byteLength" : 15720,
            "byteOffset" : 167680,
            "target" : 34963
        },
        {
            "buffer" : 0,
            "byteLength" : 82176,
            "byteOffset" : 183400,
            "target" : 34962
        },
        {
            "buffer" : 0,
            "byteLength" : 82176,
            "byteOffset" : 265576,
            "target" : 34962
        },
        {
            "buffer" : 0,
            "byteLength" : 54784,
            "byteOffset" : 347752,
            "target" : 34962
        },
        {
            "buffer" : 0,
            "byteLength" : 20544,
            "byteOffset" : 402536,
            "target" : 34963
        },
        {
            "buffer" : 0,
            "byteLength" : 11424,
            "byteOffset" : 423080,
            "target" : 34962
        },
        {
            "buffer" : 0,
            "byteLength" : 11424,
            "byteOffset" : 434504,
            "target" : 34962
        },
        {
            "buffer" : 0,
            "byteLength" : 7616,
            "byteOffset" : 445928,
            "target" : 34962
        },
        {
            "buffer" : 0,
            "byteLength" : 2856,
            "byteOffset" : 453544,
            "target" : 34963
        },
        {
            "buffer" : 0,
            "byteLength" : 380544,
            "byteOffset" : 456400,
            "target" : 34962
        },
        {
            "buffer" : 0,
            "byteLength" : 380544,
            "byteOffset" : 836944,
            "target" : 34962
        },
        {
            "buffer" : 0,
            "byteLength" : 253696,
            "byteOffset" : 1217488,
            "target" : 34962
        },
        {
            "buffer" : 0,
            "byteLength" : 95136,
            "byteOffset" : 1471184,
            "target" : 34963
        }
    ],
    "buffers" : [
        {
            "byteLength" : 1566320,
            "uri" : "goose3.bin"
        }
    ]
}
