<svg width="74" height="143" viewBox="0 0 74 143" fill="none" xmlns="http://www.w3.org/2000/svg">
<g clip-path="url(#clip0_62_98)">
<path d="M57.831 48.3535L57.5794 49.4773V50.385L56.943 51.9339L57.1946 53.6196L56.6914 54.7867L57.35 55.5359L56.8172 56.8614L55.9292 57.5098L56.1808 58.0285L57.1946 58.5472L57.4536 59.4549L57.0688 60.4923H55.8034L55.167 60.7588L55.8034 61.5368L56.6914 62.5742L56.8172 63.6188L55.5444 64.3969L54.2716 64.6562L53.8942 66.0898V68.179L54.4048 69.7494L55.2928 72.098V74.0647L54.4048 74.324L54.2716 75.9017L52.4956 76.4276L52.8804 78.3943H51.985L51.6076 80.7572L49.9574 80.6275L49.1952 79.972L48.433 80.4979L47.0048 80.7716L47.101 80.5195L47.1306 80.2601V80.1953L47.0862 80.008L47.064 79.8927L47.0492 79.2516L47.0566 79.1291L47.0936 79.0571L47.212 78.8986L47.249 78.8049L47.2638 78.7257V78.6536L47.2342 78.4519V78.207L47.2786 78.0485L47.4192 77.818L47.4858 77.6667L47.5154 77.5514L47.5302 77.4217L47.545 77.3569L47.5746 77.2993L47.7078 77.148L47.8854 76.8814L47.952 76.7229L47.9816 76.5645L48.0482 75.8801L48.0556 75.7432L48.026 75.5415V75.1741L47.9668 75.0156L47.9446 74.8283L47.9594 74.5257V74.4393L47.9372 74.3888L47.6116 73.7549L47.5894 73.6684L47.5672 73.5316L47.5894 73.3731L47.7596 73.0417L47.804 72.9048L47.8188 72.7967L47.8262 72.6671L47.8558 72.5374L47.9076 72.4582L47.9964 72.2853L48.0112 72.1772L48.0408 71.6801L48.0334 71.4424L48.063 71.0894L48.0556 71.0246L47.9816 70.7364L47.9446 70.4843L47.9224 69.6846L48.0482 68.9858L48.3886 68.0421L48.433 67.8548L48.4404 67.7251L48.4256 67.5882L48.5144 66.7165L48.4996 66.3491L48.5292 66.1979L48.6032 66.0826L48.766 65.9457L48.8622 65.8016L48.8696 65.6576L48.8326 65.5567L48.7512 65.4198L48.729 65.3478L48.7216 65.2469V64.9588L48.7068 64.8795L48.5514 64.613L48.5218 64.5481L48.507 64.4545L48.5292 63.8133L48.4848 63.5756L48.4774 63.3739L48.5144 63.1578L48.5514 63.0641L48.544 62.9488L48.4848 62.848L48.4478 62.7471L48.396 62.5166L48.359 62.4013L48.285 62.2645L48.2702 62.2068L48.2332 61.753L48.1888 61.6521L48.1074 61.5873L47.952 61.5224L47.8188 61.436L47.6782 61.3495L47.6338 61.3207L47.582 61.2127L47.545 60.9893L47.878 60.5355L48.1444 60.0456L48.174 59.9304L48.1444 59.8079L48.137 59.7286L48.1444 59.6062L48.1962 59.4909L48.3146 59.3828L48.3812 59.2892L48.4108 59.2172L48.4182 59.1523L48.4108 58.9866L48.433 58.8497L48.4552 58.7705L48.4922 58.7201L48.5514 58.6841L48.6476 58.6552H48.8326L48.9066 58.6336L49.025 58.5256L49.0768 58.4535L49.1064 58.3743L49.1508 58.0573L49.173 57.6827L49.21 57.5242L49.2544 57.4738L49.3654 57.4378L49.4172 57.3297V57.092L49.4394 56.9551L49.4764 56.8903L49.5208 56.8398L49.6318 56.7678L49.691 56.7029L49.7058 56.6453L49.6984 56.5156L49.7206 56.4148L49.728 56.3427L49.7206 56.2851L49.6762 56.2635L49.4838 56.2419L49.4394 56.2059L49.4024 56.1482L49.3876 56.0474L49.395 55.9825L49.4246 55.9321L49.5578 55.8241L49.617 55.7592L49.6466 55.6728L49.7502 55.2405L49.8094 55.0964L49.9056 55.0028L49.9796 54.9163L50.1054 54.7218L50.1572 54.621L50.1868 54.5345L50.135 54.3544L50.1276 54.2464L50.1424 54.1887L50.1794 54.1383L50.2534 54.0735L50.32 53.9942L50.5346 53.598L50.5864 53.4611L50.6012 53.3603L50.5346 53.1874L50.5198 53.1081L50.505 52.9713L50.4384 52.7551L50.431 52.6615L50.4458 52.4886L50.431 52.4021L50.394 52.3445L50.3422 52.3229L50.2164 52.3013L50.0832 52.3085L49.9574 52.2869L49.9056 52.2653L49.728 52.15L49.5874 52.0059L49.358 51.6889L49.3506 51.6385L49.3432 51.3792L49.3136 51.2855L49.2248 51.1702V51.1198L49.3358 50.7812V50.6948L49.321 50.6299L49.2766 50.6011L49.1286 50.5291L49.0398 50.4715L48.9658 50.3274L48.8992 50.2481L48.8178 50.1905L48.7364 50.0896L48.7068 49.9095L48.692 49.8447L48.6254 49.7655L48.5514 49.7078L48.47 49.6286L48.4182 49.4773L48.3886 49.4269L48.2554 49.2684L48.1074 49.1315L48.0482 49.0451L48.0038 48.9226L47.9742 48.8145L47.9816 48.7425L48.0112 48.6705L48.0556 48.5768L48.063 48.5048L48.0556 48.1301L48.0112 47.878L47.9816 47.7627L47.9372 47.6619L47.7892 47.3881L47.7744 47.3305L47.6856 46.8622V46.6605L47.7152 46.4156L47.73 46.3508L47.7966 46.1923L47.8188 46.1274L47.9002 45.5079V45.4142L47.8854 45.2846L47.8114 44.9316L47.8262 44.7659L47.8928 44.6218L47.952 44.5353L48.026 44.4633L48.1518 44.3769L48.2332 44.2976L48.2628 44.2256L48.2702 44.1535V44.0311L48.2924 43.9734L48.3368 43.9518L48.47 44.0166L48.5514 44.0239L48.6772 43.9518L48.7364 43.9446L48.8474 43.9518L48.9436 43.995L49.062 44.0239H49.3062L49.4468 44.0959L49.5578 44.1319L49.8094 44.1463L49.9278 44.1247L50.0832 44.0671L50.2608 44.0311L50.32 44.0094L50.4606 43.9374L50.5124 43.9158L51.0008 43.8293L51.1784 43.8582H51.3042L51.4152 43.8365L51.467 43.8438L51.5632 43.8942L51.6742 43.995L51.8296 44.1967L51.874 44.2256L52.0072 44.312L52.0812 44.3841L52.1774 44.4273L52.3624 44.4633L52.4512 44.5209L52.466 44.5786L52.4808 44.7731L52.5326 44.8595H52.577L52.6732 44.8307H52.8656L53.1024 44.7875L53.206 44.8091L53.2874 44.8667L53.3984 44.9676L53.6796 45.335L53.8572 45.443L53.9608 45.4935L54.1828 45.5583L54.3826 45.6592L54.5528 45.7744L54.6194 45.8465L54.649 45.8897L54.6786 46.005L54.7082 46.0482L54.8414 46.1346L54.8932 46.2067L54.9154 46.358L55.019 46.5453L55.0338 46.6029L55.056 46.855L55.0412 46.9631L55.0708 47.0712L55.13 47.1576L55.241 47.2585L55.278 47.3593L55.2632 47.4746L55.2188 47.5826L55.056 47.8492L55.0116 47.95L54.982 48.0653L54.9746 48.2598L54.9968 48.3823L55.0338 48.4903L55.1226 48.6777L55.4482 49.1531L55.537 49.218L55.5888 49.2324L55.7072 49.218L55.8404 49.1387L55.9218 49.0739L56.1142 48.901L56.9726 48.3175L57.0836 48.2742H57.2612L57.4388 48.2454L57.498 48.2526L57.7052 48.3319L57.831 48.3535Z" fill="#03B857" stroke="#03B857" stroke-width="2" stroke-linecap="round" stroke-linejoin="round"/>
<path d="M45.6654 83.7037L45.658 84.2368L45.6284 84.4313L45.584 84.5321L45.4804 84.8275L45.3102 85.5047L45.2732 85.7784L45.3176 86.6429L45.3398 86.7365L45.436 86.859L45.4952 87.0175L45.5692 87.0895L45.732 87.1472L45.8282 87.2048L45.9318 87.3201L46.065 87.4065L46.102 87.4425L46.1982 87.5794L46.3092 87.6587L45.3768 88.5376L44.6146 88.7969L44.4888 90.2521L44.363 90.9149L43.6008 91.0446L43.0902 91.5777L42.9644 93.2994L41.699 93.1625L41.3142 92.4998L40.552 92.2404L38.9018 92.9032L38.1396 93.9622H36.8668L35.4682 93.0329L34.4544 91.5777L34.1954 90.7852L33.3074 91.0446L32.5452 90.7852L31.6572 91.1814L30.7692 91.9739L30.007 92.7663L28.6084 93.1625L27.3356 93.8253L25.9888 93.8325L26.0406 93.6668L26.1146 92.7087L26.1442 92.5862V92.4926L26.1294 92.3629L26.0554 92.1108L26.0332 91.9739L26.0258 91.8802L26.0332 91.7505L26.0406 91.5632L26.1072 91.2535L26.122 91.203L26.1812 91.1094L26.2182 90.9941L26.2404 90.7924L26.27 90.6771L26.307 90.6339L26.3588 90.6123L26.5586 90.5907L26.6178 90.5691L26.6844 90.497L26.6992 90.3674L26.6622 89.8703L26.3958 88.7465V88.6528L26.455 88.4871L26.4772 88.3647L26.492 88.1702L26.5216 88.0909L26.6178 87.9252L26.6474 87.8099V87.6082L26.566 87.1904V87.0679L26.603 86.9527L26.6548 86.787V86.7005L26.6474 86.5997L26.4698 85.8793L26.455 85.7928V85.5911L26.3218 85.0436L26.233 84.8491L26.196 84.7338L26.1738 84.6546V84.4961L26.1664 84.388L26.1368 84.3088L26.0776 84.1935L26.0628 84.1215L26.085 83.9342L26.0776 83.7397L26.0998 83.61L26.1664 83.5308L26.2922 83.4371L26.3218 83.3867L26.3292 83.329L26.307 83.1778L26.3218 83.1129L26.3588 82.9977L26.3736 82.9184L26.3662 82.8608L26.2922 82.7887L26.1442 82.7095L26.011 82.6014L25.9592 82.5366L25.9 82.4357L25.8852 82.3565L25.8926 82.2917L25.9666 82.1476L26.0036 82.0395L26.0332 81.773L26.048 81.6793L26.2774 81.9098L26.5364 82.0539L26.6918 82.0611L26.7806 82.0467L26.8398 82.0179L26.9434 81.9459L27.0174 81.9387L27.084 81.9675L27.3208 82.0107L27.8166 82.234L28.4752 82.27L28.5418 82.3133L28.675 82.4357L28.749 82.4862H28.823L29.008 82.4501L29.0968 82.4862L29.2078 82.6375L29.2596 83.0049L29.341 83.1706L29.5112 83.2714L29.6814 83.293L29.8146 83.3507L29.8664 83.5668L29.896 83.7973L29.97 83.7829L30.2142 83.4947L30.4584 83.3218L30.5546 83.2282L30.636 83.0553L30.7618 83.1706L31.0652 83.3218L31.1762 83.4155L31.2502 83.5668L31.265 83.7325L31.2058 83.8766L31.0504 83.927L31.1318 84.0567L31.228 84.3088L31.3242 84.4313L31.08 84.5681L31.043 84.7338L31.1466 84.9139L31.3242 85.0796L31.7312 85.3534L31.968 85.4686L32.1604 85.5119L32.2936 85.483L32.5378 85.339L32.6562 85.2957L32.782 85.3029L32.8708 85.339L32.9596 85.3894L33.1668 85.4686L33.3592 85.5047L33.485 85.5119L33.5738 85.5407L33.6848 85.692L33.7588 85.764L33.9956 85.7712L34.188 85.6127L34.3582 85.4326L34.521 85.3966L35.2018 85.7352L35.4238 85.8L35.668 85.7784L35.8382 85.6776L35.9788 85.6343L36.1564 85.764L36.3488 85.8577L36.5486 85.7856L36.7188 85.6776L36.815 85.6559L37.0666 85.6415L37.1258 85.6127L37.2072 85.5479L37.2738 85.4614L37.5032 85.2525L37.814 84.9067L37.9102 84.7771L37.9398 84.7338L38.073 84.6402L38.1396 84.6114L38.2358 84.597L38.3468 84.633L38.4578 84.705L38.6502 84.7915L38.7316 84.8059L38.8056 84.7915L39.109 84.6618L39.5752 84.6402L39.6566 84.6258L39.8564 84.5321L40.0266 84.4961H40.2116L40.3004 84.4817L40.3596 84.4385L40.367 84.3808L40.4188 84.0711L40.4262 83.8766L40.441 83.8189L40.5002 83.7253L40.6112 83.6172L40.7444 83.5308L40.8406 83.4587L40.9072 83.4371L40.9664 83.4443L41.0108 83.4731L41.1144 83.6316L41.1884 83.6892L41.2624 83.7109L41.3142 83.6892L41.3512 83.6532L41.4992 83.4659L41.5658 83.4227L41.7582 83.3651L41.8766 83.3435H41.9506L42.0616 83.3867L42.1874 83.4875L42.2392 83.5091L42.8682 83.6748L42.9718 83.682L43.0458 83.6676L43.1124 83.5884L43.1642 83.4803L43.216 83.4371L43.3122 83.4011H43.3788L43.438 83.4227L43.512 83.4947L43.5638 83.6028L43.6082 83.6604L43.6674 83.6748L43.7192 83.6676L44.2298 83.3723L44.3334 83.329L44.6516 83.2786L44.7478 83.2282L44.8884 83.0769L44.9328 83.0337L44.9994 83.0049L45.103 82.9832L45.1622 82.9977L45.1992 83.0337L45.214 83.0841L45.2066 83.1345L45.103 83.2498L45.0734 83.3435L45.1178 83.4299L45.2362 83.4803L45.473 83.5236L45.5766 83.574L45.6358 83.6388L45.6654 83.7037Z" fill="#03B857" stroke="#03B857" stroke-width="2" stroke-linecap="round" stroke-linejoin="round"/>
<path d="M47.545 60.9894L47.582 61.2127L47.6338 61.3208L47.6782 61.3496L47.8188 61.436L47.952 61.5225L48.1074 61.5873L48.1888 61.6521L48.2332 61.753L48.2702 62.2069L48.285 62.2645L48.359 62.4014L48.396 62.5166L48.4478 62.7472L48.4848 62.848L48.544 62.9489L48.5514 63.0641L48.5144 63.1578L48.4774 63.3739L48.4848 63.5756L48.5292 63.8134L48.507 64.4545L48.5218 64.5482L48.5514 64.613L48.7068 64.8795L48.7216 64.9588V65.247L48.729 65.3478L48.7512 65.4199L48.8326 65.5567L48.8696 65.6576L48.8622 65.8017L48.766 65.9457L48.6032 66.0826L48.5292 66.1979L48.4996 66.3492L48.5144 66.7166L48.4256 67.5883L48.4404 67.7251L48.433 67.8548L48.3886 68.0421L48.0482 68.9858L47.9224 69.6846L47.9446 70.4843L47.9816 70.7364L48.0556 71.0246L48.063 71.0894L48.0334 71.4424L48.0408 71.6802L48.0112 72.1772L47.9964 72.2853L47.9076 72.4582L47.8558 72.5374L47.8262 72.6671L47.8188 72.7968L47.804 72.9048L47.7596 73.0417L47.5894 73.3731L47.5672 73.5316L47.5894 73.6685L47.6116 73.7549L47.9372 74.3889L47.9594 74.4393V74.5257L47.9446 74.8283L47.9668 75.0156L48.026 75.1741V75.5415L48.0556 75.7432L48.0482 75.8801L47.9816 76.5645L47.952 76.723L47.8854 76.8815L47.7078 77.148L47.5746 77.2993L47.545 77.3569L47.5302 77.4218L47.5154 77.5514L47.4858 77.6667L47.4192 77.818L47.2786 78.0485L47.2342 78.207V78.4519L47.2638 78.6537L45.8874 77.6019L44.1114 76.8166V75.5055L44.363 74.0647H43.2234L42.7128 72.3645L41.625 70.5707L41.4918 70.2682L41.2032 70.1601L40.8924 69.9512L40.182 69.8071L39.7084 69.6918L39.516 69.4253L39.1016 69.2092L38.7834 68.7481L38.6502 68.2582L38.3098 67.9629L38.1322 67.6459L37.814 66.1979L36.7928 65.2253L35.446 63.4171L34.5654 61.1335L34.2324 59.3757L34.9058 59.3252L35.5126 59.174L35.668 59.1523L35.8826 59.1668L36.26 59.2316L36.6744 59.2532L36.815 59.2316L36.9704 59.1451L37.0962 59.1523L37.1998 59.1379L37.2812 59.1451L37.3478 59.2388L37.4514 59.563L37.4736 59.6782V59.7935L37.4292 60.0096L37.4736 60.0961L37.592 60.1465L38.1248 60.1537L38.406 60.1897L38.6206 60.2546L38.7242 60.341L38.85 60.4851L38.9388 60.4563L38.998 60.377L39.109 60.1897L39.1682 60.1033L39.331 59.9736L39.4198 59.916L39.5308 59.88L39.9156 59.8295L40.0192 59.7935L40.3596 59.5414L40.478 59.4837L40.626 59.4405L40.885 59.4189H41.1218L41.3882 59.4621L41.8248 59.6062L42.0172 59.6999L42.1134 59.7791L42.1208 59.952L42.1356 60.0601L42.2096 60.2618L42.2688 60.3482L42.3502 60.413L42.6462 60.5571L42.735 60.622L42.8016 60.7012L42.846 60.7949L42.9348 60.8957L43.0976 60.9678L43.3788 61.047L43.8154 61.1046L44.1558 61.0542L44.2964 61.1046L44.363 61.1911L44.4814 61.3928L44.5776 61.4792L44.8292 61.5009L45.2214 61.4865L46.6792 61.2199L46.9752 61.1118L47.545 60.9894Z" fill="#03B857" stroke="#03B857" stroke-width="2" stroke-linecap="round" stroke-linejoin="round"/>
<path d="M67.2364 52.4093L67.0514 52.6398L66.9626 52.3589L67.0144 52.0923L67.2586 51.5808L67.303 51.4367L67.3252 51.2999L67.3326 51.0117L67.3696 50.8388L67.451 50.7019L67.6804 50.4426L68.3686 49.3908L68.4056 49.2467L68.4204 49.081L68.4574 48.9225L68.5388 48.7857L68.6646 48.692L69.0568 48.4687L69.0198 48.7208L68.6498 49.4628L68.3834 50.2625L67.8876 51.3287L67.525 51.8041L67.2364 52.4093ZM64.6168 30.5162L65.2236 31.0421L65.4234 31.2727L65.5122 31.4239L65.7416 31.7337L65.86 31.8562L65.9562 31.9066L66.008 31.8922L66.8368 31.568L66.8886 31.5392L66.9922 31.532L67.1476 31.5464L67.6434 31.6401L67.7544 31.6473L67.8136 31.6257L67.9616 31.5464L68.0208 31.5176L68.117 31.5032L68.228 31.5464L68.339 31.6473L68.5314 32.0291L69.2048 32.8864L69.2344 32.944V33.0016L69.1826 33.0881L69.1012 33.1457L68.8422 33.2538L68.7756 33.2898L68.709 33.3546L68.6424 33.4267L68.6572 33.5131L68.7238 33.6284L68.931 33.8733L69.0124 33.9958L69.0642 34.0966L69.0346 34.2047L68.9236 34.3776L68.9014 34.428L68.857 34.6658L68.8496 34.7954L68.857 34.9179L68.9088 35.0188L69.2714 35.5591L69.3232 35.6599V35.7248L69.301 35.84L69.1086 36.2939L69.0864 36.4163L69.1012 36.6757L69.0938 36.7405L68.9902 37.1367L69.005 37.2808L69.1678 37.6698L69.301 38.0805L69.338 38.3974L69.375 38.5631L69.4268 38.7072L69.486 38.8081L69.5748 38.9377L69.6118 39.0242L69.634 39.1034L69.6562 39.2907L70.0558 40.4866L70.1224 40.537L69.9004 40.5731L69.3972 40.1408L69.2122 39.9247L69.1308 39.6149L69.0864 39.089L69.0642 39.017L68.9458 38.9666L68.7978 38.8585L68.6646 38.7216L68.5832 38.6064L68.5092 38.4695L68.4574 38.311L68.4278 38.1381L68.4352 37.9724L68.4944 37.8067L68.5536 37.6698L68.5684 37.533L68.4722 37.3745L68.4056 37.3168L68.3464 37.288L68.191 37.2736L68.1466 37.2376L67.858 36.8702L67.8284 36.7333L67.8876 36.4163L67.895 36.2362L67.8136 35.7175L67.8284 35.6599L67.8654 35.5951L67.8728 35.5302L67.8136 35.4366L67.7618 35.4222L67.5768 35.4006L67.3104 35.5374L66.9404 35.5807H66.2818L65.9488 35.6887L65.7268 35.8904L65.1496 36.6901L65.157 36.9566L65.379 37.5474L65.3864 37.6915L65.379 37.8283L65.268 38.1093H65.2458L65.3124 38.239L65.4308 38.347L65.5418 38.4839L65.6232 38.8297L65.7638 39.1683L65.8378 39.687L65.934 40.0039L66.0894 40.2777L66.1116 40.4002L66.082 40.5731L66.008 40.746L65.6972 41.2791L65.6084 41.5744L65.601 41.9202L65.6676 42.2588L65.8008 42.547L66.0672 42.7991L66.7258 43.0296L67.0144 43.2169L67.2512 43.5483L67.2882 43.8437L67.0736 44.8018L67.0588 45.2053L67.118 45.5655L67.2956 45.7167L67.3992 45.7816L67.4288 45.9401L67.3844 46.3363L67.3474 46.4804L67.3326 46.5596V46.9198L67.2882 47.0495L66.7554 47.9644L66.4594 48.2958L66.008 48.656L66.0228 49.1242L66.0968 49.3476L66.2522 49.5709L66.4668 49.7654L66.6814 49.8735L66.9256 49.9167L67.192 49.8879L66.8886 50.0536L66.563 50.176L65.971 50.2625L65.7194 50.3994L65.2088 50.4426L65.009 50.4858L64.8462 50.6011L64.713 50.7596L64.0396 52.0995L63.566 53.3962L63.048 54.5993L62.9444 55.3413L62.9888 55.4926L63.2996 55.9825L63.492 56.9766L62.0268 57.1207L61.642 57.8988V58.6768L60.3766 59.0658L58.8522 59.1955L57.4536 59.4548L57.1946 58.5471L56.1808 58.0284L55.9292 57.5097L56.8172 56.8614L57.35 55.5358L56.6914 54.7866L57.1946 53.6196L56.943 51.9338L57.5794 50.385V49.4772L57.831 48.3534L58.3268 48.267L58.4008 48.2381L58.4896 48.1949L58.5266 48.1445L58.534 48.0869L58.5118 48.0436L58.4156 47.9284L58.3564 47.8347L58.349 47.7051L58.386 47.6042L58.497 47.4745L58.5932 47.4025L58.6746 47.316L58.719 47.244L58.8226 46.9919L58.9484 46.7829L59.0002 46.6677L59.0298 46.5668L59.0224 46.4299L59.0298 46.3435L59.0668 46.2138L59.1186 46.1634L59.1852 46.1346L59.2444 46.1274L59.3628 46.1058L59.7624 45.904L59.9622 45.7528L60.1176 45.5222L60.162 45.3998L60.1768 45.2845L60.2212 45.1692L60.828 44.0886L60.8724 43.9662L60.8946 43.8725L60.8724 43.7572L60.8058 43.6132L60.7984 43.5627L60.8132 43.4403L60.7984 43.3178L60.7762 43.2746L60.7022 43.2025L60.5912 43.1593L60.4728 43.1377L60.0732 43.1161L59.7624 43.0657L58.8152 42.6334L58.7338 42.5686L58.719 42.5037L58.7338 42.4173L58.8744 42.0931L58.9632 41.7041L59.0668 41.4087L59.1408 41.2574L59.2 41.1782L59.4516 40.9189L59.5922 40.7316L59.7254 40.4722L59.7476 40.3858L59.755 40.3137L59.7476 40.1913L59.6292 39.6005L59.5626 39.3844L59.4738 39.1899L59.4146 39.0962L59.2888 38.9377L59.2518 38.8369L59.2444 38.7072L59.2592 38.5847L59.385 38.1381L59.5626 36.8846L59.5552 36.7621L59.496 36.5964L59.4812 36.5244L59.496 36.3875L59.5626 36.2651L59.7254 36.121L59.8364 35.9841L59.8808 35.8976L59.903 35.8256L59.8734 35.7464H59.8364L59.7402 35.7752L59.6366 35.7608L59.5034 35.6815H59.4516L59.348 35.7031L59.2148 35.7103L59.1038 35.6815L59.015 35.6239L58.9336 35.4942L58.9114 35.379L58.8966 35.2493L58.8818 35.1989L58.83 35.1052L58.8078 35.0404V34.9539L58.8374 34.8098L58.8744 34.745L58.9262 34.7018L59.0372 34.673L59.3036 34.6441L59.4146 34.6153L59.533 34.6009L59.7106 34.6225L59.829 34.5937L60.1176 34.4496L60.3322 34.3848L60.4358 34.3416L60.5246 34.2479L60.5838 34.1687L60.6726 34.075L60.7688 34.0246L60.8724 33.9814L60.9908 33.967L61.124 33.9814H61.198L61.2868 33.9598L61.568 33.7797L61.7308 33.7076L61.8714 33.578L61.975 33.5491H62.0342L62.197 33.5996L62.2636 33.6068L62.3302 33.5924L62.4042 33.5347L62.4856 33.4195L62.5226 33.3186L62.53 33.1889L62.5078 33.0737L62.4264 32.944L62.4042 32.9008L62.3968 32.7639L62.4042 32.6774L62.4338 32.627L62.4782 32.5982L62.5892 32.6054L62.7446 32.663L62.863 32.6919H62.9962L63.0702 32.6774L63.1368 32.6486L63.2256 32.5982L63.2922 32.4757L63.3144 32.2884L63.2996 32.1011L63.2552 31.9859L63.2478 31.8706L63.2626 31.7986L63.3514 31.568L63.3662 31.5104L63.381 31.3879L63.3736 31.2583L63.307 31.0349V30.8836L63.3292 30.7756L63.3662 30.7179L63.418 30.6963L63.5142 30.7324L63.7436 30.8908L63.8176 30.9269L63.936 30.9557H64.0026L64.0692 30.9269L64.1358 30.8692L64.3134 30.6171L64.3948 30.5595L64.5428 30.509L64.6168 30.5162Z" fill="#03B857" stroke="#03B857" stroke-width="2" stroke-linecap="round" stroke-linejoin="round"/>
<path d="M30.6508 138.548L28.6454 139.42L27.3726 140.068L25.9518 140.846L24.938 141.79L24.7456 141.927L24.531 142.013L24.3016 142.027L23.791 142.503L23.088 142.654L20.2094 142.777L20.054 142.813L19.8986 142.885L19.7506 142.928L19.573 142.892L19.4768 142.769L19.3806 142.352L19.2992 142.172L18.9884 141.941L17.908 141.538L17.6046 141.321L17.4714 141.17L17.3456 140.839L17.1754 140.688L16.4206 140.14L15.7398 139.823L15.3402 139.701L15.836 138.022L17.6194 136.516L19.0106 135.155L19.3954 133.52L19.1438 131.61V130.256L19.647 129.031L19.906 126.993L20.4092 125.501L21.0456 124.695L22.9548 124.284L23.3544 125.631L24.5384 125.573L25.937 125.984L26.6992 126.661L26.196 128.289L26.6992 129.507L27.8462 130.458V131.682L27.4614 133.181L27.7204 134.276V135.911L29.748 136.999L30.6508 138.548Z" fill="#03B857" stroke="#03B857" stroke-width="2" stroke-linecap="round" stroke-linejoin="round"/>
<path d="M33.1742 121.806L33.0262 121.964L32.9744 122.058L32.8338 122.375L32.6192 122.757L32.4564 123.189L32.4268 123.297L32.4194 123.383L32.4638 123.491L32.56 123.636L32.9374 123.938L33.1594 124.075L33.2408 124.147L33.3 124.233L33.3962 124.435L33.4554 124.529L33.5368 124.601L33.6256 124.659L33.7366 124.702L34.3064 124.839L35.0686 125.112L35.4386 125.35L35.5052 125.415L35.5422 125.487L35.557 125.53L35.5274 125.725L35.557 125.818L35.668 125.991L35.705 126.099L35.779 126.46L35.8678 126.546L36.0454 126.589L36.6078 126.604L36.8002 126.668L36.9038 126.74L37.0592 126.899L37.3626 127.346L37.407 127.439L37.4144 127.555L37.3922 127.663L37.3108 127.879L37.2664 128.109L37.259 128.297L37.2812 128.412L37.3182 128.513L37.3922 128.599L37.5032 128.65H37.6882L37.8362 128.628L38.1248 128.534L38.3024 128.441L38.3838 128.39L38.4578 128.318L38.5022 128.225L38.5984 128.016L38.6502 127.922L38.7908 127.756L38.8426 127.67L38.8722 127.562L38.8648 127.446L38.8204 127.346L38.665 127.057L38.5762 126.849L38.5466 126.733L38.5244 126.618V126.496L38.554 126.387L38.628 126.308L38.7316 126.279L39.0276 126.38L39.1682 126.402L39.442 126.323L39.5382 126.258L39.5974 126.186L39.6196 126.107V126.02L39.553 125.689V125.415L39.627 125.343L39.775 125.328L40.4928 125.53L40.6408 125.602L40.8998 125.775L42.2022 126.481L42.7128 126.877L42.7276 126.885L42.143 128.455L42.069 128.527L41.9432 128.491L41.7286 128.39L41.6768 128.455L41.8174 129.046L41.551 130.796L40.7 132.907L40.4484 133.303L40.4188 133.462L40.4262 133.8L40.3522 133.973L39.8342 134.362L39.6936 134.701L39.7824 135.4L39.664 135.673L39.5604 135.551L39.4938 135.407L39.4568 135.241V135.076L39.368 135.227L39.3606 135.385L39.3828 135.558L39.3902 135.746L39.3458 135.954L39.2718 136.041L38.9758 136.156L38.7982 136.264L38.517 136.524L38.0286 137.107L37.925 137.165L37.8954 137.114L37.7918 136.869L37.6734 136.855L37.6364 136.898L37.037 137.316L36.815 137.525L36.7114 137.597L36.4154 137.712L36.297 137.784L36.1564 137.979L36.0528 138.065L35.9714 138.058L35.8678 138.022H35.7642L35.6606 138.137L35.5644 138.209L34.8688 138.397L34.7134 138.389L34.373 138.296L33.337 138.152L32.1604 138.188L30.6508 138.548L29.748 136.999L27.7204 135.911V134.276L27.4614 133.181L27.8462 131.682V130.458L26.6992 129.507L26.196 128.289L26.6992 126.661L25.937 125.984L24.5384 125.573L23.3544 125.631L22.9548 124.284L23.458 122.396L22.829 121.042L20.9198 121.179L20.8902 119.875L22.1186 117.916L21.7338 116.006L21.793 115.884L21.9484 115.668L21.941 114.767L22.1482 113.471L22.311 113.262L24.3016 112.145L26.233 111.374L26.7288 111.273L26.8694 111.259L27.5206 111.324L27.9572 111.309L28.194 111.374L28.9488 111.828L29.1782 112.044L29.341 112.001L29.5704 112.181L30.2956 112.635L30.3548 112.707L30.5472 112.988L31.1244 114.249L31.1614 114.35L31.2576 114.53L31.2798 114.587L31.302 114.71L31.3316 114.789L31.524 115.077L31.5684 115.2L31.6498 115.38L31.7608 115.545L31.9384 115.884L31.9606 115.949L31.9976 116.093L32.042 116.151L32.1012 116.201L32.819 116.583L32.9152 116.648L32.9892 116.741L33.0336 116.9L33.0928 117.411L33.0854 117.498L33.0558 117.599L32.9522 117.786L32.9226 117.894V118.009L32.9522 118.117L32.9966 118.218L33.0484 118.441L33.0558 118.55L33.0262 118.65L32.9744 118.744L32.9448 118.845L32.893 119.047L32.8338 119.133L32.7524 119.198L32.5674 119.313L32.5008 119.378L32.4712 119.472L32.4934 119.58L32.5452 119.717L32.5822 119.947L32.634 120.055L32.8264 120.336L32.967 120.495L33.0484 120.617L33.1964 121.013L33.2926 121.193L33.3222 121.33L33.337 121.446L33.3148 121.618L33.2926 121.676L33.2408 121.741L33.1742 121.806Z" fill="#03B857" stroke="#03B857" stroke-width="2" stroke-linecap="round" stroke-linejoin="round"/>
<path d="M25.9888 93.8324L25.8556 94.0702L25.789 94.1638L25.6706 94.2647L25.641 94.3079L25.6188 94.4232L25.8112 95.4966L25.826 95.6263L25.7964 95.8856L25.7742 95.9432L25.7224 96.0441L25.6854 96.0801L25.5744 96.1161L25.382 96.1377L25.2266 96.2098L25.1156 96.2314L24.975 96.3178L24.8788 96.3611L24.8344 96.3899L24.7752 96.4835L24.605 96.534L24.568 96.57L24.5088 96.6564L24.4644 96.7717L24.3978 96.8437L24.2794 96.8725L24.235 96.9014L24.1684 96.9806L24.1536 97.0382L24.1684 97.2327L24.1462 97.3552L24.0944 97.4561L23.717 97.8883L23.68 98.0036L23.6948 98.0612L23.754 98.3494L23.7614 98.4862L23.754 98.5511L23.6948 98.7888L23.7022 98.9041L23.8724 99.6029V99.6677L23.865 99.7902L23.7984 99.8766L23.5986 99.9703L23.5764 100.006L23.569 100.086L23.5912 100.194L23.606 100.309L23.5764 100.41L23.532 100.446L23.4432 100.496L23.3248 100.532L23.199 100.554H22.8512L22.7328 100.59L22.644 100.647L22.5774 100.727L22.5404 100.835L22.3036 102.182L22.2444 102.268L22.1408 102.319L22.0224 102.348L21.9188 102.391L21.8596 102.477L21.8078 102.65L21.7856 102.708L21.6968 102.765L21.2824 102.859H20.8532L20.7274 102.881L20.6238 102.917L20.5054 103.018L20.4536 103.111L20.4906 103.219L20.572 103.371L20.794 103.673L20.942 103.918L20.9938 104.077L21.0604 104.228L21.1492 104.703L21.1418 104.826L21.0974 104.927L21.0752 105.049L21.0974 105.136L21.1492 105.236L21.2676 105.431L21.312 105.539L21.3194 105.633L21.2824 105.741L21.2454 105.777L21.09 105.914L21.0678 105.978L21.0826 106.065L21.1344 106.209L21.1492 106.389L21.1196 106.504L21.09 106.548L21.0456 106.576L20.8532 106.598L20.8088 106.627L20.7866 106.677L20.7348 106.857L20.6756 107.016L20.6534 107.145V107.29L20.6682 107.448L20.7274 107.621L20.7422 107.693L20.7274 107.743L20.6534 107.815L20.4906 107.873L20.4166 107.945L20.3278 108.161L20.3204 108.219L20.3426 108.392L20.3278 108.442L20.2538 108.514L20.0984 108.586L19.869 108.651L19.7654 108.694L19.684 108.774L19.6396 108.954L19.61 109.004L19.4842 109.177L19.0476 109.948L18.9736 110.178L18.9514 110.315L18.9292 110.596L18.8996 110.719L18.8478 110.82L18.5592 111.209L18.5148 111.309L18.5074 111.374L18.5148 111.511L18.6036 111.763L18.6258 111.886L18.611 112.015L18.5444 112.167L18.5222 112.253L18.5074 112.404L18.4852 112.505L18.3964 112.649L18.352 112.757L18.2484 113.182L18.1596 113.399V113.535L18.1892 113.694L18.1966 113.838L18.2262 113.975L18.2928 114.105L18.3594 114.263L18.3816 114.465L18.426 114.609L18.4852 114.703L18.5962 114.818L18.6998 114.94L18.9958 115.243L19.055 115.279L19.1364 115.315L19.2918 115.336L19.388 115.344L19.7876 115.293H19.8542L20.0466 115.322H20.1058L20.2834 115.279L20.3352 115.293L20.387 115.322L20.4166 115.401L20.4536 115.531L20.5424 115.668L20.5942 115.762L20.6534 115.985L20.6978 116.035L20.757 116.064L20.8754 116.078L21.0974 116.064L21.2306 116.078L21.4082 116.129L21.5414 116.122L21.6006 116.107L21.7338 116.006L22.1186 117.916L20.8902 119.875L20.9198 121.179L22.829 121.042L23.458 122.396L22.9548 124.284L21.0456 124.695L20.4092 125.501L19.906 126.993L19.647 129.031L19.1438 130.256V131.61L19.3954 133.519L19.0106 135.155L17.6194 136.516L15.836 138.022L15.3402 139.701L14.2672 139.549L13.2016 139.492L11.7068 139.189L11.5144 139.088L11.3664 138.67L11.0334 138.303L10.9594 138.065L11.1592 138.144L11.3368 138.296L11.6476 138.656L11.8548 138.8L12.025 138.807L12.1064 138.685L12.062 138.44L11.8992 138.469L11.766 138.397L11.507 138.137L11.3368 138.029L11.1814 137.964L11.0186 137.928L10.8262 137.921L10.4636 137.777L9.85677 137.121L9.49417 136.941H9.16857L9.05757 136.913L8.25097 136.379L8.13257 136.142L8.06597 135.284L7.96977 134.924L7.22977 133.937L7.12617 133.577L7.22237 132.605L7.12617 132.244L7.02257 132.057L6.59337 131.596L6.48977 131.51L6.43797 131.423L6.40837 131.322L6.37877 131.099L6.33437 131.012L5.99397 130.724L5.29097 130.256L4.98017 129.932L4.63977 129.161L4.46957 127.54L4.60277 125.681L4.42517 124.63L4.44737 124.529L4.53617 124.327L4.55837 124.226L4.55097 124.097L4.42517 123.78L4.34377 123.347L4.27717 123.153L4.15137 122.966L4.29197 122.742L4.27717 121.979L4.32157 121.64L4.54357 121.424L5.22437 121.129L5.40197 120.898L5.38717 120.718L5.24657 120.437L5.26137 120.242L5.41677 120.091L5.46857 120.019L5.52777 119.839L5.53517 119.753L5.49817 119.644L5.39457 119.493L5.12077 119.277L4.92837 119.018L4.49917 118.607L4.42517 118.571L4.29197 118.542L4.21057 118.47L4.18837 118.413L4.15137 118.168L4.04037 117.793L4.00337 116.828L3.87017 116.028L3.72957 115.581L3.44837 115.286L2.76017 114.782L2.64917 114.623L2.47897 114.292L2.33837 114.155L2.15337 114.018L1.80557 113.644L1.59097 113.312L1.47997 113.082L1.42817 112.938L1.37637 112.498L1.25057 112.21L1.19877 111.648L1.07297 111.345L1.01377 110.964L0.961975 110.87L0.828775 110.69L0.769575 110.596L0.702975 110.344L0.695575 110.092L0.739975 109.602L0.636375 108.615L0.488375 108.104L0.251575 107.621L0.244175 107.513L0.258975 107.405L0.251575 107.304L0.184975 107.037L0.0739746 106.792L0.0961746 106.569L0.318175 106.403L0.591975 106.375L0.806575 106.576L0.873175 106.411L0.858375 106.223L0.813975 106.036L0.806575 105.849L0.458775 105.842L0.318175 105.417V104.451L0.340375 104.329L0.436575 104.12L0.458775 104.012V103.752L0.480975 103.644L0.562375 103.565L0.599375 103.5L0.710375 103.457L0.739975 103.421L0.665975 103.133L0.680775 102.996L0.725175 102.866L0.791775 102.744L0.880575 102.629L0.998975 102.787L1.01377 102.967L0.947175 103.349L1.15437 103.061L1.19137 102.564L1.17657 102.023L1.22097 101.613L1.33937 101.418L2.01277 100.619L2.19037 100.482L2.38277 100.453L2.60477 100.583V97.7514L2.68617 97.4849L2.89337 96.995L2.95997 96.7357L3.04137 96.9158L3.12277 96.923L3.31517 96.7357V96.8005L3.46317 96.959L3.82577 97.1967L3.94417 97.312L3.98857 97.4489L4.07737 97.9964L4.17357 98.1332L4.60277 98.371L4.70637 98.5079L4.75077 98.6735L4.85437 98.8609L5.04677 99.1202L5.32797 99.3291L5.40197 99.4228L5.43157 99.5308L5.44637 99.7542L5.46857 99.8622L5.65357 100.208L5.72017 100.374L5.74237 100.619L5.81637 100.864L6.14937 101.13L6.23077 101.281L6.26037 101.418L6.34177 101.606L6.50457 101.901L6.74877 102.16L6.80057 102.261L6.84497 102.499L6.88937 102.593L7.00777 102.686L7.14097 102.715L7.27417 102.729L7.41477 102.773L7.48137 102.816L7.59977 102.931L7.68857 102.989L7.91057 103.039L8.12517 103.003L8.48777 102.917L8.65797 102.852L8.90217 102.513L9.07977 102.348L9.39057 102.168L9.76057 102.023L10.138 102.002L10.471 102.196L10.6338 102.506L10.73 102.513L10.9298 102.304L11.0186 102.146L11.063 102.131L11.1666 102.196L11.2184 102.276L11.3072 102.557L11.6106 102.376L11.951 102.29L12.728 102.261L13.2386 102.023L13.6012 101.93L13.8306 101.757L14.0674 101.634L15.0146 100.201V97.5425L15.5178 96.3467L16.9164 96.4835L17.5528 97.1463L18.6998 97.276L19.462 96.4835L20.4758 95.2877L22.6366 94.488L23.9094 93.1625L24.9232 92.9031L26.1146 92.7086L26.0406 93.6667L25.9888 93.8324Z" fill="#03B857" stroke="#03B857" stroke-width="2" stroke-linecap="round" stroke-linejoin="round"/>
<path d="M47.3378 110.431L47.0936 112.044L46.9012 112.693L46.842 113.701L46.5016 114.897L46.1168 115.949L45.8726 117.512L44.6664 121.114L44.548 120.97L44.4962 120.848L44.437 120.819L44.326 120.97L44.215 121.201L44.289 121.265L44.4518 121.28L44.6368 121.374L44.6738 121.654L44.1558 123.945L43.6008 125.393L43.4232 125.71L43.3566 125.782L43.1938 125.883L43.142 125.926L43.0014 125.97L42.9348 126.02L43.0014 126.092V126.179L42.9348 126.452L42.7572 126.813L42.7276 126.885L42.7128 126.877L42.2022 126.481L40.8998 125.775L40.6408 125.602L40.4928 125.53L39.775 125.329L39.627 125.343L39.553 125.415V125.689L39.6196 126.02V126.107L39.5974 126.186L39.5382 126.258L39.442 126.323L39.1682 126.402L39.0276 126.38L38.7316 126.279L38.628 126.308L38.554 126.388L38.5244 126.496V126.618L38.5466 126.733L38.5762 126.849L38.665 127.058L38.8204 127.346L38.8648 127.447L38.8722 127.562L38.8426 127.67L38.7908 127.756L38.6502 127.922L38.5984 128.016L38.5022 128.225L38.4578 128.318L38.3838 128.39L38.3024 128.441L38.1248 128.534L37.8362 128.628L37.6882 128.65H37.5032L37.3922 128.599L37.3182 128.513L37.2812 128.412L37.259 128.297L37.2664 128.109L37.3108 127.879L37.3922 127.663L37.4144 127.555L37.407 127.439L37.3626 127.346L37.0592 126.899L36.9038 126.741L36.8002 126.669L36.6078 126.604L36.0454 126.589L35.8678 126.546L35.779 126.46L35.705 126.099L35.668 125.991L35.557 125.818L35.5274 125.725L35.557 125.53L35.5422 125.487L35.5052 125.415L35.4386 125.35L35.0686 125.112L34.3064 124.839L33.7366 124.702L33.6256 124.659L33.5368 124.601L33.4554 124.529L33.3962 124.435L33.3 124.234L33.2408 124.147L33.1594 124.075L32.9374 123.938L32.56 123.636L32.4638 123.492L32.4194 123.383L32.4268 123.297L32.4564 123.189L32.6192 122.757L32.8338 122.375L32.9744 122.058L33.0262 121.964L33.1742 121.806L35.0908 122.332L35.9788 122.195L36.741 121.388L36.9926 119.364L36.741 117.073L36.482 115.452L36.6152 114.782L37.5032 114.652L38.6428 115.185L39.664 115.855H40.4262V113.708L40.3004 112.095L39.405 110.351L38.776 107.945L38.2654 107.009L39.0276 105.935L39.5382 106.742L41.1884 107.542L42.0764 107.679L42.4612 107.275L43.3492 107.808L43.7266 109.011L44.9994 109.552H46.2722L47.3378 110.431Z" fill="#03B857" stroke="#03B857" stroke-width="2" stroke-linecap="round" stroke-linejoin="round"/>
<path d="M54.7822 87.3345L54.6934 87.2912L53.8572 87.0679L53.1394 87.0751L52.6362 86.9599L52.5548 86.9238L52.466 86.8374L52.429 86.7654L52.4142 86.6861L52.4216 86.4844L52.4142 86.4268L52.3698 86.3259L52.2884 86.2395L52.1108 86.117L52.0516 86.0666L51.9924 86.0305L51.9258 86.0089L51.8222 86.0161L51.504 86.1026L51.3634 86.1098L51.2598 86.081L51.1414 86.0305L50.912 85.9009L50.7344 85.7712L50.7048 85.7352L50.4902 85.3678L50.4162 85.2885L50.3052 85.2453H50.209L50.0832 85.2813L50.0018 85.3462L49.95 85.4326L49.9648 85.5407L50.024 85.6271L50.0388 85.6775L50.0314 85.7208L49.9352 85.8432L49.913 85.8937L49.8908 86.0089L49.876 86.0594L49.7724 86.1818L49.7428 86.225L49.7058 86.3403L49.6836 86.4556L49.3728 86.9599L49.3284 87.1328L49.3432 87.248L49.4172 87.3921V87.4425L49.3654 87.5218L49.2618 87.565L49.1952 87.5722L49.1064 87.529L48.9954 87.4641L48.803 87.3129L48.618 87.1976L48.47 87.1832L48.3442 87.1976L48.2258 87.2264L48.1666 87.2408L48.0334 87.3273L47.9224 87.4353L47.8706 87.4641L47.7522 87.4858L47.6116 87.4786L47.4858 87.4497L47.36 87.4353L47.2268 87.4497L47.1232 87.493L46.9382 87.6082L46.8272 87.6442L46.5608 87.6587L46.4424 87.6803H46.3758L46.3092 87.6587L46.1982 87.5794L46.102 87.4425L46.065 87.4065L45.9318 87.3201L45.8282 87.2048L45.732 87.1472L45.5692 87.0895L45.4952 87.0175L45.436 86.859L45.3398 86.7365L45.3176 86.6429L45.2732 85.7784L45.3102 85.5046L45.4804 84.8275L45.584 84.5321L45.6284 84.4312L45.658 84.2367L45.6654 83.7036L45.7098 83.2138L45.7542 83.0337L46.0354 82.5438L46.0724 82.4285L46.0946 82.3349L46.0872 81.9747L46.1316 81.8306L46.2204 81.7009L46.2944 81.6289L46.4646 81.5064L46.62 81.3695L46.694 81.2903L47.0048 80.7716L48.433 80.4978L49.1952 79.9719L49.9574 80.6275L51.6076 80.7572L51.985 78.3943H52.8804L52.4956 76.4276L54.2716 75.9017L54.4048 74.324L55.2928 74.0646V72.0979L54.4048 69.7494L53.8942 68.179V66.0898L54.2716 64.6562L55.5444 64.3968L56.8172 63.6188L56.6914 62.5742L55.8034 61.5368L55.167 60.7588L55.8034 60.4923H57.0688L57.4536 59.4549L58.8522 59.1955L60.3766 59.0659L61.642 58.6768V57.8988L62.0268 57.1208L63.492 56.9767L63.788 58.5256L63.8398 59.1955L63.7214 59.9159L63.3662 61.1478L62.8704 62.7183L62.8556 62.8984L62.8704 63.0785L62.9148 63.2226L62.9592 63.2946L63.0702 63.4315L63.122 63.5035L63.1442 63.626L63.0776 63.6836L62.9814 63.7269L62.8778 63.7917L62.567 64.368L62.3154 66.4284L62.2414 66.5652L62.049 66.803L61.975 66.9327L61.7308 67.6386L61.1388 68.8561L60.6134 70.794L59.8216 72.5662L59.4516 73.1209L58.5266 76.3987L57.2464 79.6045L56.8986 81.2543L56.8764 81.4992L56.8838 81.8954L56.5582 82.8392L56.4916 82.7095L56.3658 82.5438L56.2326 82.4501L56.1438 82.5582L56.1808 82.6735L56.4324 83.0121L56.4842 83.1705L56.4546 83.3074L55.6184 85.0148L55.0412 86.5492L54.7822 87.3345Z" fill="#03B857" stroke="#03B857" stroke-width="2" stroke-linecap="round" stroke-linejoin="round"/>
<path d="M47.6856 46.6605V46.8622L47.7744 47.3305L47.7892 47.3881L47.9372 47.6618L47.9816 47.7627L48.0112 47.878L48.0556 48.1301L48.063 48.5047L48.0556 48.5768L48.0112 48.6704L47.9816 48.7425L47.9742 48.8145L48.0038 48.9226L48.0482 49.045L48.1074 49.1315L48.2554 49.2684L48.3886 49.4268L48.4182 49.4773L48.47 49.6286L48.5514 49.7078L48.6254 49.7654L48.692 49.8447L48.7068 49.9095L48.7364 50.0896L48.8178 50.1905L48.8992 50.2481L48.9658 50.3273L49.0398 50.4714L49.1286 50.5291L49.2766 50.6011L49.321 50.6299L49.3358 50.6947V50.7812L49.2248 51.1198V51.1702L49.3136 51.2855L49.3432 51.3791L49.3506 51.6385L49.358 51.6889L49.5874 52.0059L49.728 52.15L49.9056 52.2652L49.9574 52.2868L50.0832 52.3084L50.2164 52.3012L50.3422 52.3229L50.394 52.3445L50.431 52.4021L50.4458 52.4885L50.431 52.6614L50.4384 52.7551L50.505 52.9712L50.5198 53.1081L50.5346 53.1873L50.6012 53.3602L50.5864 53.4611L50.5346 53.598L50.32 53.9942L50.2534 54.0734L50.1794 54.1383L50.1424 54.1887L50.1276 54.2463L50.135 54.3544L50.1868 54.5345L50.1572 54.6209L50.1054 54.7218L49.9796 54.9163L49.9056 55.0028L49.8094 55.0964L49.7502 55.2405L49.6466 55.6727L49.617 55.7592L49.5578 55.824L49.4246 55.9321L49.395 55.9825L49.3876 56.0473L49.4024 56.1482L49.4394 56.2058L49.4838 56.2419L49.6762 56.2635L49.7206 56.2851L49.728 56.3427L49.7206 56.4147L49.6984 56.5156L49.7058 56.6453L49.691 56.7029L49.6318 56.7677L49.5208 56.8398L49.4764 56.8902L49.4394 56.955L49.4172 57.0919V57.3297L49.3654 57.4377L49.2544 57.4737L49.21 57.5242L49.173 57.6827L49.1508 58.0573L49.1064 58.3742L49.0768 58.4535L49.025 58.5255L48.9066 58.6336L48.8326 58.6552H48.6476L48.5514 58.684L48.4922 58.72L48.4552 58.7705L48.433 58.8497L48.4108 58.9866L48.4182 59.1523L48.4108 59.2171L48.3812 59.2892L48.3146 59.3828L48.1962 59.4909L48.1444 59.6061L48.137 59.7286L48.1444 59.8078L48.174 59.9303L48.1444 60.0456L47.878 60.5355L47.545 60.9893L46.9752 61.1118L46.6792 61.2198L45.2214 61.4864L44.8292 61.5008L44.5776 61.4792L44.4814 61.3927L44.363 61.191L44.2964 61.1046L44.1558 61.0541L43.8154 61.1046L43.3788 61.0469L43.0976 60.9677L42.9348 60.8957L42.846 60.7948L42.8016 60.7011L42.735 60.6219L42.6462 60.5571L42.3502 60.413L42.2688 60.3481L42.2096 60.2617L42.1356 60.06L42.1208 59.9519L42.1134 59.779L42.0172 59.6998L41.8248 59.6061L41.3882 59.4621L41.1218 59.4188H40.885L40.626 59.4404L40.478 59.4837L40.3596 59.5413L40.0192 59.7934L39.9156 59.8295L39.5308 59.8799L39.4198 59.9159L39.331 59.9735L39.1682 60.1032L39.109 60.1897L38.998 60.377L38.9388 60.4562L38.85 60.485L38.7242 60.3409L38.6206 60.2545L38.406 60.1897L38.1248 60.1536L37.592 60.1464L37.4736 60.096L37.4292 60.0096L37.4736 59.7934V59.6782L37.4514 59.5629L37.3478 59.2387L37.2812 59.1451L37.1998 59.1379L37.0962 59.1523L36.9704 59.1451L36.815 59.2315L36.6744 59.2531L36.26 59.2315L35.8826 59.1667L35.668 59.1523L35.5126 59.1739L34.9058 59.3252L34.2324 59.3756L34.077 59.354L33.9438 59.318L33.8328 59.2603L33.7514 59.2964L33.6108 59.426L33.4258 59.5341L33.2482 59.6494L33.1594 59.6926L32.9596 59.7358L32.856 59.7718L32.7672 59.8223L32.634 59.8655L32.4712 59.9015L32.1826 59.9303L32.0346 59.9807L31.9384 60.0528L31.9014 60.1464L31.8274 60.2113L31.7238 60.2545L31.45 60.3265L31.2428 60.3554L31.1022 60.3986L30.7766 60.5931L30.6804 60.6363H30.5694L30.4436 60.6219L30.34 60.6723L30.229 60.73L30.0292 60.7948H29.896L29.8294 60.7228L29.822 60.5282L29.7702 60.4346L29.6888 60.4418L29.4816 60.5355L29.3188 60.5715L29.1856 60.5643L29.082 60.5282L28.9636 60.4706L28.8304 60.413L28.4308 60.3337L28.3198 60.2905L28.2606 60.2401L28.1496 60.1248L28.0608 60.0816L27.935 60.06L27.4614 58.9362L26.6992 58.1581L26.5734 57.3801L27.084 56.8614L26.9582 56.0834L26.0628 55.9537L24.9232 56.0834H24.0352L23.6504 55.046L23.014 52.4525L23.1472 51.4152L25.049 51.0333L26.196 51.5448H28.3568L28.7342 52.1932L29.4964 53.2306L30.6434 54.1383L31.2724 53.7493L31.783 52.5822L32.4194 52.1932L33.0558 51.4152L34.1954 51.1558L34.9576 49.3476L35.3868 47.6402L36.741 47.4097L38.2654 47.28L39.5382 47.4097L40.6778 47.9284L41.5658 48.3174L41.9506 47.7987L41.44 47.0279L40.3004 46.1202L41.0626 45.3494L41.8248 44.4417L43.6008 45.479H44.7478L45.251 45.8608L46.1464 46.2499L47.6856 46.6605Z" fill="#03B857" stroke="#03B857" stroke-width="2" stroke-linecap="round" stroke-linejoin="round"/>
<path d="M39.886 35.6888L39.5382 37.6267L39.9156 39.298L40.3004 41.4808L41.0626 42.6407L41.699 43.5412L41.8248 44.4417L41.0626 45.3494L40.3004 46.1202L41.44 47.0279L41.9506 47.7988L41.5658 48.3174L40.6778 47.9284L39.5382 47.4097L38.2654 47.2801L36.741 47.4097L35.3868 47.6403L34.9576 49.3476L34.1954 51.1558L33.0558 51.4152L32.4194 52.1932L31.783 52.5822L31.2724 53.7493L30.6434 54.1383L29.4964 53.2306L28.7342 52.1932L28.3568 51.5449H26.196L25.049 51.0334L23.1472 51.4152L22.6366 50.5147L21.6154 50.2553L20.7274 49.218L20.6016 48.3174L19.5878 47.7988L18.315 46.7686L17.6786 45.6087L17.5528 44.3192L16.8572 43.5196L16.9238 43.4187L16.9978 43.3323L17.1384 43.253L17.279 43.2098L17.5676 43.1666L17.7082 43.1089L17.6194 43.0369L18.2114 42.7631L18.5074 42.583L18.7072 42.3309L19.055 41.7618L19.277 41.488L19.5064 41.2719L19.7802 41.1134L20.4018 40.8541L20.8014 40.5875L20.8754 40.6452L20.8976 40.7964L20.9124 41.1206L21.09 41.6969L21.1048 41.841L21.0974 41.9131L21.0382 42.122L21.0308 42.2949L21.0456 42.4318L21.1196 42.5182L21.2824 42.547L21.4378 42.4966L21.534 42.3885L21.6228 42.2517L21.7338 42.158L22.0742 42.0283L22.2222 41.9275L22.2888 41.769L22.2592 41.6825L22.0668 41.6033L21.941 41.4808L21.8596 41.3079L21.8522 41.1783L21.9484 41.099L23.606 40.9189L23.7466 40.8685L23.8798 40.782L23.9538 41.0702L24.087 41.2359V41.3872L23.9834 41.6825V41.7834L24.161 41.6969L24.235 41.8987L24.309 41.877L24.4052 41.6969L24.3016 41.1711L24.3312 41.0558L24.494 40.8973L24.5754 40.782L24.568 40.7532L24.5754 40.4939L24.5976 40.4074L24.6568 40.2489L24.6494 40.1409L24.568 40.0112L24.4644 39.9248L24.4052 39.8311L24.4792 39.6942L24.8048 39.3484L25.1378 39.1395L25.2414 39.1323L25.4116 39.1971L25.5596 39.2332H25.715L25.8704 39.2548L26.233 39.4853L26.4624 39.4493L27.0766 39.0963L27.2098 39.0531L27.343 39.0243L27.4984 39.017L27.7204 39.0459L27.7944 39.1395L27.7796 39.4781L27.787 39.6366L27.824 39.723L27.9054 39.7591L28.0534 39.7951L28.1422 39.8023L28.3198 39.7879L28.4012 39.7951L28.675 39.9392L28.9118 39.9464V39.8815L28.8156 39.7591L28.749 39.579L28.7934 39.4709L28.8822 39.3845L28.9636 39.2692V39.0891L28.7194 39.2188L28.4826 39.3989L28.342 39.4565L28.4012 39.2332L28.5492 38.9954L28.7564 38.7865L29.0006 38.6064L29.23 38.4623L29.4594 38.3687L29.7036 38.3255H30.2068L30.4658 38.3543L30.5842 38.3975L30.6286 38.4623V38.5848L30.6434 38.6929L30.6878 38.7937L30.7692 38.8802L30.6508 39.0675L30.6064 39.2332L30.5324 39.3772L30.3474 39.5141L30.5694 39.687L30.7322 39.8527L30.858 40.04L31.2132 40.7532L31.376 40.9477L31.598 41.135L31.6128 41.0342L31.6054 40.8973L31.6128 40.7748L31.672 40.71L31.7534 40.7388L31.8644 40.9333L31.9458 40.991L32.1456 40.9477L32.2344 40.7676L32.227 40.5443L32.153 40.357L32.4194 40.3354L32.6192 40.5227L32.7894 40.7676L32.9966 40.9189L33.1002 40.8397L32.9892 40.5659L32.7524 40.1409L32.5452 40.0544L32.1308 39.6726L31.8792 39.579L31.5462 39.6006L31.4574 39.579L31.2724 39.4709L31.2946 39.4061L31.413 39.3412L31.5388 39.2332L31.8052 38.8225L31.8496 38.6208L31.7386 38.4623L31.6276 38.4479L31.487 38.4695H31.376L31.3242 38.3903L31.3538 38.2246L31.5018 37.9436L31.6202 37.569L31.8052 37.3745L32.264 37.0215L32.9004 36.3155L33.1372 36.1426L33.1964 36.2867V36.3516L33.3148 36.2939L33.5886 36.0346L34.0178 35.732L34.1362 35.6167L34.373 35.4583L34.6468 35.4294L34.9132 35.4366L35.1426 35.3718L35.0094 35.2782L34.6986 35.1989L34.6616 35.0981L34.7652 34.9828L35.3498 34.8459L36.4006 34.1039L37.1628 33.4195L37.592 33.297L37.8732 33.1458L38.0286 33.1097L38.0952 33.1458L38.1248 33.225L38.1396 33.3187V33.5924L38.1544 33.6428L38.2802 33.9022L38.3616 34.003L38.4652 34.0895L38.628 34.1831L38.9758 34.32L39.146 34.4353V34.5578L39.0424 34.6946L38.887 34.954L38.7612 35.0548L38.6058 35.1557L38.5022 35.2637L38.0508 36.157L37.9324 36.5028L37.962 36.7406L38.073 36.7694L38.147 36.6253L38.2358 36.2867L38.3542 36.1787L38.5392 36.121L38.9018 36.0706L39.2496 35.9409L39.5678 35.7752L39.886 35.6888Z" fill="#03B857" stroke="#03B857" stroke-width="2" stroke-linecap="round" stroke-linejoin="round"/>
<path d="M34.2324 59.3756L34.5654 61.1334L35.446 63.4171L36.7928 65.2253L37.814 66.1979L38.1322 67.6459L38.3098 67.9628L38.6502 68.2582L38.7834 68.7481L39.1016 69.2091L39.516 69.4253L39.7084 69.6918L37.629 69.4901L35.9788 69.3532L34.9576 69.4901L33.9438 70.3978L33.4332 72.2348L32.4194 73.8053L30.895 75.6351L29.8812 77.0831L28.0978 77.3425L26.2922 77.1696L26.2996 77.1192L26.3588 77.0687L26.5068 77.0183L26.5808 76.9463L26.5956 76.8598L26.5882 76.5573L26.6252 76.2979L26.6178 75.9809L26.5808 75.7864L26.4772 75.4911L26.4402 75.3182L26.3514 75.1237L26.3292 75.0516L26.3218 74.9363L26.2996 74.8643L26.2256 74.7995H26.0998L25.937 74.8499L25.8334 74.9003L25.7002 74.9796L25.5892 75.0084L25.5374 75.0012L25.4412 74.9508L25.3672 74.8787L25.271 74.7562L25.0638 74.5906L24.975 74.4681L24.8788 74.2736L24.753 74.1079L24.6494 73.9926L24.6198 73.935L24.605 73.8557L24.6272 73.7261L24.6494 73.6468L24.6938 73.5316L24.7012 73.4739L24.6938 73.4019L24.6346 73.3226L24.5828 73.2866L24.3534 73.2074L24.3016 73.1497L24.2572 73.0705L24.198 72.8832L24.1018 72.7391L23.9242 72.6239L23.8428 72.5518L23.8206 72.5086L23.643 72.0403L23.5616 71.9034L23.4876 71.8314L23.4432 71.8026L23.273 71.745L23.2212 71.7233L23.1916 71.6657V71.5793L23.236 71.4064L23.2804 71.3127L23.3988 71.111L23.4136 71.039L23.421 70.9597L23.3544 70.6644L23.3322 70.6139L23.273 70.3834L23.2286 69.8719L23.199 69.7494L23.162 69.6486V69.5838L23.1768 69.5117L23.2286 69.4325L23.4136 69.2812L23.5838 69.0867L23.6948 68.9066L23.7688 68.8345L23.9094 68.7553L23.976 68.676L24.0574 68.5392L24.1314 68.4671L24.309 68.3519L24.383 68.2798L24.4126 68.2006L24.4792 67.6603L24.3386 66.414L24.3312 66.0682L24.3682 65.9601L24.3978 65.9169L24.5088 65.8016V65.7224L24.4644 65.6071L24.1758 65.1605L24.0944 65.0812L23.9316 65.0164L24.0204 64.9083L24.0574 64.8435L24.1388 64.6634L24.198 64.5842L24.346 64.4401L24.4274 64.3896L24.531 64.368L24.679 64.4041L24.7974 64.4473L24.901 64.5049L25.0416 64.6274H25.1156L25.2932 64.5553L25.419 64.5842L25.8186 64.7066L25.9148 64.721L26.2996 64.4329L26.3588 64.3464L26.3736 64.2456L26.3366 63.907L26.3514 63.7917L26.381 63.6692L26.4476 63.554L26.7066 63.273L26.7732 63.1722L26.825 63.0785L26.8694 62.9777L26.899 62.7687L27.0322 62.2645L27.1062 62.0844L27.1654 62.0051L27.454 61.717L27.4984 61.6233L27.5206 61.4288L27.5428 61.3279L27.7056 60.9533L27.7278 60.8597V60.766L27.7056 60.5715L27.713 60.4707L27.7426 60.3698L27.787 60.2545L27.8536 60.1537L27.935 60.06L28.0608 60.0816L28.1496 60.1249L28.2606 60.2401L28.3198 60.2906L28.4308 60.3338L28.8304 60.413L28.9636 60.4707L29.082 60.5283L29.1856 60.5643L29.3188 60.5715L29.4816 60.5355L29.6888 60.4418L29.7702 60.4346L29.822 60.5283L29.8294 60.7228L29.896 60.7948H30.0292L30.229 60.73L30.34 60.6724L30.4436 60.6219L30.5694 60.6363H30.6804L30.7766 60.5931L31.1022 60.3986L31.2428 60.3554L31.45 60.3266L31.7238 60.2545L31.8274 60.2113L31.9014 60.1465L31.9384 60.0528L32.0346 59.9808L32.1826 59.9304L32.4712 59.9015L32.634 59.8655L32.7672 59.8223L32.856 59.7719L32.9596 59.7358L33.1594 59.6926L33.2482 59.6494L33.4258 59.5341L33.6108 59.4261L33.7514 59.2964L33.8328 59.2604L33.9438 59.318L34.077 59.354L34.2324 59.3756Z" fill="#03B857" stroke="#03B857" stroke-width="2" stroke-linecap="round" stroke-linejoin="round"/>
<path d="M51.8148 13.313L51.911 13.5219L51.9924 13.7453L51.9998 13.8533L52.1182 13.9254L52.0664 14.0911L51.9554 14.2784L51.8962 14.4152L51.9702 14.4945L52.1108 14.5881L52.2292 14.6962L52.244 14.8187L52.1774 14.8979L52.0738 14.9411L51.9628 14.9628L51.8592 14.97L51.8074 14.9483L51.7778 14.8979L51.7556 14.8187L51.6964 14.8331L51.5484 14.8979L51.1858 14.8403L51.06 14.7827L50.9194 14.6818H50.8528V14.8187H50.8084L50.7196 14.761L50.6234 14.6386L50.5568 14.4225L50.505 13.9902L50.5494 13.7957L50.6012 13.6228L50.5938 13.4931L50.4458 13.4355L50.5494 13.3058L50.6974 13.349L50.8528 13.4211L50.9934 13.3635L51.06 13.4211L51.1562 13.4715L51.2598 13.4787L51.3338 13.4355L51.3486 13.3563L51.2376 13.205L51.208 13.1185L51.2154 12.9168L51.2598 12.7943L51.3708 12.7511L51.5854 12.7367L51.7556 12.7871L51.837 12.9168L51.8296 13.0825L51.726 13.2626L51.8148 13.313ZM65.12 7.46336L64.1876 8.39268L63.2996 9.27877L62.6632 10.1721L63.4254 10.2945L63.5512 11.0582L63.0406 11.9515L62.9148 13.7309L62.2784 14.3648L62.9148 16.3964L62.4042 18.4351L62.1526 19.1987L62.0268 20.092L61.013 20.3442L60.5024 22.0083L59.6514 22.9088L59.607 22.9016L59.0668 22.599L58.941 22.5558L58.756 22.5342L58.6302 22.4838L58.5192 22.4045L58.4452 22.3757H58.3786L58.2306 22.4405L58.1122 22.4621L58.016 22.5126L57.979 22.5414L57.7126 22.916L57.6238 22.9808L57.424 23.0529L57.1576 23.2186L57.0836 23.2906L57.0244 23.3771L56.98 23.4059L56.9134 23.4131L56.8542 23.341L56.832 23.2186L56.8024 23.1609L56.5878 22.8368L56.5138 22.7863L56.4546 22.7719L56.4028 22.7935L56.3214 22.8584L56.277 22.88L56.092 22.8872L56.0328 22.8944L55.8774 22.952L55.7664 22.9808L55.6998 22.9736L55.5962 22.9232L54.9672 22.4477L54.908 22.4117L54.5898 22.3109L54.4714 22.2532L54.4122 22.21L54.0274 21.785L53.9164 21.6985L53.8276 21.6625L53.7758 21.6769L53.687 21.7345L53.5686 21.8282L53.4798 21.8858L53.1912 22.0227L53.0284 22.0731L52.7768 22.1091L52.6214 22.1668L52.5696 22.1812L52.4734 22.174L52.3476 22.138L52.1034 22.0155L51.985 21.9363L51.8074 21.785L51.7482 21.7417L51.3634 21.5328L51.2968 21.4896L51.0378 21.151L50.912 21.0141L50.8528 20.9925L50.8084 21.0069L50.7122 21.115L50.653 21.1438L50.5864 21.1582L50.468 21.1438L50.4088 21.1078L50.3718 21.0574L50.3422 20.9277V20.8052L50.394 20.5747L50.4458 20.481L50.69 20.3009L50.8084 20.1352L50.838 20.092L51.0008 19.9047L51.06 19.8183L51.1044 19.7174V19.6526L51.0822 19.5661L51.0304 19.5445H50.9786L50.838 19.6094L50.4976 19.8471L50.1054 20.02L50.0166 20.0704L49.8168 20.2361L49.7798 20.2649L49.3802 20.4378L49.3136 20.5027L49.3062 20.5603L49.3654 20.7692L49.358 20.8701L49.284 20.9565L49.1952 21.0069L48.9732 21.0646L48.9436 21.1006V21.151L49.0472 21.3095L49.0546 21.3599L49.0324 21.4032L48.8474 21.5616L48.5218 21.4536L48.2998 21.3023L47.9298 20.9565L48.6994 20.5603V20.4378L48.211 20.1208L47.804 19.9624L47.693 19.8759L47.4266 19.386L47.2712 18.7233L47.3526 18.1541L47.7966 17.9596L47.6856 17.8011L47.5598 17.7435L47.4636 17.6499L47.4488 17.3977L47.4784 17.1816L47.5598 16.879L47.693 16.6701L47.9002 16.7349L48.0482 16.7494L48.137 16.4972L48.1814 16.0434L48.2628 15.9641L48.3738 15.8993H48.4848L48.5588 16.0073L48.5144 16.0722L48.4182 16.1586L48.3516 16.2667L48.4256 16.4252L48.4774 16.3964L48.6328 16.3531L48.581 16.4756L48.6032 16.5909L48.6846 16.6485L48.803 16.5909L48.84 16.5116L48.8474 16.418L48.8844 16.3387L49.0472 16.2811L48.8622 16.0794L48.8474 16.0073H49.2248L49.3802 16.1226L49.4468 16.3819L49.4838 16.6629L49.5356 16.843L49.8168 16.7133L49.9722 16.7998L50.0536 17.0087L50.098 17.2536L50.2756 17.7147L50.2978 17.8876L50.3052 18.0245L50.3348 18.0821L50.4976 18.1397L50.4754 18.219L50.3644 18.3414L50.4828 18.5432L50.7418 18.7377L51.0452 18.8817L51.2672 18.9322L51.5558 18.8601L51.8518 18.6728L51.9924 18.4279L51.8222 18.1613L51.8888 18.0101L51.8962 17.4698L51.9554 17.3041L52.1404 16.9799L52.1774 16.843L51.9554 16.4828L51.911 16.3027L52.1034 16.2163L52.2218 16.2739L52.5178 16.6989L52.5696 16.5116L52.6584 16.3315L52.762 16.1802L52.8656 16.0794L52.9988 16.0289L53.1838 16.0001L53.3762 15.9929L53.4946 16.0073V15.7984L53.7314 16.0001L53.8498 16.065L53.946 16.0434L53.9238 15.9497L53.7462 15.5967L53.6648 15.3158L53.4872 15.0852L53.4206 14.97L53.391 14.8331L53.3836 14.689L53.4206 14.4152L53.576 14.4513L53.6722 14.5449L53.7388 14.6602L53.8424 14.761L53.8498 14.9267L54.0348 15.0492L54.5676 15.2581L54.6638 15.2797L54.7674 15.2653L54.8858 15.2077L55.0116 15.1789L55.1448 15.2005L55.2632 15.2293L55.3742 15.2437L55.7368 15.1429L56.1068 14.9339L56.4398 14.653L56.6914 14.336L56.5138 14.1343L56.6618 13.8461L57.0392 13.3995L57.0096 13.277L56.8616 13.0393L56.8246 12.8808L56.832 12.5494L56.8542 12.3765L57.0836 11.5769L57.2168 11.2959L57.498 10.9285L57.5794 10.77L57.6386 10.6043L57.6608 10.4746L57.7126 10.3666L57.831 10.2153L57.9716 10.0856L58.0826 10.0352L58.0382 9.77585L58.1936 9.12028L58.2158 8.84653L58.1566 8.71686L57.9568 8.48633L57.8754 8.35666L57.8088 8.21978L57.7644 8.10452L57.7126 7.65066L57.6756 7.5426L57.5276 7.31928L57.461 7.28326L57.4092 7.29766L57.3574 7.29046L57.313 7.1824V7.08154L57.424 6.97348L57.4536 6.90144L57.4462 6.81499L57.387 6.69253V6.62769L57.498 6.37555L57.5276 6.34673L57.4462 6.22426L57.3352 6.21706L57.1872 6.26749L57.0392 6.34673V6.05137L56.943 5.87847L56.6174 5.59031L56.462 5.17968L56.3732 5.0428L56.3436 5.23731L55.9292 5.0356L56.055 4.94195L56.2326 4.66099L56.3436 4.65378L56.4694 4.71142L56.5804 4.74023L56.832 4.75464L57.1798 4.81948L57.3944 5.00678L57.6978 5.5831L57.8088 5.64074L57.9716 5.59751L58.1196 5.48945L58.2158 5.38139L58.2602 5.23011L58.2898 4.68981L58.312 4.63217L58.423 4.41605V4.36562L58.4082 4.22154L58.423 4.13509L58.5192 4.01263L58.645 3.91177L58.7856 3.87575L58.9188 3.93338L58.9854 3.75328L59.089 3.66683L59.2148 3.58759L59.3332 3.44351L59.4812 3.62361L59.6144 3.48673L59.7476 3.23459L59.8882 3.09051L60.051 3.22739L60.2064 3.17696L60.3174 3.01127L60.3766 2.82396L60.3692 2.74472L60.3026 2.58623L60.31 2.47817L60.3618 2.3629L60.4432 2.29807L60.5246 2.25484L60.5912 2.19721L60.6874 2.1756L60.717 2.12517L60.6578 1.98829L60.569 1.88744L60.5024 1.87303L60.421 1.88023L60.31 1.85142L60.2582 1.80819L60.1842 1.68572L60.1028 1.6353L59.9918 1.62089L59.6144 1.6353L59.755 1.4552L60.162 1.32552L60.31 1.15263L60.4654 1.26069L60.791 1.71454L60.865 1.6353L60.939 1.71454L60.9464 1.52003L60.8724 1.29671L60.717 1.12381L60.5172 1.08779L60.5542 0.979729L60.7318 0.806833L60.8354 0.763608L60.865 0.741996L60.8132 0.648344L60.7984 0.576304L60.828 0.497059L61.1314 0.172878L61.309 0.0720215L61.494 0.115246L61.5976 0.187286L61.8788 0.497059L61.9454 0.64114V0.936505L62.012 1.05177L62.2118 1.31111L62.2414 1.55605L62.2118 1.8154L62.2562 2.11797L62.4338 2.49258L62.456 2.64386L62.3968 2.65106L62.012 2.22603L61.9158 2.21162L61.8418 2.29807L61.7752 2.41333L61.7012 2.47817L61.5606 2.44215L61.4496 2.33409L61.3756 2.19001L61.346 2.06033L61.2424 2.11076L61.161 2.19001L61.1092 2.28366L61.0796 2.39892L61.198 2.46376L61.1684 2.57902L60.9982 2.88159H61.1536L61.3608 2.91041L61.5458 2.97525L61.6346 3.06169L61.5976 3.12653L61.4496 3.249L61.42 3.30663L61.4422 3.39308L61.4718 3.48673L61.5236 3.51555L61.5976 3.44351L61.7012 3.26341L61.79 3.22018L61.8714 3.29222L61.975 3.44351L61.9602 3.49394L61.9158 3.56598V3.62361L62.012 3.65242L62.2118 3.65963L62.3154 3.63802L62.3894 3.58759L62.4486 3.41469L62.308 3.12653L62.3524 2.99686L62.5374 2.8888L62.6558 2.96084L62.9518 3.41469L62.9814 3.52996V3.64522L63.0184 3.7893L63.1146 3.94779L63.2182 4.05585L63.2922 4.19273L63.2996 4.41605L63.3662 4.28638L63.455 4.19993L63.566 4.1495L63.7066 4.13509L63.862 4.16391L63.9212 4.22154L63.9656 4.30079L64.1432 4.45928L64.2024 4.58895L64.2098 4.70421L64.1284 4.75464L63.9878 4.71862L63.862 4.66819L63.751 4.65378L63.6474 4.75464L63.8916 4.95635L64.0248 5.11484L64.1358 5.12925L64.3356 4.89152L64.6168 5.51106L64.6834 5.72719L64.7056 5.99373L64.6834 6.12341L64.5798 6.109L64.4984 5.99373L64.4688 5.87127L64.4762 5.59031L64.417 5.86406L64.565 6.44038L64.5058 6.66371L64.4318 6.77177L64.3874 6.87983L64.38 6.98789L64.4096 7.11036L64.4984 7.28326L64.5724 7.26885L64.6464 7.19681L64.7574 7.1824L64.9128 7.28326L65.12 7.46336Z" fill="#03B857" stroke="#03B857" stroke-width="2" stroke-linecap="round" stroke-linejoin="round"/>
<path d="M42.9644 93.2994L42.587 95.2877L42.0764 96.4836L42.328 97.276L42.7128 98.2053L42.0764 101.267L41.699 102.866L41.3142 103.666L41.699 104.473L40.1672 105.272L39.0276 105.935L38.2654 107.009L36.9926 106.476H34.706L33.6922 106.339L32.93 105.402L32.671 104.069L32.2936 103.133L30.5102 102.204L28.6084 101.67L27.084 101.534L25.8112 101.67L24.9232 101.534L23.3248 100.532L23.4432 100.496L23.532 100.446L23.5764 100.41L23.606 100.309L23.5912 100.194L23.569 100.086L23.5764 100.006L23.5986 99.9703L23.7984 99.8766L23.865 99.7902L23.8724 99.6677V99.6029L23.7022 98.9041L23.6948 98.7888L23.754 98.5511L23.7614 98.4863L23.754 98.3494L23.6948 98.0612L23.68 98.0036L23.717 97.8883L24.0944 97.4561L24.1462 97.3552L24.1684 97.2328L24.1536 97.0383L24.1684 96.9806L24.235 96.9014L24.2794 96.8726L24.3978 96.8438L24.4644 96.7717L24.5088 96.6564L24.568 96.57L24.605 96.534L24.7752 96.4836L24.8344 96.3899L24.8788 96.3611L24.975 96.3179L25.1156 96.2314L25.2266 96.2098L25.382 96.1378L25.5744 96.1161L25.6854 96.0801L25.7224 96.0441L25.7742 95.9432L25.7964 95.8856L25.826 95.6263L25.8112 95.4966L25.6188 94.4232L25.641 94.3079L25.6706 94.2647L25.789 94.1638L25.8556 94.0702L25.9888 93.8325L27.3356 93.8253L28.6084 93.1625L30.007 92.7663L30.7692 91.9738L31.6572 91.1814L32.5452 90.7852L33.3074 91.0445L34.1954 90.7852L34.4544 91.5776L35.4682 93.0328L36.8668 93.9621H38.1396L38.9018 92.9031L40.552 92.2404L41.3142 92.4997L41.699 93.1625L42.9644 93.2994Z" fill="#03B857" stroke="#03B857" stroke-width="2" stroke-linecap="round" stroke-linejoin="round"/>
<path d="M38.2654 107.009L38.776 107.945L39.405 110.351L40.3004 112.095L40.4262 113.708V115.855H39.664L38.6428 115.185L37.5032 114.652L36.6152 114.782L36.482 115.452L36.741 117.073L36.9926 119.364L36.741 121.388L35.9788 122.195L35.0908 122.332L33.1742 121.806L33.2408 121.741L33.2926 121.676L33.3148 121.618L33.337 121.446L33.3222 121.33L33.2926 121.193L33.1964 121.013L33.0484 120.617L32.967 120.495L32.8264 120.336L32.634 120.055L32.5822 119.947L32.5452 119.717L32.4934 119.58L32.4712 119.472L32.5008 119.378L32.5674 119.313L32.7524 119.198L32.8338 119.133L32.893 119.047L32.9448 118.845L32.9744 118.744L33.0262 118.65L33.0558 118.55L33.0484 118.441L32.9966 118.218L32.9522 118.117L32.9226 118.009V117.894L32.9522 117.786L33.0558 117.599L33.0854 117.498L33.0928 117.411L33.0336 116.9L32.9892 116.741L32.9152 116.648L32.819 116.583L32.1012 116.201L32.042 116.151L31.9976 116.093L31.9606 115.949L31.9384 115.884L31.7608 115.545L31.6498 115.38L31.5684 115.2L31.524 115.077L31.3316 114.789L31.302 114.71L31.2798 114.587L31.2576 114.53L31.1614 114.35L31.1244 114.249L30.5472 112.988L30.3548 112.707L30.2956 112.635L29.5704 112.181L29.341 112.001L29.1782 112.044L28.9488 111.828L28.194 111.374L27.9572 111.309L27.5206 111.324L26.8694 111.259L26.7288 111.273L26.233 111.374L24.3016 112.145L22.311 113.262L22.1482 113.471L21.941 114.767L21.9484 115.668L21.793 115.884L21.7338 116.006L21.6006 116.107L21.5414 116.122L21.4082 116.129L21.2306 116.079L21.0974 116.064L20.8754 116.079L20.757 116.064L20.6978 116.035L20.6534 115.985L20.5942 115.762L20.5424 115.668L20.4536 115.531L20.4166 115.401L20.387 115.322L20.3352 115.293L20.2834 115.279L20.1058 115.322H20.0466L19.8542 115.293H19.7876L19.388 115.344L19.2918 115.337L19.1364 115.315L19.055 115.279L18.9958 115.243L18.6998 114.94L18.5962 114.818L18.4852 114.703L18.426 114.609L18.3816 114.465L18.3594 114.263L18.2928 114.105L18.2262 113.975L18.1966 113.838L18.1892 113.694L18.1596 113.535V113.399L18.2484 113.182L18.352 112.757L18.3964 112.649L18.4852 112.505L18.5074 112.404L18.5222 112.253L18.5444 112.167L18.611 112.015L18.6258 111.886L18.6036 111.763L18.5148 111.511L18.5074 111.374L18.5148 111.309L18.5592 111.209L18.8478 110.82L18.8996 110.719L18.9292 110.596L18.9514 110.315L18.9736 110.178L19.0476 109.948L19.4842 109.177L19.61 109.004L19.6396 108.954L19.684 108.774L19.7654 108.694L19.869 108.651L20.0984 108.586L20.2538 108.514L20.3278 108.442L20.3426 108.392L20.3204 108.219L20.3278 108.161L20.4166 107.945L20.4906 107.873L20.6534 107.815L20.7274 107.743L20.7422 107.693L20.7274 107.621L20.6682 107.448L20.6534 107.29V107.146L20.6756 107.016L20.7348 106.857L20.7866 106.677L20.8088 106.627L20.8532 106.598L21.0456 106.576L21.09 106.548L21.1196 106.504L21.1492 106.389L21.1344 106.209L21.0826 106.065L21.0678 105.978L21.09 105.914L21.2454 105.777L21.2824 105.741L21.3194 105.633L21.312 105.539L21.2676 105.431L21.1492 105.236L21.0974 105.136L21.0752 105.049L21.0974 104.927L21.1418 104.826L21.1492 104.703L21.0604 104.228L20.9938 104.077L20.942 103.918L20.794 103.673L20.572 103.371L20.4906 103.219L20.4536 103.111L20.5054 103.018L20.6238 102.917L20.7274 102.881L20.8532 102.859H21.2824L21.6968 102.765L21.7856 102.708L21.8078 102.65L21.8596 102.477L21.9188 102.391L22.0224 102.348L22.1408 102.319L22.2444 102.268L22.3036 102.182L22.5404 100.835L22.5774 100.727L22.644 100.647L22.7328 100.59L22.8512 100.554H23.199L23.3248 100.532L24.9232 101.534L25.8112 101.67L27.084 101.534L28.6084 101.67L30.5102 102.204L32.2936 103.133L32.671 104.069L32.93 105.402L33.6922 106.339L34.706 106.476H36.9926L38.2654 107.009Z" fill="#03B857" stroke="#03B857" stroke-width="2" stroke-linecap="round" stroke-linejoin="round"/>
<path d="M39.7084 69.6917L40.182 69.807L40.8924 69.9511L41.2032 70.16L41.4918 70.2681L41.625 70.5706L42.7128 72.3644L43.2234 74.0646L42.8386 75.1164L41.8248 75.7647H40.4262L39.0276 75.5054L38.6428 74.9795L37.5032 74.8498L36.2304 75.1164L34.9576 75.9016L34.0696 76.8165L33.3074 76.9462L32.2936 76.6869L29.8812 77.0831L30.895 75.6351L32.4194 73.8052L33.4332 72.2348L33.9438 70.3977L34.9576 69.49L35.9788 69.3531L37.629 69.49L39.7084 69.6917Z" fill="#03B857" stroke="#03B857" stroke-width="2" stroke-linecap="round" stroke-linejoin="round"/>
<path d="M16.8572 43.5195L17.5528 44.3191L17.6786 45.6087L18.315 46.7685L19.5878 47.7987L20.6016 48.3174L20.7274 49.2179L21.6154 50.2553L22.6366 50.5146L23.1472 51.4151L23.014 52.4525L23.6504 55.0459L24.0352 56.0833H24.9232L26.0628 55.9537L26.9582 56.0833L27.084 56.8614L26.5734 57.3801L26.6992 58.1581L27.4614 58.9361L27.935 60.0599L27.8536 60.1536L27.787 60.2545L27.7426 60.3697L27.713 60.4706L27.7056 60.5714L27.7278 60.7659V60.8596L27.7056 60.9532L27.5428 61.3279L27.5206 61.4287L27.4984 61.6232L27.454 61.7169L27.1654 62.005L27.1062 62.0843L27.0322 62.2644L26.899 62.7687L26.8694 62.9776L26.825 63.0784L26.7732 63.1721L26.7066 63.2729L26.4476 63.5539L26.381 63.6692L26.3514 63.7916L26.3366 63.9069L26.3736 64.2455L26.3588 64.3463L26.2996 64.4328L25.9148 64.721L25.8186 64.7066L25.419 64.5841L25.2932 64.5553L25.1156 64.6273H25.0416L24.901 64.5048L24.7974 64.4472L24.679 64.404L24.531 64.368L24.4274 64.3896L24.346 64.44L24.198 64.5841L24.1388 64.6633L24.0574 64.8434L24.0204 64.9083L23.9316 65.0163L23.7244 65.0523L23.5246 65.2541L23.4284 65.2901L23.3322 65.2829L23.2656 65.2108L23.2212 65.1244L23.1842 65.0307L23.1324 64.9515L23.0436 64.8794L22.8438 64.7858H22.7402L22.6662 64.8074L22.6144 64.8794L22.5404 64.9443L22.3332 65.074L22.1926 65.1388L22.0594 65.1172L21.1566 64.7282L21.053 64.6705L20.8976 64.5409L20.7866 64.4616L20.646 64.3824L20.3944 64.2887L20.2464 64.2599L20.1058 64.2527L19.721 64.4328L19.5286 64.5481L19.388 64.5913L19.2992 64.5625L19.2178 64.4904L19.1438 64.3968L19.0328 64.3175L18.7146 64.1735L18.4778 64.0006L18.389 64.0222L18.315 64.0798L18.241 64.1518L18.1078 64.2527L18.0634 64.2959L17.9376 64.44L17.7896 64.5841L17.6638 64.7498L17.575 64.8362L17.4418 64.9227L17.1902 64.9947L16.9238 65.1316L16.5242 65.463L16.4576 65.5422L16.2874 65.8088L16.243 65.9024L16.2356 66.0033L16.2726 66.0897L16.3244 66.1762L16.6944 66.6877L16.7314 66.7813L16.7832 66.9686L16.8276 67.0551L17.057 67.4009L17.1088 67.4945L17.1458 67.6026L17.3604 68.5895L17.4344 68.7768L17.4418 68.9857L17.4714 69.0866L17.5158 69.1803L17.6564 69.3387L17.7008 69.4252L17.7156 69.5333L17.6786 69.6629L17.6934 69.7638L17.8266 70.0375L18.0412 70.232L18.13 70.3473L18.167 70.4338L18.2336 70.7795L18.2262 70.9236L18.1892 71.0893L18.0782 71.3126L18.0264 71.4639L18.019 71.5936L18.0412 71.6873L18.0782 71.7665L18.1226 71.8025L18.2706 71.8674L18.3224 71.9466L18.3668 72.0403L18.389 72.1627L18.4556 72.35L18.5592 72.8471L18.5962 72.948L18.648 73.0488L18.685 73.1569L18.6924 73.2865L18.648 73.445L18.5814 73.5747L18.4704 73.7404L18.4408 73.8701L18.4556 73.9709L18.4852 74.0574L18.5592 74.1871L18.6924 74.3239L19.129 74.6265L19.203 74.7057L19.2548 74.785V74.9075L19.1882 74.9723L19.0846 75.0155L18.8774 75.0227L18.648 75.0659L18.4926 75.1524L18.3742 75.1596L18.278 75.138L18.1966 75.0948L17.9302 75.0227L17.7304 74.9435L17.6194 74.9363L17.5084 74.9651L17.3826 75.0083L17.242 75.0948L17.1532 75.21L17.0718 75.3829L16.9534 75.4982L16.8276 75.563L16.4872 75.6567L16.3688 75.6639L16.2504 75.6423L16.021 75.5774L15.9174 75.527L15.7324 75.4117L15.4364 75.2893H15.3254L15.133 75.3397L15.0442 75.3325L14.8666 75.2316L14.6964 75.246H14.5706L14.3412 75.1956L14.06 75.2316L13.9268 75.2244L13.69 75.1668L13.5938 75.1164L13.5198 75.0443L13.1054 74.4464L12.9722 74.2951L12.8982 74.2447L12.7576 74.1798L12.6688 74.1582L12.5726 74.151H12.4542L12.3358 74.1654L12.1212 74.2375L12.0176 74.2591H11.9288L11.7142 74.2087L11.3664 74.1654L10.9446 74.007L10.7152 73.9637L10.508 73.7044L10.3304 73.3658L10.2638 73.0056L10.3304 72.4005L10.471 72.0763V71.4351L10.4044 71.291L10.4266 71.219L10.5154 71.1325L10.5376 71.0749L10.6042 70.8156L10.6116 70.7147L10.5672 70.3905L10.323 69.6629L9.84198 68.3734L9.11678 67.3864L8.45818 66.4571L8.37678 66.1474V64.0798L7.98458 62.0627L7.96978 61.3783L8.26578 60.0888L8.31758 59.6277L8.26578 59.4764L8.02158 59.2531L7.88098 58.7776L7.23718 57.8915L7.17798 57.6394L7.18538 57.3224L7.27418 56.6813L7.37778 56.3787L7.89578 55.5502L8.08078 55.118L8.13998 55.0892L8.25838 55.1468L8.32498 55.0748L8.42118 54.7722L9.19078 53.5979L9.36098 53.425L9.43498 53.281L9.46458 53.1297L9.49418 52.6398L9.77538 52.647L10.027 52.258L10.3674 51.3647L10.4414 51.2566L10.7152 50.9757L10.7744 50.8892L10.8558 50.6587L10.9298 50.5506L11.0926 50.3705L11.2184 50.176L11.4108 49.7438L11.6772 49.362L12.0324 48.9802L12.321 48.5767L12.4172 48.1157L12.358 47.914L12.1804 47.4745L12.136 47.2584L12.1878 47.0134L12.2988 46.8982L12.4098 46.9486L12.4172 47.2008L12.58 46.9342L12.654 46.646V46.3579L12.5578 46.0769L12.173 45.5078L12.0176 45.198L11.9954 44.8666L12.0398 44.737L12.1212 44.5929L12.2174 44.4488L12.3062 44.348L12.3802 44.2327L12.4024 44.0958L12.432 43.5195L12.469 43.3754L12.5504 43.2818L12.7206 43.2385H13.0536L13.4014 43.1809L15.614 43.3898L15.8878 43.325L16.0136 43.3394L16.2578 43.5339L16.4354 43.6348L16.6204 43.6852L16.761 43.6348L16.8572 43.5195Z" fill="#03B857" stroke="#03B857" stroke-width="2" stroke-linecap="round" stroke-linejoin="round"/>
<path d="M23.9316 65.0164L24.0944 65.0812L24.1758 65.1605L24.4644 65.6071L24.5088 65.7224V65.8016L24.3978 65.9169L24.3682 65.9601L24.3312 66.0682L24.3386 66.414L24.4792 67.6603L24.4126 68.2006L24.383 68.2798L24.309 68.3518L24.1314 68.4671L24.0574 68.5391L23.976 68.676L23.9094 68.7553L23.7688 68.8345L23.6948 68.9066L23.5838 69.0867L23.4136 69.2812L23.2286 69.4324L23.1768 69.5117L23.162 69.5837V69.6486L23.199 69.7494L23.2286 69.8719L23.273 70.3834L23.3322 70.6139L23.3544 70.6643L23.421 70.9597L23.4136 71.0389L23.3988 71.111L23.2804 71.3127L23.236 71.4064L23.1916 71.5792V71.6657L23.2212 71.7233L23.273 71.7449L23.4432 71.8026L23.4876 71.8314L23.5616 71.9034L23.643 72.0403L23.8206 72.5086L23.8428 72.5518L23.9242 72.6238L24.1018 72.7391L24.198 72.8832L24.2572 73.0705L24.3016 73.1497L24.3534 73.2074L24.5828 73.2866L24.6346 73.3226L24.6938 73.4019L24.7012 73.4739L24.6938 73.5315L24.6494 73.6468L24.6272 73.7261L24.605 73.8557L24.6198 73.935L24.6494 73.9926L24.753 74.1079L24.8788 74.2736L24.975 74.4681L25.0638 74.5905L25.271 74.7562L25.3672 74.8787L25.4412 74.9507L25.5374 75.0012L25.5892 75.0084L25.7002 74.9796L25.8334 74.9003L25.937 74.8499L26.0998 74.7995H26.2256L26.2996 74.8643L26.3218 74.9363L26.3292 75.0516L26.3514 75.1236L26.4402 75.3181L26.4772 75.491L26.5808 75.7864L26.6178 75.9809L26.6252 76.2979L26.5882 76.5572L26.5956 76.8598L26.5808 76.9462L26.5068 77.0183L26.3588 77.0687L26.2996 77.1191L26.2922 77.1696L26.307 77.7387V77.8107L26.2256 78.0052L26.2108 78.1493L26.2182 78.2358L26.2404 78.2934L26.3218 78.4015L26.3588 78.4951L26.455 78.8697L26.677 79.3812L26.6992 79.4965L26.714 79.655L26.7362 79.763L26.7954 79.9936L26.8102 80.0728L26.7732 80.4762L26.7362 80.5843L26.677 80.6779L26.603 80.75L26.5216 80.8148L26.455 80.8869L26.4106 80.9805L26.3958 81.0381L26.3662 81.2326L26.3514 81.2903L26.2996 81.3911L26.048 81.6793L26.0332 81.7729L26.0036 82.0395L25.9666 82.1476L25.8926 82.2916L25.8852 82.3565L25.9 82.4357L25.9592 82.5366L26.011 82.6014L26.1442 82.7095L26.2922 82.7887L26.3662 82.8608L26.3736 82.9184L26.3588 82.9976L26.3218 83.1129L26.307 83.1777L26.3292 83.329L26.3218 83.3867L26.2922 83.4371L26.1664 83.5307L26.0998 83.61L26.0776 83.7397L26.085 83.9342L26.0628 84.1215L26.0776 84.1935L26.1368 84.3088L26.1664 84.388L26.1738 84.4961V84.6546L26.196 84.7338L26.233 84.8491L26.3218 85.0436L26.455 85.5911V85.7928L26.4698 85.8792L26.6474 86.5996L26.6548 86.7005V86.787L26.603 86.9527L26.566 87.0679V87.1904L26.6474 87.6082V87.8099L26.6178 87.9252L26.5216 88.0909L26.492 88.1701L26.4772 88.3646L26.455 88.4871L26.3958 88.6528V88.7465L26.6622 89.8703L26.6992 90.3674L26.6844 90.497L26.6178 90.5691L26.5586 90.5907L26.3588 90.6123L26.307 90.6339L26.27 90.6771L26.2404 90.7924L26.2182 90.9941L26.1812 91.1094L26.122 91.203L26.1072 91.2535L26.0406 91.5632L26.0332 91.7505L26.0258 91.8802L26.0332 91.9739L26.0554 92.1107L26.1294 92.3629L26.1442 92.4925V92.5862L26.1146 92.7087L24.9232 92.9032L23.9094 93.1625L22.6366 94.4881L20.4758 95.2877L19.462 96.4836L18.6998 97.276L17.5528 97.1464L16.9164 96.4836L15.5178 96.3467L15.0146 97.5426V100.201L14.0674 101.634L13.8306 101.757L13.6012 101.93L13.2386 102.023L12.728 102.261L11.951 102.29L11.6106 102.376L11.3072 102.557L11.2184 102.276L11.1666 102.196L11.063 102.132L11.0186 102.146L10.9298 102.304L10.73 102.513L10.6338 102.506L10.471 102.196L10.138 102.002L9.76058 102.023L9.39059 102.168L9.07979 102.348L8.90219 102.513L8.65799 102.852L8.48779 102.917L8.12519 103.003L7.91059 103.039L7.68859 102.989L7.59979 102.931L7.48139 102.816L7.41479 102.773L7.27419 102.729L7.14099 102.715L7.00779 102.686L6.88939 102.593L6.84499 102.499L6.80059 102.261L6.74879 102.16L6.50459 101.901L6.34179 101.606L6.26039 101.418L6.23079 101.281L6.14939 101.13L5.81639 100.864L5.74239 100.619L5.72019 100.374L5.65359 100.208L5.46859 99.8623L5.44639 99.7542L5.43159 99.5309L5.40199 99.4228L5.32799 99.3292L5.04679 99.1203L4.85439 98.8609L4.75079 98.6736L4.70639 98.5079L4.60279 98.371L4.17359 98.1333L4.07739 97.9964L3.98859 97.4489L3.94419 97.312L3.82579 97.1968L3.46319 96.959L3.31519 96.8006V96.7357L3.58899 96.5916L3.72219 96.4043L3.76659 96.3683L4.32899 96.3827L4.71379 96.2747L4.89879 96.3251L5.08379 96.4043L5.26139 96.4404L5.52039 96.3467L5.80899 96.1162L6.05319 95.8352L6.15679 95.5687L6.20859 95.2589L6.57119 94.2647L6.95599 92.2188L7.59979 91.0013L7.80699 90.7924L8.13999 90.7132L8.32499 90.5619L8.87259 89.5533L8.99839 89.1283L9.09459 88.6312L9.23519 88.1629L9.49419 87.8171V87.918L9.51639 87.9828L9.56079 88.1053L9.81239 87.5362L9.95299 87.3561L10.397 87.0103L10.5376 86.8734L10.508 86.5348L10.6042 86.153L11.3442 84.6978L11.5662 84.3664L12.1656 83.7901L12.4098 83.4947L12.6022 83.1633L12.765 82.7743L12.8168 82.4501V81.9963L12.7428 81.6505L12.5578 81.6217L12.469 81.3335L12.4172 81.2543L12.3432 81.2182L12.2026 81.211L12.136 81.1894L11.9954 81.067L11.8622 80.9085L11.7586 80.7212L11.7142 80.5411L11.7586 80.397L11.951 80.0368L12.0324 79.9287L12.1138 79.7774L12.1434 79.6045L12.136 79.2443L12.1064 79.1363L12.0768 79.0426L12.0472 78.9418L12.062 78.8193L12.1138 78.7761L12.2914 78.668L12.3506 78.6032L12.4024 78.4015L12.4246 78.243L12.506 78.1349L12.728 78.0917L12.8612 77.9116L12.8242 77.501L12.617 76.8022L12.469 76.4708L12.2692 76.161L11.7882 75.7072L11.7142 75.5847L11.6402 75.2389L11.4478 74.9003L10.7152 73.9638L10.9446 74.007L11.3664 74.1655L11.7142 74.2087L11.9288 74.2592H12.0176L12.1212 74.2375L12.3358 74.1655L12.4542 74.1511H12.5726L12.6688 74.1583L12.7576 74.1799L12.8982 74.2447L12.9722 74.2952L13.1054 74.4465L13.5198 75.0444L13.5938 75.1164L13.69 75.1669L13.9268 75.2245L14.06 75.2317L14.3412 75.1957L14.5706 75.2461H14.6964L14.8666 75.2317L15.0442 75.3325L15.133 75.3398L15.3254 75.2893H15.4364L15.7324 75.4118L15.9174 75.5271L16.021 75.5775L16.2504 75.6423L16.3688 75.6639L16.4872 75.6567L16.8276 75.5631L16.9534 75.4982L17.0718 75.383L17.1532 75.2101L17.242 75.0948L17.3826 75.0084L17.5084 74.9651L17.6194 74.9363L17.7304 74.9435L17.9302 75.0228L18.1966 75.0948L18.278 75.138L18.3742 75.1597L18.4926 75.1524L18.648 75.066L18.8774 75.0228L19.0846 75.0156L19.1882 74.9723L19.2548 74.9075V74.785L19.203 74.7058L19.129 74.6266L18.6924 74.324L18.5592 74.1871L18.4852 74.0574L18.4556 73.971L18.4408 73.8701L18.4704 73.7405L18.5814 73.5748L18.648 73.4451L18.6924 73.2866L18.685 73.1569L18.648 73.0489L18.5962 72.948L18.5592 72.8472L18.4556 72.3501L18.389 72.1628L18.3668 72.0403L18.3224 71.9467L18.2706 71.8674L18.1226 71.8026L18.0782 71.7666L18.0412 71.6873L18.019 71.5937L18.0264 71.464L18.0782 71.3127L18.1892 71.0894L18.2262 70.9237L18.2336 70.7796L18.167 70.4338L18.13 70.3474L18.0412 70.2321L17.8266 70.0376L17.6934 69.7638L17.6786 69.663L17.7156 69.5333L17.7008 69.4252L17.6564 69.3388L17.5158 69.1803L17.4714 69.0867L17.4418 68.9858L17.4344 68.7769L17.3604 68.5896L17.1458 67.6026L17.1088 67.4946L17.057 67.4009L16.8276 67.0551L16.7832 66.9687L16.7314 66.7814L16.6944 66.6877L16.3244 66.1762L16.2726 66.0898L16.2356 66.0033L16.243 65.9025L16.2874 65.8088L16.4576 65.5423L16.5242 65.463L16.9238 65.1316L17.1902 64.9948L17.4418 64.9227L17.575 64.8363L17.6638 64.7498L17.7896 64.5841L17.9376 64.4401L18.0634 64.296L18.1078 64.2528L18.241 64.1519L18.315 64.0799L18.389 64.0222L18.4778 64.0006L18.7146 64.1735L19.0328 64.3176L19.1438 64.3968L19.2178 64.4905L19.2992 64.5625L19.388 64.5913L19.5286 64.5481L19.721 64.4329L20.1058 64.2528L20.2464 64.26L20.3944 64.2888L20.646 64.3824L20.7866 64.4617L20.8976 64.5409L21.053 64.6706L21.1566 64.7282L22.0594 65.1172L22.1926 65.1388L22.3332 65.074L22.5404 64.9443L22.6144 64.8795L22.6662 64.8075L22.7402 64.7858H22.8438L23.0436 64.8795L23.1324 64.9515L23.1842 65.0308L23.2212 65.1244L23.2656 65.2109L23.3322 65.2829L23.4284 65.2901L23.5246 65.2541L23.7244 65.0524L23.9316 65.0164Z" fill="#03B857" stroke="#03B857" stroke-width="2" stroke-linecap="round" stroke-linejoin="round"/>
<path d="M70.1224 40.5371L70.0558 40.4867L69.6562 39.2908L69.634 39.1035L69.6118 39.0242L69.5748 38.9378L69.486 38.8081L69.4268 38.7073L69.375 38.5632L69.338 38.3975L69.301 38.0805L69.1678 37.6699L69.005 37.2809L68.9902 37.1368L69.0938 36.7406L69.1012 36.6757L69.0864 36.4164L69.1086 36.2939L69.301 35.8401L69.3232 35.7248V35.66L69.2714 35.5591L68.9088 35.0188L68.857 34.9179L68.8496 34.7955L68.857 34.6658L68.9014 34.4281L68.9236 34.3776L69.0346 34.2047L69.0642 34.0967L69.0124 33.9958L68.931 33.8734L68.7238 33.6284L68.6572 33.5132L68.6424 33.4267L68.709 33.3547L68.7756 33.2898L68.8422 33.2538L69.1012 33.1457L69.1826 33.0881L69.2344 33.0017V32.944L69.2048 32.8864L68.5314 32.0291L68.339 31.6473L68.228 31.5465L68.117 31.5032L68.0208 31.5176L67.9616 31.5465L67.8136 31.6257L67.7544 31.6473L67.6434 31.6401L67.1476 31.5465L66.9922 31.532L66.8886 31.5392L66.8368 31.5681L66.008 31.8922L65.9562 31.9067L65.86 31.8562L65.7416 31.7338L65.5122 31.424L65.4234 31.2727L65.2236 31.0422L64.6168 30.5163L64.5132 30.1633L64.4392 30.0336L63.9508 29.3852L63.8546 29.3348L63.7658 29.2916L63.6548 29.2196L63.5512 29.1259L63.4698 28.9962L63.2774 28.4919L63.2626 28.3911L63.2996 28.2326L63.2848 28.1245L62.9148 27.3105L62.8556 27.2096L62.7594 27.1016L62.567 26.8494L62.3968 26.6981L62.3672 26.6477V26.5901L62.3894 26.5396L62.4708 26.4028L62.5448 26.3379L62.6706 26.2515L62.7224 26.1434V26.0498L62.6632 25.9417L62.4782 25.776L62.3302 25.704L62.2858 25.6752L62.1748 25.5815L62.0268 25.5095L61.8714 25.4446L61.6642 25.2645L61.4718 25.0268L61.346 24.7819L61.272 24.6954L60.976 24.4937L60.6208 24.1335L60.3396 23.939L60.2952 23.867L60.236 23.7589L60.1842 23.6941L60.051 23.5716L60.0214 23.5212L59.8956 23.1177L59.8216 22.952L59.755 22.9016L59.7032 22.8944L59.6514 22.9088L60.5024 22.0083L61.013 20.3442L62.0268 20.092L62.1526 19.1987L62.4042 18.4351L62.9148 16.3964L62.2784 14.3648L62.9148 13.7309L63.0406 11.9515L63.5512 11.0582L63.4254 10.2946L62.6632 10.1721L63.2996 9.27879L64.1876 8.3927L65.12 7.46338L65.2976 7.66509L65.379 7.83799L65.4012 7.96766L65.4974 8.18378L65.5196 8.29905L65.4974 8.42872L65.3642 8.65204L65.3124 8.78172L65.4012 8.73129L65.4974 8.71688L65.5788 8.73129L65.6602 8.78172L65.7194 8.66645L65.786 8.58L65.8452 8.48635L65.897 8.2126L65.971 8.12615L66.082 8.10454L66.2226 8.15497L66.1412 8.29905L66.2818 8.32786L66.415 8.3999L66.5408 8.48635L66.7924 8.71688L66.8368 8.78172L66.7924 9.03386L66.8072 9.12751L66.933 9.40126L67.0292 9.50212L67.155 9.54534L67.2956 9.53814L67.4362 9.54534L67.5324 9.62459L67.5398 9.83351L67.4732 9.88393L67.3548 9.91275L67.3178 9.99199L67.4658 10.1721L67.6064 10.2441L67.7396 10.2874L67.8432 10.3738L67.8876 10.5827L67.9394 10.7268L68.1762 11.0006L68.228 11.1014L68.2502 11.6417L68.1614 12.463L68.1688 12.6143L68.2206 12.8232L68.228 12.9817L68.265 13.1113L68.5388 13.5076L68.5758 13.6805L68.5388 14.1199L68.5832 14.2712L68.7164 14.3504L68.8422 14.3144L68.9532 14.2568L69.0568 14.2712L69.1456 14.4153L69.1382 14.5954L69.0568 14.934L69.079 15.2077L69.227 15.7984L69.3454 16.0794L69.3898 16.1298L69.5082 16.2235L69.5526 16.2811L69.5674 16.3604L69.5452 16.5405L69.5526 16.6269L69.5896 16.8358L69.6488 16.9511L69.7154 16.9799L69.819 17.0015L69.8338 17.0952L69.8634 17.16L69.8856 17.2681L69.8042 17.6139L69.8634 17.7796L69.9374 17.8948L70.1742 18.3703L70.263 18.7089L70.374 20.7404L70.5738 21.4968L70.6034 21.785L70.596 22.1524L70.4998 22.4334L70.4702 22.6135L70.4554 22.9737L70.4776 23.1898L70.5516 23.305L70.8032 23.5356L70.9734 23.8381L70.9808 24.1335L70.855 24.9187L70.7588 25.2285L70.7366 25.387L70.7514 25.5671L70.8772 26.057L70.9512 27.188L71.2324 27.7427L71.2546 28.1101L71.1732 28.4415L70.9438 28.5712L71.0326 28.6937L71.3064 28.8305L71.4248 28.917L71.5062 29.0467L71.5728 29.2268L71.6912 29.8823L72.4164 31.4528L72.6014 31.7338L73.0972 32.3245L73.2008 32.4902L73.2822 32.836L73.3858 32.944L73.519 33.0161L73.6522 33.1097L73.7854 33.3619L73.8668 33.6933L73.926 34.3488L73.9186 34.4137L73.8594 34.5793L73.7632 34.7378L73.7558 34.8027L73.778 34.8819L73.7928 34.9828L73.778 35.0548L73.6818 35.2998L73.667 35.4006L73.7114 35.5879L73.7188 35.6528L73.6744 35.7392L73.5486 35.8617L73.5116 35.9265L73.4376 36.2867L73.26 36.7982L73.2378 36.9855L73.1712 37.2665L72.2758 38.9378L72.1944 39.2332L72.298 39.2908L72.2314 39.4277L71.4988 40.357L71.262 40.9405L71.151 41.0702L70.9882 41.1062L70.8254 41.0846L70.67 41.0918L70.522 41.2071L70.3148 40.7028L70.1446 40.5371H70.1224Z" fill="#03B857" stroke="#03B857" stroke-width="2" stroke-linecap="round" stroke-linejoin="round"/>
<path d="M59.6514 22.9088L59.7032 22.8944L59.755 22.9016L59.8216 22.9521L59.8956 23.1178L60.0214 23.5212L60.051 23.5716L60.1842 23.6941L60.236 23.7589L60.2952 23.867L60.3396 23.939L60.6208 24.1335L60.976 24.4937L61.272 24.6954L61.346 24.7819L61.4718 25.0268L61.6642 25.2646L61.8714 25.4447L62.0268 25.5095L62.1748 25.5815L62.2858 25.6752L62.3302 25.704L62.4782 25.776L62.6632 25.9417L62.7224 26.0498V26.1434L62.6706 26.2515L62.5448 26.338L62.4708 26.4028L62.3894 26.5397L62.3672 26.5901V26.6477L62.3968 26.6982L62.567 26.8494L62.7594 27.1016L62.8556 27.2096L62.9148 27.3105L63.2848 28.1246L63.2996 28.2326L63.2626 28.3911L63.2774 28.492L63.4698 28.9962L63.5512 29.1259L63.6548 29.2196L63.7658 29.2916L63.8546 29.3348L63.9508 29.3853L64.4392 30.0336L64.5132 30.1633L64.6168 30.5163L64.5428 30.5091L64.3948 30.5595L64.3134 30.6172L64.1358 30.8693L64.0692 30.9269L64.0026 30.9557H63.936L63.8176 30.9269L63.7436 30.8909L63.5142 30.7324L63.418 30.6964L63.3662 30.718L63.3292 30.7756L63.307 30.8837V31.035L63.3736 31.2583L63.381 31.388L63.3662 31.5105L63.3514 31.5681L63.2626 31.7986L63.2478 31.8707L63.2552 31.9859L63.2996 32.1012L63.3144 32.2885L63.2922 32.4758L63.2256 32.5983L63.1368 32.6487L63.0702 32.6775L62.9962 32.6919H62.863L62.7446 32.6631L62.5892 32.6055L62.4782 32.5983L62.4338 32.6271L62.4042 32.6775L62.3968 32.764L62.4042 32.9008L62.4264 32.9441L62.5078 33.0737L62.53 33.189L62.5226 33.3187L62.4856 33.4195L62.4042 33.5348L62.3302 33.5924L62.2636 33.6068L62.197 33.5996L62.0342 33.5492H61.975L61.8714 33.578L61.7308 33.7077L61.568 33.7797L61.2868 33.9598L61.198 33.9814H61.124L60.9908 33.967L60.8724 33.9814L60.7688 34.0247L60.6726 34.0751L60.5838 34.1687L60.5246 34.248L60.4358 34.3416L60.3322 34.3849L60.1176 34.4497L59.829 34.5938L59.7106 34.6226L59.533 34.601L59.4146 34.6154L59.3036 34.6442L59.0372 34.673L58.9262 34.7018L58.8744 34.7451L58.8374 34.8099L58.8078 34.954V35.0404L58.83 35.1053L58.8818 35.1989L58.8966 35.2493L58.9114 35.379L58.9336 35.4943L59.015 35.624L59.1038 35.6816L59.2148 35.7104L59.348 35.7032L59.4516 35.6816H59.5034L59.6366 35.7608L59.7402 35.7752L59.8364 35.7464H59.8734L59.903 35.8257L59.8808 35.8977L59.8364 35.9842L59.7254 36.121L59.5626 36.2651L59.496 36.3876L59.4812 36.5245L59.496 36.5965L59.5552 36.7622L59.5626 36.8847L59.385 38.1382L59.2592 38.5848L59.2444 38.7073L59.2518 38.8369L59.2888 38.9378L59.4146 39.0963L59.4738 39.1899L59.5626 39.3845L59.6292 39.6006L59.7476 40.1913L59.755 40.3138L59.7476 40.3858L59.7254 40.4723L59.5922 40.7316L59.4516 40.9189L59.2 41.1783L59.1408 41.2575L59.0668 41.4088L58.9632 41.7042L58.8744 42.0932L58.7338 42.4174L58.719 42.5038L58.7338 42.5686L58.8152 42.6335L59.7624 43.0657L60.0732 43.1161L60.4728 43.1378L60.5912 43.1594L60.7022 43.2026L60.7762 43.2746L60.7984 43.3179L60.8132 43.4403L60.7984 43.5628L60.8058 43.6132L60.8724 43.7573L60.8946 43.8726L60.8724 43.9662L60.828 44.0887L60.2212 45.1693L60.1768 45.2846L60.162 45.3998L60.1176 45.5223L59.9622 45.7528L59.7624 45.9041L59.3628 46.1058L59.2444 46.1274L59.1852 46.1346L59.1186 46.1634L59.0668 46.2139L59.0298 46.3435L59.0224 46.43L59.0298 46.5669L59.0002 46.6677L58.9484 46.783L58.8226 46.9919L58.719 47.2441L58.6746 47.3161L58.5932 47.4025L58.497 47.4746L58.386 47.6043L58.349 47.7051L58.3564 47.8348L58.4156 47.9284L58.5118 48.0437L58.534 48.0869L58.5266 48.1446L58.4896 48.195L58.4008 48.2382L58.3268 48.267L57.831 48.3535L57.7052 48.3319L57.498 48.2526L57.4388 48.2454L57.2612 48.2742H57.0836L56.9726 48.3175L56.1142 48.901L55.9218 49.0739L55.8404 49.1387L55.7072 49.218L55.5888 49.2324L55.537 49.218L55.4482 49.1531L55.1226 48.6777L55.0338 48.4903L54.9968 48.3823L54.9746 48.2598L54.982 48.0653L55.0116 47.95L55.056 47.8492L55.2188 47.5826L55.2632 47.4746L55.278 47.3593L55.241 47.2585L55.13 47.1576L55.0708 47.0712L55.0412 46.9631L55.056 46.855L55.0338 46.6029L55.019 46.5453L54.9154 46.358L54.8932 46.2067L54.8414 46.1346L54.7082 46.0482L54.6786 46.005L54.649 45.8897L54.6194 45.8465L54.5528 45.7744L54.3826 45.6592L54.1828 45.5583L53.9608 45.4935L53.8572 45.443L53.6796 45.335L53.3984 44.9676L53.2874 44.8667L53.206 44.8091L53.1024 44.7875L52.8656 44.8307H52.6732L52.577 44.8595H52.5326L52.4808 44.7731L52.466 44.5786L52.4512 44.5209L52.3624 44.4633L52.1774 44.4273L52.0812 44.3841L52.0072 44.312L51.874 44.2256L51.8296 44.1967L51.6742 43.995L51.5632 43.8942L51.467 43.8438L51.4152 43.8365L51.3042 43.8582H51.1784L51.0008 43.8293L50.5124 43.9158L50.4606 43.9374L50.32 44.0094L50.2608 44.0311L50.0832 44.0671L49.9278 44.1247L49.8094 44.1463L49.5578 44.1319L49.4468 44.0959L49.3062 44.0238H49.062L48.9436 43.995L48.8474 43.9518L48.7364 43.9446L48.6772 43.9518L48.5514 44.0238L48.47 44.0166L48.3368 43.9518L48.2924 43.9734L48.2702 44.0311V44.1535L48.2628 44.2256L48.2332 44.2976L48.1518 44.3769L48.026 44.4633L47.952 44.5353L47.8928 44.6218L47.8262 44.7659L47.8114 44.9316L47.8854 45.2846L47.9002 45.4142V45.5079L47.8188 46.1274L47.7966 46.1923L47.73 46.3508L47.7152 46.4156L47.6856 46.6605L46.1464 46.2499L45.251 45.8609L44.7478 45.4791H43.6008L41.8248 44.4417L41.699 43.5412L41.0626 42.6407L40.3004 41.4808L39.9156 39.298L39.5382 37.6267L39.886 35.6888L40.2116 35.7968L40.5816 35.66L40.737 35.5519L40.774 35.3718L40.7296 35.307L40.5816 35.2854L40.4928 35.2638L40.4114 35.2133L40.3744 35.1629L40.2042 34.8603L40.0636 34.2048V34.1399L40.034 34.1111L39.9008 34.1039L39.812 34.1183L39.516 34.248L39.4938 34.1183L39.5012 34.003L39.6048 33.7581L39.4642 33.7725H39.3532L39.2792 33.7221L39.2126 33.5132L39.0424 33.4195L38.9758 33.3259L38.9536 33.0953L39.0424 32.8792L39.3162 32.4974L39.6566 32.202L40.0932 31.9211L40.4706 31.5969L40.6926 30.9918L40.8332 30.8045L41.3438 30.3362L41.5584 30.2137L41.7878 30.1345L42.0246 30.1129L42.1578 29.9976L42.1874 29.7599L42.1208 29.551L41.958 29.5149L41.847 29.6086L41.7878 29.7743L41.6694 29.8319L41.514 29.8391L41.4178 29.7815L41.2624 29.551H41.329L41.6324 29.0755L42.8978 27.7644L43.0384 27.6563L43.105 27.6995L43.142 27.8148L43.2086 27.9373L43.4158 28.1678L43.4306 28.2758L43.3862 28.9026L43.4232 29.0539L43.4676 29.0971L43.5342 29.1187L43.6008 29.1691L43.6304 29.27L43.6008 29.2988L43.4898 29.551L42.9126 30.2209L42.7572 30.4587L42.6536 30.7612L42.55 32.0147L42.5796 32.1372L42.7276 32.2164L42.846 32.1948L43.179 32.0147L43.2752 31.9355L43.4602 31.6617L43.5564 31.3736L43.6896 31.0998L43.9782 30.8765L44.0892 30.9629L44.1262 30.8693L44.1188 30.6027L44.1706 30.4371L44.8958 29.0755L44.955 28.7801L44.9994 28.6505L45.325 28.3191L45.3546 28.2398V28.0525L45.3916 27.9733L45.473 27.9156L45.6432 27.8364L45.7024 27.7932L45.9318 27.5338L46.0206 27.3897L46.0576 27.2457L46.1316 27.0872L46.2796 27.0079L46.4276 26.9071L46.472 26.6838L46.9012 27.2745L47.101 27.4474L47.2342 27.4978L47.5524 27.5843L47.6634 27.6635L47.7152 27.786L47.7004 28.0237L47.7226 28.1534L47.8706 27.9877L47.8854 27.7644L47.7966 27.5554L47.6634 27.4474L47.9446 27.2241L48.211 27.2601L48.4108 27.469L48.4922 27.8004L48.4774 28.492L48.5292 28.6865L48.6994 28.4271L48.7586 28.1318L48.7512 27.7067L48.6624 27.3393L48.4552 27.1736L48.322 27.1304L48.1962 27.0223L47.9668 26.7918L47.7818 26.691L47.6264 26.7126L47.3082 26.8927L47.175 26.9503L47.0418 26.9719L46.9086 26.9431L46.7532 26.8206L46.6718 26.6765L46.6052 26.5325L46.5386 26.4748L46.25 26.8639L46.1242 26.9863L46.0206 27.0367L45.9614 26.9575L45.7468 26.5901L45.7024 26.4748L45.7246 26.4316L45.8282 26.3308L45.8504 26.2659L45.8282 26.1651L45.7394 26.057L45.5692 25.704L45.5766 25.6464L45.6358 25.5815L45.5174 25.4951L45.5026 25.4663L45.5174 25.0268L45.584 24.681L45.7098 24.3568L45.917 24.0975L46.1612 23.9534L46.2352 23.8742L46.2648 23.7085L46.2722 23.4059L46.3166 23.2979L46.4054 23.1898L46.6496 23.1178L47.1158 23.4491L47.4488 23.4275L47.582 23.3987L47.7892 23.4203L47.8706 23.3987L47.9594 23.2834L48.0186 23.1178L48.063 22.9449L48.0778 22.8008L48.0408 22.5702L47.9372 22.2893L47.7818 22.0444L47.582 21.9291L47.7152 21.7922L47.9372 21.8498L48.3516 22.1452L48.5218 22.2173L48.6032 22.2677L48.6698 22.3469L48.6772 22.4766L48.618 22.5775L48.5292 22.6711L48.4922 22.8008L48.4552 23.0601L48.3072 23.586L48.2776 23.8526V23.9462L48.2924 24.1047L48.3516 24.2272L48.4922 24.2344L48.5588 24.1479L48.5662 24.0327L48.5514 23.9174L48.5588 23.8238L48.6402 23.7589L48.766 23.6797L48.8696 23.586V23.4996L48.7956 23.4059L48.7142 23.2907L48.655 23.1682L48.6328 23.0457L48.7068 22.8224L48.9806 22.4622L49.0472 22.2389V22.0083L49.0176 21.7706L48.9288 21.5905L48.8474 21.5617L49.0324 21.4032L49.0546 21.36L49.0472 21.3095L48.9436 21.1511V21.1006L48.9732 21.0646L49.1952 21.007L49.284 20.9565L49.358 20.8701L49.3654 20.7692L49.3062 20.5603L49.3136 20.5027L49.3802 20.4379L49.7798 20.265L49.8168 20.2361L50.0166 20.0705L50.1054 20.02L50.4976 19.8471L50.838 19.6094L50.9786 19.5446H51.0304L51.0822 19.5662L51.1044 19.6526V19.7175L51.06 19.8183L51.0008 19.9048L50.838 20.0921L50.8084 20.1353L50.69 20.301L50.4458 20.4811L50.394 20.5747L50.3422 20.8053V20.9277L50.3718 21.0574L50.4088 21.1078L50.468 21.1439L50.5864 21.1583L50.653 21.1439L50.7122 21.115L50.8084 21.007L50.8528 20.9926L50.912 21.0142L51.0378 21.1511L51.2968 21.4896L51.3634 21.5329L51.7482 21.7418L51.8074 21.785L51.985 21.9363L52.1034 22.0155L52.3476 22.138L52.4734 22.174L52.5696 22.1812L52.6214 22.1668L52.7768 22.1092L53.0284 22.0732L53.1912 22.0227L53.4798 21.8859L53.5686 21.8282L53.687 21.7346L53.7758 21.6769L53.8276 21.6625L53.9164 21.6986L54.0274 21.785L54.4122 22.21L54.4714 22.2533L54.5898 22.3109L54.908 22.4118L54.9672 22.4478L55.5962 22.9232L55.6998 22.9737L55.7664 22.9809L55.8774 22.9521L56.0328 22.8944L56.092 22.8872L56.277 22.88L56.3214 22.8584L56.4028 22.7936L56.4546 22.772L56.5138 22.7864L56.5878 22.8368L56.8024 23.161L56.832 23.2186L56.8542 23.3411L56.9134 23.4131L56.98 23.4059L57.0244 23.3771L57.0836 23.2907L57.1576 23.2186L57.424 23.0529L57.6238 22.9809L57.7126 22.916L57.979 22.5414L58.016 22.5126L58.1122 22.4622L58.2306 22.4406L58.3786 22.3757H58.4452L58.5192 22.4046L58.6302 22.4838L58.756 22.5342L58.941 22.5558L59.0668 22.5991L59.607 22.9016L59.6514 22.9088Z" fill="#03B857" stroke="#03B857" stroke-width="2" stroke-linecap="round" stroke-linejoin="round"/>
<path d="M47.2638 78.6537V78.7257L47.249 78.805L47.212 78.8986L47.0936 79.0571L47.0566 79.1291L47.0492 79.2516L47.064 79.8928L47.0862 80.008L47.1306 80.1953V80.2602L47.101 80.5195L47.0048 80.7716L46.694 81.2903L46.62 81.3696L46.4646 81.5065L46.2944 81.6289L46.2204 81.701L46.1316 81.8306L46.0872 81.9747L46.0946 82.3349L46.0724 82.4286L46.0354 82.5438L45.7542 83.0337L45.7098 83.2138L45.6654 83.7037L45.6358 83.6389L45.5766 83.574L45.473 83.5236L45.2362 83.4804L45.1178 83.4299L45.0734 83.3435L45.103 83.2498L45.2066 83.1346L45.214 83.0841L45.1992 83.0337L45.1622 82.9977L45.103 82.9833L44.9994 83.0049L44.9328 83.0337L44.8884 83.0769L44.7478 83.2282L44.6516 83.2787L44.3334 83.3291L44.2298 83.3723L43.7192 83.6677L43.6674 83.6749L43.6082 83.6605L43.5638 83.6028L43.512 83.4948L43.438 83.4227L43.3788 83.4011H43.3122L43.216 83.4371L43.1642 83.4804L43.1124 83.5884L43.0458 83.6677L42.9718 83.6821L42.8682 83.6749L42.2392 83.5092L42.1874 83.4876L42.0616 83.3867L41.9506 83.3435H41.8766L41.7582 83.3651L41.5658 83.4227L41.4992 83.466L41.3512 83.6533L41.3142 83.6893L41.2624 83.7109L41.1884 83.6893L41.1144 83.6317L41.0108 83.4732L40.9664 83.4444L40.9072 83.4371L40.8406 83.4588L40.7444 83.5308L40.6112 83.6172L40.5002 83.7253L40.441 83.819L40.4262 83.8766L40.4188 84.0711L40.367 84.3809L40.3596 84.4385L40.3004 84.4817L40.2116 84.4961H40.0266L39.8564 84.5322L39.6566 84.6258L39.5752 84.6402L39.109 84.6618L38.8056 84.7915L38.7316 84.8059L38.6502 84.7915L38.4578 84.7051L38.3468 84.633L38.2358 84.597L38.1396 84.6114L38.073 84.6402L37.9398 84.7339L37.9102 84.7771L37.814 84.9068L37.5032 85.2526L37.2738 85.4615L37.2072 85.5479L37.1258 85.6128L37.0666 85.6416L36.815 85.656L36.7188 85.6776L36.5486 85.7857L36.3488 85.8577L36.1564 85.764L35.9788 85.6344L35.8382 85.6776L35.668 85.7785L35.4238 85.8001L35.2018 85.7352L34.521 85.3966L34.3582 85.4327L34.188 85.6128L33.9956 85.7712L33.7588 85.764L33.6848 85.692L33.5738 85.5407L33.485 85.5119L33.3592 85.5047L33.1668 85.4687L32.9596 85.3894L32.8708 85.339L32.782 85.303L32.6562 85.2958L32.5378 85.339L32.2936 85.4831L32.1604 85.5119L31.968 85.4687L31.7312 85.3534L31.3242 85.0797L31.1466 84.914L31.043 84.7339L31.08 84.5682L31.3242 84.4313L31.228 84.3088L31.1318 84.0567L31.0504 83.927L31.2058 83.8766L31.265 83.7325L31.2502 83.5668L31.1762 83.4155L31.0652 83.3219L30.7618 83.1706L30.636 83.0553L30.5546 83.2282L30.4584 83.3219L30.2142 83.4948L29.97 83.7829L29.896 83.7973L29.8664 83.5668L29.8146 83.3507L29.6814 83.2931L29.5112 83.2715L29.341 83.1706L29.2596 83.0049L29.2078 82.6375L29.0968 82.4862L29.008 82.4502L28.823 82.4862H28.749L28.675 82.4358L28.5418 82.3133L28.4752 82.2701L27.8166 82.2341L27.3208 82.0107L27.084 81.9675L27.0174 81.9387L26.9434 81.9459L26.8398 82.0179L26.7806 82.0468L26.6918 82.0612L26.5364 82.054L26.2774 81.9099L26.048 81.6794L26.2996 81.3912L26.3514 81.2903L26.3662 81.2327L26.3958 81.0382L26.4106 80.9806L26.455 80.8869L26.5216 80.8149L26.603 80.75L26.677 80.678L26.7362 80.5843L26.7732 80.4763L26.8102 80.0729L26.7954 79.9936L26.7362 79.7631L26.714 79.655L26.6992 79.4965L26.677 79.3813L26.455 78.8698L26.3588 78.4952L26.3218 78.4015L26.2404 78.2935L26.2182 78.2358L26.2108 78.1494L26.2256 78.0053L26.307 77.8108V77.7388L26.2922 77.1696L28.0978 77.3425L29.8812 77.0832L32.2936 76.687L33.3074 76.9463L34.0696 76.8166L34.9576 75.9017L36.2304 75.1165L37.5032 74.8499L38.6428 74.9796L39.0276 75.5055L40.4262 75.7648H41.8248L42.8386 75.1165L43.2234 74.0647H44.363L44.1114 75.5055V76.8166L45.8874 77.6019L47.2638 78.6537Z" fill="#03B857" stroke="#03B857" stroke-width="2" stroke-linecap="round" stroke-linejoin="round"/>
<path d="M54.7822 87.3344L54.2346 88.9913L53.2208 92.7446L53.1098 92.9103L52.9766 93.076L52.8952 93.2417L52.9322 93.393L53.0654 93.2561L53.1394 93.2993L53.169 93.4362L53.1468 93.6091L53.0802 93.7676L52.9026 94.0774L52.8656 94.2647L52.8286 94.6249L52.7324 94.9851L52.3698 95.828L52.3328 95.972L52.3106 96.2962L52.1478 97.2039L51.9998 97.5857L51.8592 97.8523L50.579 101.908L49.284 104.847L47.9964 107.787L47.8558 108.493L47.5228 109.206L47.3378 110.431L46.2722 109.552H44.9994L43.7266 109.011L43.3492 107.808L42.4612 107.275L42.0764 107.679L41.1884 107.542L39.5382 106.742L39.0276 105.935L40.1672 105.272L41.699 104.473L41.3142 103.666L41.699 102.866L42.0764 101.267L42.7128 98.2053L42.328 97.276L42.0764 96.4835L42.587 95.2877L42.9644 93.2993L43.0902 91.5776L43.6008 91.0445L44.363 90.9148L44.4888 90.252L44.6146 88.7968L45.3768 88.5375L46.3092 87.6586L46.3758 87.6802H46.4424L46.5608 87.6586L46.8272 87.6442L46.9382 87.6082L47.1232 87.4929L47.2268 87.4497L47.36 87.4353L47.4858 87.4497L47.6116 87.4785L47.7522 87.4857L47.8706 87.4641L47.9224 87.4353L48.0334 87.3272L48.1666 87.2408L48.2258 87.2263L48.3442 87.1975L48.47 87.1831L48.618 87.1975L48.803 87.3128L48.9954 87.4641L49.1064 87.5289L49.1952 87.5721L49.2618 87.5649L49.3654 87.5217L49.4172 87.4425V87.392L49.3432 87.248L49.3284 87.1327L49.3728 86.9598L49.6836 86.4555L49.7058 86.3402L49.7428 86.225L49.7724 86.1818L49.876 86.0593L49.8908 86.0089L49.913 85.8936L49.9352 85.8432L50.0314 85.7207L50.0388 85.6775L50.024 85.627L49.9648 85.5406L49.95 85.4325L50.0018 85.3461L50.0832 85.2813L50.209 85.2452H50.3052L50.4162 85.2885L50.4902 85.3677L50.7048 85.7351L50.7344 85.7711L50.912 85.9008L51.1414 86.0305L51.2598 86.0809L51.3634 86.1097L51.504 86.1025L51.8222 86.0161L51.9258 86.0089L51.9924 86.0305L52.0516 86.0665L52.1108 86.1169L52.2884 86.2394L52.3698 86.3258L52.4142 86.4267L52.4216 86.4843L52.4142 86.686L52.429 86.7653L52.466 86.8373L52.5548 86.9238L52.6362 86.9598L53.1394 87.0751L53.8572 87.0679L54.6934 87.2912L54.7822 87.3344Z" fill="#03B857" stroke="#03B857" stroke-width="2" stroke-linecap="round" stroke-linejoin="round"/>
</g>
<defs>
<clipPath id="clip0_62_98">
<rect width="74" height="143" fill="#03B857"/>
</clipPath>
</defs>
</svg>
