{
    "asset" : {
        "generator" : "Khronos glTF Blender I/O v3.3.32",
        "version" : "2.0"
    },
    "extensionsUsed" : [
        "KHR_materials_specular",
        "KHR_materials_ior"
    ],
    "scene" : 0,
    "scenes" : [
        {
            "name" : "Scene",
            "nodes" : [
                0
            ]
        }
    ],
    "nodes" : [
        {
            "mesh" : 0,
            "name" : "Sphere.001",
            "rotation" : [
                0,
                -0.9901462197303772,
                0,
                0.14003725349903107
            ],
            "scale" : [
                0.6113371253013611,
                0.28400102257728577,
                0.28400102257728577
            ],
            "translation" : [
                7.252628803253174,
                1.9102610349655151,
                0.3379627466201782
            ]
        }
    ],
    "materials" : [
        {
            "doubleSided" : true,
            "extensions" : {
                "KHR_materials_specular" : {
                    "specularColorFactor" : [
                        0,
                        0,
                        0
                    ]
                },
                "KHR_materials_ior" : {
                    "ior" : 1.4500000476837158
                }
            },
            "name" : "Material.002",
            "pbrMetallicRoughness" : {
                "baseColorFactor" : [
                    0.01783600077033043,
                    0.08418100327253342,
                    0.01335499994456768,
                    1
                ],
                "metallicFactor" : 0
            }
        },
        {
            "doubleSided" : true,
            "extensions" : {
                "KHR_materials_specular" : {
                    "specularColorFactor" : [
                        0,
                        0,
                        0
                    ]
                },
                "KHR_materials_ior" : {
                    "ior" : 1.4500000476837158
                }
            },
            "name" : "Material.001",
            "pbrMetallicRoughness" : {
                "baseColorFactor" : [
                    0.14596499502658844,
                    0.06677799671888351,
                    0.009744999930262566,
                    1
                ],
                "metallicFactor" : 0
            }
        }
    ],
    "meshes" : [
        {
            "name" : "Sphere.001",
            "primitives" : [
                {
                    "attributes" : {
                        "POSITION" : 0,
                        "NORMAL" : 1,
                        "TEXCOORD_0" : 2
                    },
                    "indices" : 3,
                    "material" : 0
                },
                {
                    "attributes" : {
                        "POSITION" : 4,
                        "NORMAL" : 5,
                        "TEXCOORD_0" : 6
                    },
                    "indices" : 7,
                    "material" : 1
                }
            ]
        }
    ],
    "accessors" : [
        {
            "bufferView" : 0,
            "componentType" : 5126,
            "count" : 12531,
            "max" : [
                0.9938725829124451,
                8.500534057617188,
                2.452392578125
            ],
            "min" : [
                -6.387477874755859,
                -0.931412398815155,
                -4.14487886428833
            ],
            "type" : "VEC3"
        },
        {
            "bufferView" : 1,
            "componentType" : 5126,
            "count" : 12531,
            "type" : "VEC3"
        },
        {
            "bufferView" : 2,
            "componentType" : 5126,
            "count" : 12531,
            "type" : "VEC2"
        },
        {
            "bufferView" : 3,
            "componentType" : 5123,
            "count" : 71424,
            "type" : "SCALAR"
        },
        {
            "bufferView" : 4,
            "componentType" : 5126,
            "count" : 277,
            "max" : [
                0.4899221658706665,
                4.6150946617126465,
                1.9893161058425903
            ],
            "min" : [
                -4.758913040161133,
                -14.300264358520508,
                -2.40215802192688
            ],
            "type" : "VEC3"
        },
        {
            "bufferView" : 5,
            "componentType" : 5126,
            "count" : 277,
            "type" : "VEC3"
        },
        {
            "bufferView" : 6,
            "componentType" : 5126,
            "count" : 277,
            "type" : "VEC2"
        },
        {
            "bufferView" : 7,
            "componentType" : 5123,
            "count" : 1248,
            "type" : "SCALAR"
        }
    ],
    "bufferViews" : [
        {
            "buffer" : 0,
            "byteLength" : 150372,
            "byteOffset" : 0,
            "target" : 34962
        },
        {
            "buffer" : 0,
            "byteLength" : 150372,
            "byteOffset" : 150372,
            "target" : 34962
        },
        {
            "buffer" : 0,
            "byteLength" : 100248,
            "byteOffset" : 300744,
            "target" : 34962
        },
        {
            "buffer" : 0,
            "byteLength" : 142848,
            "byteOffset" : 400992,
            "target" : 34963
        },
        {
            "buffer" : 0,
            "byteLength" : 3324,
            "byteOffset" : 543840,
            "target" : 34962
        },
        {
            "buffer" : 0,
            "byteLength" : 3324,
            "byteOffset" : 547164,
            "target" : 34962
        },
        {
            "buffer" : 0,
            "byteLength" : 2216,
            "byteOffset" : 550488,
            "target" : 34962
        },
        {
            "buffer" : 0,
            "byteLength" : 2496,
            "byteOffset" : 552704,
            "target" : 34963
        }
    ],
    "buffers" : [
        {
            "byteLength" : 555200,
            "uri" : "baobab2.bin"
        }
    ]
}
