{
    "asset" : {
        "generator" : "Khronos glTF Blender I/O v3.3.32",
        "version" : "2.0"
    },
    "extensionsUsed" : [
        "KHR_materials_specular",
        "KHR_materials_ior"
    ],
    "scene" : 0,
    "scenes" : [
        {
            "name" : "Scene",
            "nodes" : [
                0
            ]
        }
    ],
    "nodes" : [
        {
            "mesh" : 0,
            "name" : "Cube.046",
            "rotation" : [
                0,
                -0.06700344383716583,
                0,
                0.9977527856826782
            ],
            "scale" : [
                0.22319352626800537,
                0.02203936129808426,
                0.22319352626800537
            ],
            "translation" : [
                2.373955249786377,
                0.693226158618927,
                -3.800870418548584
            ]
        }
    ],
    "materials" : [
        {
            "doubleSided" : true,
            "extensions" : {
                "KHR_materials_specular" : {
                    "specularColorFactor" : [
                        0,
                        0,
                        0
                    ]
                },
                "KHR_materials_ior" : {
                    "ior" : 1.4500000476837158
                }
            },
            "name" : "Material.009",
            "pbrMetallicRoughness" : {
                "baseColorFactor" : [
                    0.04903078079223633,
                    0.18965430557727814,
                    0.03785425052046776,
                    1
                ],
                "metallicFactor" : 0
            }
        },
        {
            "doubleSided" : true,
            "extensions" : {
                "KHR_materials_specular" : {
                    "specularColorFactor" : [
                        0,
                        0,
                        0
                    ]
                },
                "KHR_materials_ior" : {
                    "ior" : 1.4500000476837158
                }
            },
            "name" : "Material.004",
            "pbrMetallicRoughness" : {
                "baseColorFactor" : [
                    0.04903078079223633,
                    0.18965430557727814,
                    0.03785425052046776,
                    1
                ],
                "metallicFactor" : 0
            }
        },
        {
            "doubleSided" : true,
            "extensions" : {
                "KHR_materials_specular" : {
                    "specularColorFactor" : [
                        0,
                        0,
                        0
                    ]
                },
                "KHR_materials_ior" : {
                    "ior" : 1.4500000476837158
                }
            },
            "name" : "Material.005",
            "pbrMetallicRoughness" : {
                "baseColorFactor" : [
                    0.04903078079223633,
                    0.18965430557727814,
                    0.03785425052046776,
                    1
                ],
                "metallicFactor" : 0
            }
        },
        {
            "doubleSided" : true,
            "extensions" : {
                "KHR_materials_specular" : {
                    "specularColorFactor" : [
                        0,
                        0,
                        0
                    ]
                },
                "KHR_materials_ior" : {
                    "ior" : 1.4500000476837158
                }
            },
            "name" : "Material.006",
            "pbrMetallicRoughness" : {
                "baseColorFactor" : [
                    0.045584313571453094,
                    0.02340162731707096,
                    0.008025922812521458,
                    1
                ],
                "metallicFactor" : 0
            }
        },
        {
            "doubleSided" : true,
            "extensions" : {
                "KHR_materials_specular" : {
                    "specularColorFactor" : [
                        0.22537699255929158,
                        0.22537699255929158,
                        0.22537699255929158
                    ]
                },
                "KHR_materials_ior" : {
                    "ior" : 1.4500000476837158
                }
            },
            "name" : "Material.008",
            "pbrMetallicRoughness" : {
                "baseColorFactor" : [
                    0.04903078079223633,
                    0.18965430557727814,
                    0.03785425052046776,
                    1
                ],
                "metallicFactor" : 0,
                "roughnessFactor" : 0.45041322708129883
            }
        }
    ],
    "meshes" : [
        {
            "name" : "Cube.046",
            "primitives" : [
                {
                    "attributes" : {
                        "POSITION" : 0,
                        "NORMAL" : 1,
                        "TEXCOORD_0" : 2
                    },
                    "indices" : 3,
                    "material" : 0
                },
                {
                    "attributes" : {
                        "POSITION" : 4,
                        "NORMAL" : 5,
                        "TEXCOORD_0" : 6
                    },
                    "indices" : 7,
                    "material" : 1
                },
                {
                    "attributes" : {
                        "POSITION" : 8,
                        "NORMAL" : 9,
                        "TEXCOORD_0" : 10
                    },
                    "indices" : 11,
                    "material" : 2
                },
                {
                    "attributes" : {
                        "POSITION" : 12,
                        "NORMAL" : 13,
                        "TEXCOORD_0" : 14
                    },
                    "indices" : 15,
                    "material" : 3
                },
                {
                    "attributes" : {
                        "POSITION" : 16,
                        "NORMAL" : 17,
                        "TEXCOORD_0" : 18
                    },
                    "indices" : 19,
                    "material" : 4
                }
            ]
        }
    ],
    "accessors" : [
        {
            "bufferView" : 0,
            "componentType" : 5126,
            "count" : 1280,
            "max" : [
                4.056739807128906,
                2.777696132659912,
                1.5983599424362183
            ],
            "min" : [
                -4.9675469398498535,
                -8.580644607543945,
                -1.3232171535491943
            ],
            "type" : "VEC3"
        },
        {
            "bufferView" : 1,
            "componentType" : 5126,
            "count" : 1280,
            "type" : "VEC3"
        },
        {
            "bufferView" : 2,
            "componentType" : 5126,
            "count" : 1280,
            "type" : "VEC2"
        },
        {
            "bufferView" : 3,
            "componentType" : 5123,
            "count" : 1920,
            "type" : "SCALAR"
        },
        {
            "bufferView" : 4,
            "componentType" : 5126,
            "count" : 1280,
            "max" : [
                -9.012377738952637,
                2.777696132659912,
                3.3616085052490234
            ],
            "min" : [
                -18.036663055419922,
                -8.580644607543945,
                0.4400295317173004
            ],
            "type" : "VEC3"
        },
        {
            "bufferView" : 5,
            "componentType" : 5126,
            "count" : 1280,
            "type" : "VEC3"
        },
        {
            "bufferView" : 6,
            "componentType" : 5126,
            "count" : 1280,
            "type" : "VEC2"
        },
        {
            "bufferView" : 7,
            "componentType" : 5123,
            "count" : 1920,
            "type" : "SCALAR"
        },
        {
            "bufferView" : 8,
            "componentType" : 5126,
            "count" : 1280,
            "max" : [
                -15.254755020141602,
                2.9349067211151123,
                3.819488763809204
            ],
            "min" : [
                -24.430740356445312,
                -7.0131001472473145,
                1.282233715057373
            ],
            "type" : "VEC3"
        },
        {
            "bufferView" : 9,
            "componentType" : 5126,
            "count" : 1280,
            "type" : "VEC3"
        },
        {
            "bufferView" : 10,
            "componentType" : 5126,
            "count" : 1280,
            "type" : "VEC2"
        },
        {
            "bufferView" : 11,
            "componentType" : 5123,
            "count" : 1920,
            "type" : "SCALAR"
        },
        {
            "bufferView" : 12,
            "componentType" : 5126,
            "count" : 115,
            "max" : [
                8.047395706176758,
                7.670904636383057,
                4.286910057067871
            ],
            "min" : [
                -27.791706085205078,
                -14.177216529846191,
                -2.134977102279663
            ],
            "type" : "VEC3"
        },
        {
            "bufferView" : 13,
            "componentType" : 5126,
            "count" : 115,
            "type" : "VEC3"
        },
        {
            "bufferView" : 14,
            "componentType" : 5126,
            "count" : 115,
            "type" : "VEC2"
        },
        {
            "bufferView" : 15,
            "componentType" : 5123,
            "count" : 492,
            "type" : "SCALAR"
        },
        {
            "bufferView" : 16,
            "componentType" : 5126,
            "count" : 1280,
            "max" : [
                -2.1856398582458496,
                5.032113075256348,
                2.056241035461426
            ],
            "min" : [
                -11.361627578735352,
                -7.0131001472473145,
                -0.4810139834880829
            ],
            "type" : "VEC3"
        },
        {
            "bufferView" : 17,
            "componentType" : 5126,
            "count" : 1280,
            "type" : "VEC3"
        },
        {
            "bufferView" : 18,
            "componentType" : 5126,
            "count" : 1280,
            "type" : "VEC2"
        },
        {
            "bufferView" : 19,
            "componentType" : 5123,
            "count" : 1920,
            "type" : "SCALAR"
        }
    ],
    "bufferViews" : [
        {
            "buffer" : 0,
            "byteLength" : 15360,
            "byteOffset" : 0,
            "target" : 34962
        },
        {
            "buffer" : 0,
            "byteLength" : 15360,
            "byteOffset" : 15360,
            "target" : 34962
        },
        {
            "buffer" : 0,
            "byteLength" : 10240,
            "byteOffset" : 30720,
            "target" : 34962
        },
        {
            "buffer" : 0,
            "byteLength" : 3840,
            "byteOffset" : 40960,
            "target" : 34963
        },
        {
            "buffer" : 0,
            "byteLength" : 15360,
            "byteOffset" : 44800,
            "target" : 34962
        },
        {
            "buffer" : 0,
            "byteLength" : 15360,
            "byteOffset" : 60160,
            "target" : 34962
        },
        {
            "buffer" : 0,
            "byteLength" : 10240,
            "byteOffset" : 75520,
            "target" : 34962
        },
        {
            "buffer" : 0,
            "byteLength" : 3840,
            "byteOffset" : 85760,
            "target" : 34963
        },
        {
            "buffer" : 0,
            "byteLength" : 15360,
            "byteOffset" : 89600,
            "target" : 34962
        },
        {
            "buffer" : 0,
            "byteLength" : 15360,
            "byteOffset" : 104960,
            "target" : 34962
        },
        {
            "buffer" : 0,
            "byteLength" : 10240,
            "byteOffset" : 120320,
            "target" : 34962
        },
        {
            "buffer" : 0,
            "byteLength" : 3840,
            "byteOffset" : 130560,
            "target" : 34963
        },
        {
            "buffer" : 0,
            "byteLength" : 1380,
            "byteOffset" : 134400,
            "target" : 34962
        },
        {
            "buffer" : 0,
            "byteLength" : 1380,
            "byteOffset" : 135780,
            "target" : 34962
        },
        {
            "buffer" : 0,
            "byteLength" : 920,
            "byteOffset" : 137160,
            "target" : 34962
        },
        {
            "buffer" : 0,
            "byteLength" : 984,
            "byteOffset" : 138080,
            "target" : 34963
        },
        {
            "buffer" : 0,
            "byteLength" : 15360,
            "byteOffset" : 139064,
            "target" : 34962
        },
        {
            "buffer" : 0,
            "byteLength" : 15360,
            "byteOffset" : 154424,
            "target" : 34962
        },
        {
            "buffer" : 0,
            "byteLength" : 10240,
            "byteOffset" : 169784,
            "target" : 34962
        },
        {
            "buffer" : 0,
            "byteLength" : 3840,
            "byteOffset" : 180024,
            "target" : 34963
        }
    ],
    "buffers" : [
        {
            "byteLength" : 183864,
            "uri" : "marche2.bin"
        }
    ]
}
