{
    "asset" : {
        "generator" : "Khronos glTF Blender I/O v3.2.43",
        "version" : "2.0"
    },
    "scene" : 0,
    "scenes" : [
        {
            "name" : "Scene",
            "nodes" : [
                0,
                1,
                2
            ]
        }
    ],
    "nodes" : [
        {
            "mesh" : 0,
            "name" : "map_no_edges",
            "rotation" : [
                0,
                0.7077405452728271,
                0,
                0.7064724564552307
            ],
            "scale" : [
                1.106797695159912,
                1,
                1
            ],
            "translation" : [
                3.822014808654785,
                2,
                2.7484288215637207
            ]
        },
        {
            "mesh" : 1,
            "name" : "map_backup",
            "rotation" : [
                0,
                0.7077405452728271,
                0,
                0.7064724564552307
            ],
            "translation" : [
                22,
                2,
                1
            ]
        },
        {
            "name" : "Empty",
            "rotation" : [
                0.00022424539201892912,
                0.0020350548438727856,
                0.10952815413475037,
                0.9939815998077393
            ],
            "scale" : [
                3.4620361328125,
                3.462035894393921,
                3.462035655975342
            ],
            "translation" : [
                43.051631927490234,
                7.711550235748291,
                -1.3052940368652344
            ]
        }
    ],
    "materials" : [
        {
            "doubleSided" : true,
            "name" : "Material.001",
            "normalTexture" : {
                "index" : 0
            },
            "pbrMetallicRoughness" : {
                "baseColorTexture" : {
                    "index" : 1
                },
                "metallicFactor" : 0,
                "metallicRoughnessTexture" : {
                    "index" : 2
                }
            }
        }
    ],
    "meshes" : [
        {
            "name" : "Plane.003",
            "primitives" : [
                {
                    "attributes" : {
                        "POSITION" : 0,
                        "NORMAL" : 1,
                        "TEXCOORD_0" : 2
                    },
                    "indices" : 3,
                    "material" : 0
                }
            ]
        },
        {
            "name" : "Plane.001",
            "primitives" : [
                {
                    "attributes" : {
                        "POSITION" : 4,
                        "NORMAL" : 5,
                        "TEXCOORD_0" : 6
                    },
                    "indices" : 7,
                    "material" : 0
                }
            ]
        }
    ],
    "textures" : [
        {
            "sampler" : 0,
            "source" : 0
        },
        {
            "sampler" : 0,
            "source" : 1
        },
        {
            "sampler" : 0,
            "source" : 2
        }
    ],
    "images" : [
        {
            "mimeType" : "image/png",
            "name" : "sn_normal",
            "uri" : "sn_normal.png"
        },
        {
            "mimeType" : "image/png",
            "name" : "sb_color",
            "uri" : "sb_color.png"
        },
        {
            "mimeType" : "image/png",
            "name" : "sr_rough",
            "uri" : "sr_rough.png"
        }
    ],
    "accessors" : [
        {
            "bufferView" : 0,
            "componentType" : 5126,
            "count" : 87632,
            "max" : [
                13.255496978759766,
                1.0010336637496948,
                9.853675842285156
            ],
            "min" : [
                -13.240567207336426,
                -0.46496039628982544,
                -9.821041107177734
            ],
            "type" : "VEC3"
        },
        {
            "bufferView" : 1,
            "componentType" : 5126,
            "count" : 87632,
            "type" : "VEC3"
        },
        {
            "bufferView" : 2,
            "componentType" : 5126,
            "count" : 87632,
            "type" : "VEC2"
        },
        {
            "bufferView" : 3,
            "componentType" : 5125,
            "count" : 519528,
            "type" : "SCALAR"
        },
        {
            "bufferView" : 4,
            "componentType" : 5126,
            "count" : 88336,
            "max" : [
                13.25549602508545,
                0.9986671209335327,
                9.853675842285156
            ],
            "min" : [
                -13.294633865356445,
                -0.056599508970975876,
                -9.903282165527344
            ],
            "type" : "VEC3"
        },
        {
            "bufferView" : 5,
            "componentType" : 5126,
            "count" : 88336,
            "type" : "VEC3"
        },
        {
            "bufferView" : 6,
            "componentType" : 5126,
            "count" : 88336,
            "type" : "VEC2"
        },
        {
            "bufferView" : 7,
            "componentType" : 5125,
            "count" : 524304,
            "type" : "SCALAR"
        }
    ],
    "bufferViews" : [
        {
            "buffer" : 0,
            "byteLength" : 1051584,
            "byteOffset" : 0
        },
        {
            "buffer" : 0,
            "byteLength" : 1051584,
            "byteOffset" : 1051584
        },
        {
            "buffer" : 0,
            "byteLength" : 701056,
            "byteOffset" : 2103168
        },
        {
            "buffer" : 0,
            "byteLength" : 2078112,
            "byteOffset" : 2804224
        },
        {
            "buffer" : 0,
            "byteLength" : 1060032,
            "byteOffset" : 4882336
        },
        {
            "buffer" : 0,
            "byteLength" : 1060032,
            "byteOffset" : 5942368
        },
        {
            "buffer" : 0,
            "byteLength" : 706688,
            "byteOffset" : 7002400
        },
        {
            "buffer" : 0,
            "byteLength" : 2097216,
            "byteOffset" : 7709088
        }
    ],
    "samplers" : [
        {
            "magFilter" : 9729,
            "minFilter" : 9987
        }
    ],
    "buffers" : [
        {
            "byteLength" : 9806304,
            "uri" : "madagascar_test_height_map.bin"
        }
    ]
}