{
    "asset" : {
        "generator" : "Khronos glTF Blender I/O v3.3.32",
        "version" : "2.0"
    },
    "extensionsUsed" : [
        "KHR_materials_specular",
        "KHR_materials_ior"
    ],
    "scene" : 0,
    "scenes" : [
        {
            "name" : "Scene",
            "nodes" : [
                0
            ]
        }
    ],
    "nodes" : [
        {
            "mesh" : 0,
            "name" : "Cube"
        }
    ],
    "materials" : [
        {
            "doubleSided" : true,
            "extensions" : {
                "KHR_materials_specular" : {
                    "specularColorFactor" : [
                        0,
                        0,
                        0
                    ]
                },
                "KHR_materials_ior" : {
                    "ior" : 1.4500000476837158
                }
            },
            "name" : "Material.002",
            "pbrMetallicRoughness" : {
                "baseColorFactor" : [
                    0.12452393770217896,
                    0.11413250863552094,
                    0.08607228845357895,
                    1
                ],
                "metallicFactor" : 0
            }
        },
        {
            "doubleSided" : true,
            "extensions" : {
                "KHR_materials_specular" : {
                    "specularColorFactor" : [
                        0,
                        0,
                        0
                    ]
                },
                "KHR_materials_ior" : {
                    "ior" : 1.4500000476837158
                }
            },
            "name" : "Material",
            "pbrMetallicRoughness" : {
                "baseColorFactor" : [
                    0.16941161453723907,
                    0.08094095438718796,
                    0.011068443767726421,
                    1
                ],
                "metallicFactor" : 0
            }
        },
        {
            "doubleSided" : true,
            "extensions" : {
                "KHR_materials_specular" : {
                    "specularColorFactor" : [
                        0,
                        0,
                        0
                    ]
                },
                "KHR_materials_ior" : {
                    "ior" : 1.4500000476837158
                }
            },
            "name" : "Material.003",
            "pbrMetallicRoughness" : {
                "baseColorFactor" : [
                    0.050267938524484634,
                    0.04657052829861641,
                    0.03919295594096184,
                    1
                ],
                "metallicFactor" : 0
            }
        },
        {
            "doubleSided" : true,
            "extensions" : {
                "KHR_materials_specular" : {
                    "specularColorFactor" : [
                        0,
                        0,
                        0
                    ]
                },
                "KHR_materials_ior" : {
                    "ior" : 1.4500000476837158
                }
            },
            "name" : "Material.004",
            "pbrMetallicRoughness" : {
                "baseColorFactor" : [
                    0,
                    0,
                    0,
                    1
                ],
                "metallicFactor" : 0
            }
        }
    ],
    "meshes" : [
        {
            "name" : "Cube.002",
            "primitives" : [
                {
                    "attributes" : {
                        "POSITION" : 0,
                        "NORMAL" : 1,
                        "TEXCOORD_0" : 2
                    },
                    "indices" : 3,
                    "material" : 0
                },
                {
                    "attributes" : {
                        "POSITION" : 4,
                        "NORMAL" : 5,
                        "TEXCOORD_0" : 6
                    },
                    "indices" : 7,
                    "material" : 1
                },
                {
                    "attributes" : {
                        "POSITION" : 8,
                        "NORMAL" : 9,
                        "TEXCOORD_0" : 10
                    },
                    "indices" : 11,
                    "material" : 2
                },
                {
                    "attributes" : {
                        "POSITION" : 12,
                        "NORMAL" : 13,
                        "TEXCOORD_0" : 14
                    },
                    "indices" : 15,
                    "material" : 3
                }
            ]
        }
    ],
    "accessors" : [
        {
            "bufferView" : 0,
            "componentType" : 5126,
            "count" : 5288,
            "max" : [
                21.072612762451172,
                8.713799476623535,
                6.4573822021484375
            ],
            "min" : [
                13.245880126953125,
                -5.832660675048828,
                -5.929860591888428
            ],
            "type" : "VEC3"
        },
        {
            "bufferView" : 1,
            "componentType" : 5126,
            "count" : 5288,
            "type" : "VEC3"
        },
        {
            "bufferView" : 2,
            "componentType" : 5126,
            "count" : 5288,
            "type" : "VEC2"
        },
        {
            "bufferView" : 3,
            "componentType" : 5123,
            "count" : 7932,
            "type" : "SCALAR"
        },
        {
            "bufferView" : 4,
            "componentType" : 5126,
            "count" : 6848,
            "max" : [
                19.549884796142578,
                7.855299949645996,
                7.981753826141357
            ],
            "min" : [
                14.812384605407715,
                -8.81391429901123,
                0.018270909786224365
            ],
            "type" : "VEC3"
        },
        {
            "bufferView" : 5,
            "componentType" : 5126,
            "count" : 6848,
            "type" : "VEC3"
        },
        {
            "bufferView" : 6,
            "componentType" : 5126,
            "count" : 6848,
            "type" : "VEC2"
        },
        {
            "bufferView" : 7,
            "componentType" : 5123,
            "count" : 10272,
            "type" : "SCALAR"
        },
        {
            "bufferView" : 8,
            "componentType" : 5126,
            "count" : 952,
            "max" : [
                21.366464614868164,
                0.014296431094408035,
                3.7052934169769287
            ],
            "min" : [
                13.036303520202637,
                -3.7445147037506104,
                -3.297308921813965
            ],
            "type" : "VEC3"
        },
        {
            "bufferView" : 9,
            "componentType" : 5126,
            "count" : 952,
            "type" : "VEC3"
        },
        {
            "bufferView" : 10,
            "componentType" : 5126,
            "count" : 952,
            "type" : "VEC2"
        },
        {
            "bufferView" : 11,
            "componentType" : 5123,
            "count" : 1428,
            "type" : "SCALAR"
        },
        {
            "bufferView" : 12,
            "componentType" : 5126,
            "count" : 31712,
            "max" : [
                17.91624641418457,
                8.457155227661133,
                6.107508182525635
            ],
            "min" : [
                16.42845916748047,
                8.181538581848145,
                5.759267330169678
            ],
            "type" : "VEC3"
        },
        {
            "bufferView" : 13,
            "componentType" : 5126,
            "count" : 31712,
            "type" : "VEC3"
        },
        {
            "bufferView" : 14,
            "componentType" : 5126,
            "count" : 31712,
            "type" : "VEC2"
        },
        {
            "bufferView" : 15,
            "componentType" : 5123,
            "count" : 47568,
            "type" : "SCALAR"
        }
    ],
    "bufferViews" : [
        {
            "buffer" : 0,
            "byteLength" : 63456,
            "byteOffset" : 0,
            "target" : 34962
        },
        {
            "buffer" : 0,
            "byteLength" : 63456,
            "byteOffset" : 63456,
            "target" : 34962
        },
        {
            "buffer" : 0,
            "byteLength" : 42304,
            "byteOffset" : 126912,
            "target" : 34962
        },
        {
            "buffer" : 0,
            "byteLength" : 15864,
            "byteOffset" : 169216,
            "target" : 34963
        },
        {
            "buffer" : 0,
            "byteLength" : 82176,
            "byteOffset" : 185080,
            "target" : 34962
        },
        {
            "buffer" : 0,
            "byteLength" : 82176,
            "byteOffset" : 267256,
            "target" : 34962
        },
        {
            "buffer" : 0,
            "byteLength" : 54784,
            "byteOffset" : 349432,
            "target" : 34962
        },
        {
            "buffer" : 0,
            "byteLength" : 20544,
            "byteOffset" : 404216,
            "target" : 34963
        },
        {
            "buffer" : 0,
            "byteLength" : 11424,
            "byteOffset" : 424760,
            "target" : 34962
        },
        {
            "buffer" : 0,
            "byteLength" : 11424,
            "byteOffset" : 436184,
            "target" : 34962
        },
        {
            "buffer" : 0,
            "byteLength" : 7616,
            "byteOffset" : 447608,
            "target" : 34962
        },
        {
            "buffer" : 0,
            "byteLength" : 2856,
            "byteOffset" : 455224,
            "target" : 34963
        },
        {
            "buffer" : 0,
            "byteLength" : 380544,
            "byteOffset" : 458080,
            "target" : 34962
        },
        {
            "buffer" : 0,
            "byteLength" : 380544,
            "byteOffset" : 838624,
            "target" : 34962
        },
        {
            "buffer" : 0,
            "byteLength" : 253696,
            "byteOffset" : 1219168,
            "target" : 34962
        },
        {
            "buffer" : 0,
            "byteLength" : 95136,
            "byteOffset" : 1472864,
            "target" : 34963
        }
    ],
    "buffers" : [
        {
            "byteLength" : 1568000,
            "uri" : "goose4.bin"
        }
    ]
}
