{
    "asset" : {
        "generator" : "Khronos glTF Blender I/O v3.3.32",
        "version" : "2.0"
    },
    "extensionsUsed" : [
        "KHR_materials_specular",
        "KHR_materials_ior"
    ],
    "scene" : 0,
    "scenes" : [
        {
            "name" : "Scene",
            "nodes" : [
                0,
                1
            ]
        }
    ],
    "nodes" : [
        {
            "mesh" : 0,
            "name" : "Sphere.006",
            "translation" : [
                0.06909967958927155,
                0.18475013971328735,
                -0.45394468307495117
            ]
        },
        {
            "mesh" : 1,
            "name" : "Sphere.007"
        }
    ],
    "materials" : [
        {
            "doubleSided" : true,
            "extensions" : {
                "KHR_materials_specular" : {
                    "specularColorFactor" : [
                        0.029396992884084632,
                        0.029396992884084632,
                        0.029396992884084632
                    ]
                },
                "KHR_materials_ior" : {
                    "ior" : 1.4500000476837158
                }
            },
            "name" : "Material.001",
            "pbrMetallicRoughness" : {
                "baseColorFactor" : [
                    0.01219305768609047,
                    0.06595650315284729,
                    0.004047351889312267,
                    1
                ],
                "metallicFactor" : 0
            }
        },
        {
            "doubleSided" : true,
            "extensions" : {
                "KHR_materials_specular" : {
                    "specularColorFactor" : [
                        0,
                        0,
                        0
                    ]
                },
                "KHR_materials_ior" : {
                    "ior" : 1.4500000476837158
                }
            },
            "name" : "Material",
            "pbrMetallicRoughness" : {
                "baseColorFactor" : [
                    0.1245264783501625,
                    0.07189643383026123,
                    0.017395231872797012,
                    1
                ],
                "metallicFactor" : 0
            }
        },
        {
            "doubleSided" : true,
            "extensions" : {
                "KHR_materials_specular" : {
                    "specularColorFactor" : [
                        0.029396992884084632,
                        0.029396992884084632,
                        0.029396992884084632
                    ]
                },
                "KHR_materials_ior" : {
                    "ior" : 1.4500000476837158
                }
            },
            "name" : "Material.002",
            "pbrMetallicRoughness" : {
                "baseColorFactor" : [
                    0.01219305768609047,
                    0.06595650315284729,
                    0.004047351889312267,
                    1
                ],
                "metallicFactor" : 0
            }
        }
    ],
    "meshes" : [
        {
            "name" : "Sphere.006",
            "primitives" : [
                {
                    "attributes" : {
                        "POSITION" : 0,
                        "NORMAL" : 1,
                        "TEXCOORD_0" : 2
                    },
                    "indices" : 3,
                    "material" : 0
                },
                {
                    "attributes" : {
                        "POSITION" : 4,
                        "NORMAL" : 5,
                        "TEXCOORD_0" : 6
                    },
                    "indices" : 7,
                    "material" : 1
                },
                {
                    "attributes" : {
                        "POSITION" : 8,
                        "NORMAL" : 9,
                        "TEXCOORD_0" : 10
                    },
                    "indices" : 11,
                    "material" : 2
                }
            ]
        },
        {
            "name" : "Sphere.007",
            "primitives" : [
                {
                    "attributes" : {
                        "POSITION" : 12,
                        "NORMAL" : 13,
                        "TEXCOORD_0" : 14
                    },
                    "indices" : 15,
                    "material" : 0
                }
            ]
        }
    ],
    "accessors" : [
        {
            "bufferView" : 0,
            "componentType" : 5126,
            "count" : 47616,
            "max" : [
                2.2542026042938232,
                10.070267677307129,
                3.0825917720794678
            ],
            "min" : [
                -2.0285861492156982,
                5.929035663604736,
                -2.457035541534424
            ],
            "type" : "VEC3"
        },
        {
            "bufferView" : 1,
            "componentType" : 5126,
            "count" : 47616,
            "type" : "VEC3"
        },
        {
            "bufferView" : 2,
            "componentType" : 5126,
            "count" : 47616,
            "type" : "VEC2"
        },
        {
            "bufferView" : 3,
            "componentType" : 5123,
            "count" : 71424,
            "type" : "SCALAR"
        },
        {
            "bufferView" : 4,
            "componentType" : 5126,
            "count" : 541,
            "max" : [
                0.8413567543029785,
                9.133912086486816,
                2.1207048892974854
            ],
            "min" : [
                -1.9442139863967896,
                -1.4955908060073853,
                -0.9180195927619934
            ],
            "type" : "VEC3"
        },
        {
            "bufferView" : 5,
            "componentType" : 5126,
            "count" : 541,
            "type" : "VEC3"
        },
        {
            "bufferView" : 6,
            "componentType" : 5126,
            "count" : 541,
            "type" : "VEC2"
        },
        {
            "bufferView" : 7,
            "componentType" : 5123,
            "count" : 2676,
            "type" : "SCALAR"
        },
        {
            "bufferView" : 8,
            "componentType" : 5126,
            "count" : 15872,
            "max" : [
                -0.4214596748352051,
                6.484591484069824,
                1.2125141620635986
            ],
            "min" : [
                -3.0032052993774414,
                5.179964542388916,
                -0.6316280961036682
            ],
            "type" : "VEC3"
        },
        {
            "bufferView" : 9,
            "componentType" : 5126,
            "count" : 15872,
            "type" : "VEC3"
        },
        {
            "bufferView" : 10,
            "componentType" : 5126,
            "count" : 15872,
            "type" : "VEC2"
        },
        {
            "bufferView" : 11,
            "componentType" : 5123,
            "count" : 23808,
            "type" : "SCALAR"
        },
        {
            "bufferView" : 12,
            "componentType" : 5126,
            "count" : 1984,
            "max" : [
                -1.2942328453063965,
                5.982297420501709,
                1.166014313697815
            ],
            "min" : [
                -3.3782474994659424,
                4.459183216094971,
                -1.2371608018875122
            ],
            "type" : "VEC3"
        },
        {
            "bufferView" : 13,
            "componentType" : 5126,
            "count" : 1984,
            "type" : "VEC3"
        },
        {
            "bufferView" : 14,
            "componentType" : 5126,
            "count" : 1984,
            "type" : "VEC2"
        },
        {
            "bufferView" : 15,
            "componentType" : 5123,
            "count" : 2880,
            "type" : "SCALAR"
        }
    ],
    "bufferViews" : [
        {
            "buffer" : 0,
            "byteLength" : 571392,
            "byteOffset" : 0,
            "target" : 34962
        },
        {
            "buffer" : 0,
            "byteLength" : 571392,
            "byteOffset" : 571392,
            "target" : 34962
        },
        {
            "buffer" : 0,
            "byteLength" : 380928,
            "byteOffset" : 1142784,
            "target" : 34962
        },
        {
            "buffer" : 0,
            "byteLength" : 142848,
            "byteOffset" : 1523712,
            "target" : 34963
        },
        {
            "buffer" : 0,
            "byteLength" : 6492,
            "byteOffset" : 1666560,
            "target" : 34962
        },
        {
            "buffer" : 0,
            "byteLength" : 6492,
            "byteOffset" : 1673052,
            "target" : 34962
        },
        {
            "buffer" : 0,
            "byteLength" : 4328,
            "byteOffset" : 1679544,
            "target" : 34962
        },
        {
            "buffer" : 0,
            "byteLength" : 5352,
            "byteOffset" : 1683872,
            "target" : 34963
        },
        {
            "buffer" : 0,
            "byteLength" : 190464,
            "byteOffset" : 1689224,
            "target" : 34962
        },
        {
            "buffer" : 0,
            "byteLength" : 190464,
            "byteOffset" : 1879688,
            "target" : 34962
        },
        {
            "buffer" : 0,
            "byteLength" : 126976,
            "byteOffset" : 2070152,
            "target" : 34962
        },
        {
            "buffer" : 0,
            "byteLength" : 47616,
            "byteOffset" : 2197128,
            "target" : 34963
        },
        {
            "buffer" : 0,
            "byteLength" : 23808,
            "byteOffset" : 2244744,
            "target" : 34962
        },
        {
            "buffer" : 0,
            "byteLength" : 23808,
            "byteOffset" : 2268552,
            "target" : 34962
        },
        {
            "buffer" : 0,
            "byteLength" : 15872,
            "byteOffset" : 2292360,
            "target" : 34962
        },
        {
            "buffer" : 0,
            "byteLength" : 5760,
            "byteOffset" : 2308232,
            "target" : 34963
        }
    ],
    "buffers" : [
        {
            "byteLength" : 2313992,
            "uri" : "tree4.bin"
        }
    ]
}
