{
    "asset" : {
        "generator" : "Khronos glTF Blender I/O v3.3.32",
        "version" : "2.0"
    },
    "extensionsUsed" : [
        "KHR_materials_specular",
        "KHR_materials_ior"
    ],
    "scene" : 0,
    "scenes" : [
        {
            "name" : "blend_export",
            "nodes" : [
                0
            ]
        }
    ],
    "nodes" : [
        {
            "mesh" : 0,
            "name" : "brass_pot_02",
            "scale" : [
                9.445901870727539,
                9.445901870727539,
                9.445901870727539
            ]
        }
    ],
    "materials" : [
        {
            "doubleSided" : true,
            "extensions" : {
                "KHR_materials_specular" : {
                    "specularColorFactor" : [
                        0,
                        0,
                        0
                    ]
                },
                "KHR_materials_ior" : {
                    "ior" : 1.4500000476837158
                }
            },
            "name" : "Material",
            "pbrMetallicRoughness" : {
                "baseColorFactor" : [
                    0.0199546217918396,
                    0.015329180285334587,
                    0.011787477880716324,
                    1
                ],
                "metallicFactor" : 0
            }
        }
    ],
    "meshes" : [
        {
            "name" : "brass_pot_02",
            "primitives" : [
                {
                    "attributes" : {
                        "POSITION" : 0,
                        "NORMAL" : 1,
                        "TEXCOORD_0" : 2
                    },
                    "indices" : 3,
                    "material" : 0
                }
            ]
        }
    ],
    "accessors" : [
        {
            "bufferView" : 0,
            "componentType" : 5126,
            "count" : 2280,
            "max" : [
                0.18333452939987183,
                0.10836517810821533,
                0.15119366347789764
            ],
            "min" : [
                -0.18333452939987183,
                -0.0001811981201171875,
                -0.15109674632549286
            ],
            "type" : "VEC3"
        },
        {
            "bufferView" : 1,
            "componentType" : 5126,
            "count" : 2280,
            "type" : "VEC3"
        },
        {
            "bufferView" : 2,
            "componentType" : 5126,
            "count" : 2280,
            "type" : "VEC2"
        },
        {
            "bufferView" : 3,
            "componentType" : 5123,
            "count" : 10032,
            "type" : "SCALAR"
        }
    ],
    "bufferViews" : [
        {
            "buffer" : 0,
            "byteLength" : 27360,
            "byteOffset" : 0,
            "target" : 34962
        },
        {
            "buffer" : 0,
            "byteLength" : 27360,
            "byteOffset" : 27360,
            "target" : 34962
        },
        {
            "buffer" : 0,
            "byteLength" : 18240,
            "byteOffset" : 54720,
            "target" : 34962
        },
        {
            "buffer" : 0,
            "byteLength" : 20064,
            "byteOffset" : 72960,
            "target" : 34963
        }
    ],
    "buffers" : [
        {
            "byteLength" : 93024,
            "uri" : "pot.bin"
        }
    ]
}
