{
    "asset" : {
        "generator" : "Khronos glTF Blender I/O v3.3.32",
        "version" : "2.0"
    },
    "extensionsUsed" : [
        "KHR_materials_specular",
        "KHR_materials_ior"
    ],
    "scene" : 0,
    "scenes" : [
        {
            "name" : "Scene",
            "nodes" : [
                0
            ]
        }
    ],
    "nodes" : [
        {
            "mesh" : 0,
            "name" : "Cube"
        }
    ],
    "materials" : [
        {
            "doubleSided" : true,
            "extensions" : {
                "KHR_materials_specular" : {
                    "specularColorFactor" : [
                        0,
                        0,
                        0
                    ]
                },
                "KHR_materials_ior" : {
                    "ior" : 1.4500000476837158
                }
            },
            "name" : "Material.001",
            "pbrMetallicRoughness" : {
                "baseColorFactor" : [
                    0.29772844910621643,
                    0.24892917275428772,
                    0.1601770967245102,
                    1
                ],
                "metallicFactor" : 0
            }
        },
        {
            "doubleSided" : true,
            "extensions" : {
                "KHR_materials_specular" : {
                    "specularColorFactor" : [
                        0,
                        0,
                        0
                    ]
                },
                "KHR_materials_ior" : {
                    "ior" : 1.4500000476837158
                }
            },
            "name" : "Material.002",
            "pbrMetallicRoughness" : {
                "baseColorFactor" : [
                    0.045584537088871,
                    0.01934879645705223,
                    0.004736682865768671,
                    1
                ],
                "metallicFactor" : 0
            }
        }
    ],
    "meshes" : [
        {
            "name" : "Cube.001",
            "primitives" : [
                {
                    "attributes" : {
                        "POSITION" : 0,
                        "NORMAL" : 1,
                        "TEXCOORD_0" : 2
                    },
                    "indices" : 3,
                    "material" : 0
                },
                {
                    "attributes" : {
                        "POSITION" : 4,
                        "NORMAL" : 5,
                        "TEXCOORD_0" : 6
                    },
                    "indices" : 7,
                    "material" : 1
                }
            ]
        }
    ],
    "accessors" : [
        {
            "bufferView" : 0,
            "componentType" : 5126,
            "count" : 1675,
            "max" : [
                15.212530136108398,
                0.0791078433394432,
                1.0896296501159668
            ],
            "min" : [
                -1.738634467124939,
                -0.07910776138305664,
                -1.0896296501159668
            ],
            "type" : "VEC3"
        },
        {
            "bufferView" : 1,
            "componentType" : 5126,
            "count" : 1675,
            "type" : "VEC3"
        },
        {
            "bufferView" : 2,
            "componentType" : 5126,
            "count" : 1675,
            "type" : "VEC2"
        },
        {
            "bufferView" : 3,
            "componentType" : 5123,
            "count" : 5145,
            "type" : "SCALAR"
        },
        {
            "bufferView" : 4,
            "componentType" : 5126,
            "count" : 2245,
            "max" : [
                15.21371078491211,
                0.6597721576690674,
                1.0896297693252563
            ],
            "min" : [
                -1.7437198162078857,
                -1.344488263130188,
                -1.0896297693252563
            ],
            "type" : "VEC3"
        },
        {
            "bufferView" : 5,
            "componentType" : 5126,
            "count" : 2245,
            "type" : "VEC3"
        },
        {
            "bufferView" : 6,
            "componentType" : 5126,
            "count" : 2245,
            "type" : "VEC2"
        },
        {
            "bufferView" : 7,
            "componentType" : 5123,
            "count" : 6075,
            "type" : "SCALAR"
        }
    ],
    "bufferViews" : [
        {
            "buffer" : 0,
            "byteLength" : 20100,
            "byteOffset" : 0,
            "target" : 34962
        },
        {
            "buffer" : 0,
            "byteLength" : 20100,
            "byteOffset" : 20100,
            "target" : 34962
        },
        {
            "buffer" : 0,
            "byteLength" : 13400,
            "byteOffset" : 40200,
            "target" : 34962
        },
        {
            "buffer" : 0,
            "byteLength" : 10290,
            "byteOffset" : 53600,
            "target" : 34963
        },
        {
            "buffer" : 0,
            "byteLength" : 26940,
            "byteOffset" : 63892,
            "target" : 34962
        },
        {
            "buffer" : 0,
            "byteLength" : 26940,
            "byteOffset" : 90832,
            "target" : 34962
        },
        {
            "buffer" : 0,
            "byteLength" : 17960,
            "byteOffset" : 117772,
            "target" : 34962
        },
        {
            "buffer" : 0,
            "byteLength" : 12150,
            "byteOffset" : 135732,
            "target" : 34963
        }
    ],
    "buffers" : [
        {
            "byteLength" : 147884,
            "uri" : "bridge.bin"
        }
    ]
}
