{
    "asset" : {
        "generator" : "Khronos glTF Blender I/O v3.3.32",
        "version" : "2.0"
    },
    "extensionsUsed" : [
        "KHR_materials_specular",
        "KHR_materials_ior"
    ],
    "scene" : 0,
    "scenes" : [
        {
            "name" : "Scene",
            "nodes" : [
                0
            ]
        }
    ],
    "nodes" : [
        {
            "mesh" : 0,
            "name" : "Sphere.003",
            "scale" : [
                0.9262049794197083,
                0.9262049794197083,
                0.9262049794197083
            ],
            "translation" : [
                -0.13755443692207336,
                7.312787055969238,
                -1.8736851215362549
            ]
        }
    ],
    "materials" : [
        {
            "doubleSided" : true,
            "extensions" : {
                "KHR_materials_specular" : {
                    "specularColorFactor" : [
                        0.029396992884084632,
                        0.029396992884084632,
                        0.029396992884084632
                    ]
                },
                "KHR_materials_ior" : {
                    "ior" : 1.4500000476837158
                }
            },
            "name" : "Material.001",
            "pbrMetallicRoughness" : {
                "baseColorFactor" : [
                    0.01219305768609047,
                    0.06595650315284729,
                    0.004047351889312267,
                    1
                ],
                "metallicFactor" : 0
            }
        },
        {
            "doubleSided" : true,
            "extensions" : {
                "KHR_materials_specular" : {
                    "specularColorFactor" : [
                        0,
                        0,
                        0
                    ]
                },
                "KHR_materials_ior" : {
                    "ior" : 1.4500000476837158
                }
            },
            "name" : "Material",
            "pbrMetallicRoughness" : {
                "baseColorFactor" : [
                    0.1245264783501625,
                    0.07189643383026123,
                    0.017395231872797012,
                    1
                ],
                "metallicFactor" : 0
            }
        }
    ],
    "meshes" : [
        {
            "name" : "Sphere.003",
            "primitives" : [
                {
                    "attributes" : {
                        "POSITION" : 0,
                        "NORMAL" : 1,
                        "TEXCOORD_0" : 2
                    },
                    "indices" : 3,
                    "material" : 0
                },
                {
                    "attributes" : {
                        "POSITION" : 4,
                        "NORMAL" : 5,
                        "TEXCOORD_0" : 6
                    },
                    "indices" : 7,
                    "material" : 1
                }
            ]
        }
    ],
    "accessors" : [
        {
            "bufferView" : 0,
            "componentType" : 5126,
            "count" : 71424,
            "max" : [
                4.491116523742676,
                3.1766517162323,
                4.861053943634033
            ],
            "min" : [
                -3.4636147022247314,
                -3.789320230484009,
                -1.119941234588623
            ],
            "type" : "VEC3"
        },
        {
            "bufferView" : 1,
            "componentType" : 5126,
            "count" : 71424,
            "type" : "VEC3"
        },
        {
            "bufferView" : 2,
            "componentType" : 5126,
            "count" : 71424,
            "type" : "VEC2"
        },
        {
            "bufferView" : 3,
            "componentType" : 5125,
            "count" : 107136,
            "type" : "SCALAR"
        },
        {
            "bufferView" : 4,
            "componentType" : 5126,
            "count" : 577,
            "max" : [
                3.2591865062713623,
                2.165691375732422,
                3.822528839111328
            ],
            "min" : [
                -2.810014247894287,
                -10.999841690063477,
                0.541695237159729
            ],
            "type" : "VEC3"
        },
        {
            "bufferView" : 5,
            "componentType" : 5126,
            "count" : 577,
            "type" : "VEC3"
        },
        {
            "bufferView" : 6,
            "componentType" : 5126,
            "count" : 577,
            "type" : "VEC2"
        },
        {
            "bufferView" : 7,
            "componentType" : 5123,
            "count" : 2964,
            "type" : "SCALAR"
        }
    ],
    "bufferViews" : [
        {
            "buffer" : 0,
            "byteLength" : 857088,
            "byteOffset" : 0,
            "target" : 34962
        },
        {
            "buffer" : 0,
            "byteLength" : 857088,
            "byteOffset" : 857088,
            "target" : 34962
        },
        {
            "buffer" : 0,
            "byteLength" : 571392,
            "byteOffset" : 1714176,
            "target" : 34962
        },
        {
            "buffer" : 0,
            "byteLength" : 428544,
            "byteOffset" : 2285568,
            "target" : 34963
        },
        {
            "buffer" : 0,
            "byteLength" : 6924,
            "byteOffset" : 2714112,
            "target" : 34962
        },
        {
            "buffer" : 0,
            "byteLength" : 6924,
            "byteOffset" : 2721036,
            "target" : 34962
        },
        {
            "buffer" : 0,
            "byteLength" : 4616,
            "byteOffset" : 2727960,
            "target" : 34962
        },
        {
            "buffer" : 0,
            "byteLength" : 5928,
            "byteOffset" : 2732576,
            "target" : 34963
        }
    ],
    "buffers" : [
        {
            "byteLength" : 2738504,
            "uri" : "tree2gltf.bin"
        }
    ]
}
